<?xml version="1.0" encoding="utf-8"?>
<!-- Generator: Adobe Illustrator 18.0.0, SVG Export Plug-In . SVG Version: 6.00 Build 0)  -->
<!DOCTYPE svg PUBLIC "-//W3C//DTD SVG 1.1//EN" "http://www.w3.org/Graphics/SVG/1.1/DTD/svg11.dtd">
<svg version="1.1" id="Layer_1" xmlns="http://www.w3.org/2000/svg" xmlns:xlink="http://www.w3.org/1999/xlink" x="0px" y="0px"
	 viewBox="0 0 100 100" enable-background="new 0 0 100 100" xml:space="preserve">
<path fill="#E6E6E6" d="M20.6,20.2c0.2,0.1,0.4,0.2,0.6,0.3c1.8,1,4.9,2.6,6.4,3.3c1.7,0.7,3,1.4,4.3,1.7c0.1,0,0.2,0,0.2,0.1
	c0.1,0,0.1,0,0.2,0c0.2,0,0.4,0.1,0.5,0.1c0.2,0,0.3,0,0.5,0c2,0.1,3.9-0.9,4.9-1.9c0.4-0.4,0.7-0.8,0.8-1.1c0-0.2,0-0.3-0.1-0.4
	c-0.1,0-0.1-0.1-0.2-0.1c-0.1-0.1-0.2-0.1-0.3-0.2c-1.5-0.8-2.8-1.4-4.3-2.1c-1.2-0.6-2.5-1.3-3.7-1.9c-0.2-0.1-0.3-0.2-0.5-0.2
	c-0.3,0.1-0.6,0.3-0.8,0.4c-0.5,0.2-1,0.5-1.8,0.7c-1.9,0.5-4.2,1-6,1.2c-0.1,0-0.3,0-0.4,0C20.8,20.2,20.7,20.2,20.6,20.2z"/>
<g>
	<path fill="#FFFFFF" stroke="#F15A24" stroke-width="0.7013" stroke-miterlimit="10" d="M38.9,22.3c-0.1,0-0.1-0.1-0.2-0.1
		c-0.1-0.1-0.2-0.1-0.3-0.2c-1.5-0.8-2.8-1.4-4.3-2.1c-1.2-0.6-2.5-1.3-3.7-1.9c-0.2-0.1-0.3-0.2-0.5-0.2c-0.3,0.1-0.6,0.3-0.8,0.4
		c-0.5,0.2-1,0.5-1.8,0.7c-1.9,0.5-4.2,1-6,1.2c-0.1,0-0.3,0-0.4,0c-0.1,0-0.3,0-0.4,0c0.2,0.1,0.4,0.2,0.6,0.3
		c1.8,1,4.9,2.6,6.4,3.3c1.7,0.7,3,1.4,4.3,1.7c0.1,0,0.2,0,0.2,0.1c0.1,0,0.1,0,0.2,0c0.2,0,0.4,0.1,0.5,0.1c0.2,0,0.3,0,0.5,0
		c2,0.1,3.9-0.9,4.9-1.9c0.4-0.4,0.7-0.8,0.8-1.1C39,22.6,39,22.4,38.9,22.3z"/>
</g>
<path fill="#272727" d="M2.5,16.7c0,0.6,0.2,1-0.2,0.9C2,17.6,2,17.2,2,16.5c0-0.6,0.2-1,0.6-0.9C2.6,15.8,2.5,16.2,2.5,16.7z"/>
<g>
	<path fill="#FFFFFF" stroke="#F15A24" stroke-width="0.7013" stroke-miterlimit="10" d="M2.5,19.2c0.6,0.3,2.7,0.6,3.3,0.7
		c1.2,0.2,3,0.3,3.7,0.4c0.2,0,0.4,0,0.6,0c0-0.1,0.1-0.7,0.1-0.8c0.1-1.1,0-2.8,0.2-4.8c0.1-1.4,0.3-2.9,0.7-4.4
		c0.6-2.2,1.7-4.3,3.4-6.2c0.3-0.3,0.5-0.6,0.8-0.8c-0.2,0-0.3,0-0.5,0c-1,0-1.8,0.1-2.4,0.2c-1,0.2-1.8,0.3-3.2,1
		C9,4.7,8.7,4.9,8.4,5c-1.8,1.1-3,2.5-3.9,4c-1,1.7-1.5,3.2-1.7,4.5c-0.4,1.8-0.3,3.4-0.3,5C2.5,18.6,2.5,19.1,2.5,19.2z"/>
	<g>
		<defs>
			<path id="SVGID_1_" d="M15.2,3.3c-2,1.3-3.9,4.9-4.4,7.1C10.3,12,10.1,13.9,10,15c-0.2,2.3-0.1,3.6-0.1,4.6
				c0,0.3,0.1,0.7,0.3,0.7c0-0.1,0.1-0.7,0.1-0.8c0.1-1.1,0-2.8,0.2-4.8c0.1-1.4,0.3-2.9,0.7-4.4c0.6-2.2,1.7-4.3,3.4-6.2
				c0.3-0.3,0.5-0.6,0.8-0.8C15.2,3.3,15.3,3.2,15.2,3.3z"/>
		</defs>
		<clipPath id="SVGID_2_">
			<use xlink:href="#SVGID_1_"  overflow="visible"/>
		</clipPath>
		<path clip-path="url(#SVGID_2_)" fill="#F5F5F5" stroke="#F15A24" stroke-miterlimit="10" d="M2.5,19.2c0.6,0.3,2.7,0.6,3.3,0.7
			c1.2,0.2,3,0.3,3.7,0.4c0.2,0,0.4,0,0.6,0c0-0.1,0.1-0.7,0.1-0.8c0.1-1.1,0-2.8,0.2-4.8c0.1-1.4,0.3-2.9,0.7-4.4
			c0.6-2.2,1.7-4.3,3.4-6.2c0.3-0.3,0.5-0.6,0.8-0.8c-0.2,0-0.3,0-0.5,0c-1,0-1.8,0.1-2.4,0.2c-1,0.2-1.8,0.3-3.2,1
			C9,4.7,8.7,4.9,8.4,5c-1.8,1.1-3,2.5-3.9,4c-1,1.7-1.5,3.2-1.7,4.5c-0.4,1.8-0.3,3.4-0.3,5C2.5,18.6,2.5,19.1,2.5,19.2z"/>
		<use xlink:href="#SVGID_1_"  overflow="visible" fill="none" stroke="#F15A24" stroke-miterlimit="10"/>
	</g>
	<path fill="#FFFFFF" stroke="#F15A24" stroke-width="0.7013" stroke-miterlimit="10" d="M10,20.3c0.2,0,0.3,0,0.5,0
		c0.2,0,0.3,0,0.4,0c1.8,0.1,2.7,0.1,4.2,0.1c2.4,0,4.2-0.1,6.1-0.3c0.2,0,0.3,0,0.5,0c0-0.2,0.1-0.4,0.1-0.6
		c0.3-2.8-0.1-5.6-0.6-8.6c-0.4-2.2-1.4-5.1-3.1-6.8c-0.3-0.4-0.7-0.7-1.1-0.9c0,0-0.4,0-0.4,0c-0.4,0-1.3,0-1.4,0c0,0-0.1,0-0.1,0
		c-0.4,0.3-0.7,0.6-1,1c-1.5,1.6-2.4,3.6-3.1,5.7c-0.9,2.9-1,6.7-1,9.5C10,19.7,10.1,20.1,10,20.3z"/>
	<path fill="#FFFFFF" stroke="#F15A24" stroke-width="0.7013" stroke-miterlimit="10" d="M21.7,20.1c0.3,0,0.4,0,0.6,0
		c1.4-0.1,2.3-0.2,3.8-0.6c1-0.2,1.9-0.5,2.7-0.9c0.4-0.2,0.9-0.5,1.2-0.8c0-0.2,0-0.3-0.1-0.5c-0.4-2.2-1.1-5-2-6.7
		c-1.2-2.4-4-5.7-8.5-7c-0.6-0.2-1.2-0.3-1.8-0.3c-0.1,0-0.2,0-0.3,0c-0.1,0-0.2,0-0.3,0c-0.1,0,0,0-0.2,0c0,0-0.1,0-0.1,0
		c0.4,0.2,0.8,0.5,1.1,0.8c1.9,1.9,3.1,5.7,3.4,7.5c0.4,2.4,0.7,5.6,0.6,7.9C21.7,19.7,21.7,19.9,21.7,20.1z"/>
	<g>
		
			<radialGradient id="SVGID_3_" cx="100.7244" cy="-345.8143" r="0.8407" gradientTransform="matrix(0.8981 -4.570000e-002 6.160000e-002 1.2095 -53.4044 428.9002)" gradientUnits="userSpaceOnUse">
			<stop  offset="0.2" style="stop-color:#F7F7F7"/>
			<stop  offset="1" style="stop-color:#7C7C7C"/>
		</radialGradient>
		<path fill="url(#SVGID_3_)" stroke="#F15A24" stroke-miterlimit="10" d="M16.4,6.2c0,0.2-0.2,0.5-0.5,0.5c-0.3,0-0.6-0.2-0.6-0.4
			c0-0.2,0.2-0.5,0.5-0.5C16.1,5.8,16.4,5.9,16.4,6.2z"/>
		
			<radialGradient id="SVGID_4_" cx="100.7245" cy="-345.8145" r="0.8407" gradientTransform="matrix(0.8981 -4.570000e-002 6.160000e-002 1.2095 -53.4044 428.9003)" gradientUnits="userSpaceOnUse">
			<stop  offset="0" style="stop-color:#C3C3C3"/>
			<stop  offset="1" style="stop-color:#4F4F4F"/>
		</radialGradient>
		<path fill="url(#SVGID_4_)" stroke="#F15A24" stroke-miterlimit="10" d="M16.4,6.2C16.4,6.1,16.4,6.1,16.4,6.2
			C16.4,6.1,16.4,6.1,16.4,6.2C16.4,6.1,16.4,6.1,16.4,6.2C16.4,6.1,16.4,6.1,16.4,6.2c0-0.1,0-0.1,0-0.1c0,0,0,0,0,0c0,0,0,0,0,0
			c0,0,0,0,0,0c0,0,0,0,0,0c0,0,0,0,0,0c0,0,0,0,0,0c0,0,0,0,0,0c0,0,0,0,0,0c0,0,0,0,0,0c0,0,0,0,0,0C16.3,6,16.3,6,16.4,6.2
			c-0.1,0.2-0.3,0.4-0.6,0.5c-0.3,0-0.5-0.2-0.5-0.4c0,0,0,0,0,0c0,0.2,0.3,0.4,0.6,0.4C16.2,6.7,16.4,6.4,16.4,6.2
			C16.4,6.2,16.4,6.2,16.4,6.2z"/>
		
			<radialGradient id="SVGID_5_" cx="100.7249" cy="-345.8143" r="0.8406" gradientTransform="matrix(0.8981 -4.570000e-002 6.160000e-002 1.2095 -53.4048 428.9002)" gradientUnits="userSpaceOnUse">
			<stop  offset="0" style="stop-color:#FFFFFF"/>
			<stop  offset="1" style="stop-color:#E8E8E8"/>
		</radialGradient>
		<path fill="url(#SVGID_5_)" stroke="#F15A24" stroke-miterlimit="10" d="M15.8,5.9c-0.1,0-0.3,0.1-0.3,0.2c0,0.1,0.1,0.2,0.3,0.2
			c0.1,0,0.3-0.1,0.3-0.2C16.1,6,16,5.9,15.8,5.9z"/>
		
			<ellipse transform="matrix(0.9987 -5.068288e-002 5.068288e-002 0.9987 -0.288 0.8112)" fill="#3B3B3B" stroke="#F15A24" stroke-miterlimit="10" cx="15.9" cy="6.1" rx="0.2" ry="0.2"/>
		<path fill="#616161" stroke="#F15A24" stroke-miterlimit="10" d="M16.1,6.1c-0.2,0.1-0.3-0.1-0.4,0c0-0.1,0.1-0.2,0.2-0.2
			C16,5.9,16.1,6,16.1,6.1z"/>
	</g>
	<path fill="#CCCCCC" stroke="#F15A24" stroke-miterlimit="10" d="M11,5.1c-0.2-0.2-0.4-0.2-0.6,0C10.2,5.2,9.9,5.5,10,5.8
		C10,6,10.2,6.1,10.4,6c0.2-0.1,0.4-0.2,0.5-0.4C11,5.5,11,5.3,11,5.1L11,5.1z"/>
	<g>
		
			<radialGradient id="SVGID_6_" cx="-421.739" cy="564.0966" r="0.8407" gradientTransform="matrix(0.674 -0.5953 0.6339 0.7176 -62.9855 -650.47)" gradientUnits="userSpaceOnUse">
			<stop  offset="0.1636" style="stop-color:#F7F7F7"/>
			<stop  offset="1" style="stop-color:#7C7C7C"/>
		</radialGradient>
		<path fill="url(#SVGID_6_)" stroke="#F15A24" stroke-miterlimit="10" d="M10.9,5.1c0.1,0.1,0.1,0.4-0.2,0.6
			c-0.2,0.2-0.5,0.2-0.6,0.1c-0.1-0.1-0.1-0.4,0.2-0.6C10.5,5,10.8,4.9,10.9,5.1z"/>
		
			<radialGradient id="SVGID_7_" cx="-421.739" cy="564.0964" r="0.8407" gradientTransform="matrix(0.674 -0.5953 0.6339 0.7176 -62.9855 -650.47)" gradientUnits="userSpaceOnUse">
			<stop  offset="0" style="stop-color:#CBCBCB"/>
			<stop  offset="1" style="stop-color:#575757"/>
		</radialGradient>
		<path fill="url(#SVGID_7_)" stroke="#F15A24" stroke-miterlimit="10" d="M10.9,5.1C10.9,5.1,10.9,5.1,10.9,5.1
			C10.9,5.1,10.9,5,10.9,5.1C10.9,5,10.9,5,10.9,5.1C10.9,5,10.9,5,10.9,5.1C10.8,5,10.8,5,10.9,5.1C10.8,5,10.8,5,10.8,5
			c0,0,0,0,0,0c0,0,0,0,0,0c0,0,0,0,0,0c0,0,0,0,0,0c0,0,0,0,0,0c0,0,0,0,0,0c0,0,0,0,0,0c0,0,0,0,0,0c0,0,0,0,0,0c0,0,0,0,0,0
			C10.7,5,10.8,5,10.9,5.1c0,0.2,0,0.4-0.2,0.6c-0.2,0.2-0.5,0.2-0.6,0.1c0,0,0,0,0,0c0.1,0.1,0.4,0.1,0.6-0.1
			C11,5.5,11.1,5.2,10.9,5.1z"/>
		
			<radialGradient id="SVGID_8_" cx="-421.7393" cy="564.0967" r="0.8409" gradientTransform="matrix(0.674 -0.5953 0.6339 0.7176 -62.9855 -650.47)" gradientUnits="userSpaceOnUse">
			<stop  offset="0" style="stop-color:#FFFFFF"/>
			<stop  offset="1" style="stop-color:#EBEBEB"/>
		</radialGradient>
		<path fill="url(#SVGID_8_)" stroke="#F15A24" stroke-miterlimit="10" d="M10.3,5.3c-0.1,0.1-0.1,0.2-0.1,0.3c0.1,0.1,0.2,0,0.3,0
			c0.1-0.1,0.1-0.2,0.1-0.3C10.6,5.1,10.4,5.2,10.3,5.3z"/>
		
			<ellipse transform="matrix(0.7494 -0.6621 0.6621 0.7494 -0.9303 8.2562)" fill="#3B3B3B" stroke="#F15A24" stroke-miterlimit="10" cx="10.4" cy="5.4" rx="0.2" ry="0.1"/>
		<path fill="#616161" stroke="#F15A24" stroke-miterlimit="10" d="M10.6,5.2c-0.1,0.2-0.3,0.2-0.3,0.3c-0.1-0.1,0-0.2,0.1-0.3
			C10.4,5.2,10.6,5.1,10.6,5.2z"/>
	</g>
	<path fill="#B0B0B0" stroke="#F15A24" stroke-miterlimit="10" d="M21.1,5.1C21,5.2,21,5.2,21,5.4c0,0.1,0.2,0.6,0.8,0.6
		c0.2,0,0.3-0.2,0.3-0.4C21.9,4.9,21.1,5.1,21.1,5.1z"/>
	<g>
		
			<radialGradient id="SVGID_9_" cx="-3070.3669" cy="-1592.3096" r="0.8406" gradientTransform="matrix(-0.6882 -0.5789 -0.6165 0.7327 -3073.0608 -605.3673)" gradientUnits="userSpaceOnUse">
			<stop  offset="0.1636" style="stop-color:#F7F7F7"/>
			<stop  offset="1" style="stop-color:#7C7C7C"/>
		</radialGradient>
		<path fill="url(#SVGID_9_)" stroke="#F15A24" stroke-miterlimit="10" d="M21,5.1c-0.1,0.1,0,0.4,0.2,0.6c0.2,0.2,0.5,0.2,0.6,0.1
			c0.1-0.1,0-0.4-0.2-0.6C21.5,5,21.2,4.9,21,5.1z"/>
		
			<radialGradient id="SVGID_10_" cx="-3070.3669" cy="-1592.3094" r="0.8405" gradientTransform="matrix(-0.6882 -0.5789 -0.6165 0.7327 -3073.0608 -605.3673)" gradientUnits="userSpaceOnUse">
			<stop  offset="0" style="stop-color:#C7C7C7"/>
			<stop  offset="1" style="stop-color:#535353"/>
		</radialGradient>
		<path fill="url(#SVGID_10_)" stroke="#F15A24" stroke-miterlimit="10" d="M21.3,5.7c-0.2-0.2-0.3-0.4-0.2-0.6
			C21.2,5,21.2,5,21.3,5c0,0,0,0,0,0c0,0,0,0,0,0c0,0,0,0,0,0c0,0,0,0,0,0c0,0,0,0,0,0c0,0,0,0,0,0c0,0,0,0,0,0c0,0,0,0,0,0
			c0,0,0,0,0,0c0,0,0,0,0,0c0,0,0,0,0,0c0,0,0,0,0,0c0,0,0,0,0,0c0,0,0,0,0,0c0,0,0,0,0,0c0,0,0,0,0,0C20.9,5.2,21,5.5,21.3,5.7
			c0.2,0.2,0.5,0.2,0.6,0.1c0,0,0,0,0,0C21.7,5.9,21.5,5.9,21.3,5.7z"/>
		
			<radialGradient id="SVGID_11_" cx="-3070.3667" cy="-1592.3097" r="0.8407" gradientTransform="matrix(-0.6882 -0.5789 -0.6165 0.7327 -3073.0608 -605.3673)" gradientUnits="userSpaceOnUse">
			<stop  offset="0" style="stop-color:#FFFFFF"/>
			<stop  offset="1" style="stop-color:#E8E8E8"/>
		</radialGradient>
		<path fill="url(#SVGID_11_)" stroke="#F15A24" stroke-miterlimit="10" d="M21.6,5.3c0.1,0.1,0.2,0.2,0.1,0.3
			c-0.1,0.1-0.2,0.1-0.3,0c-0.1-0.1-0.2-0.2-0.1-0.3C21.4,5.1,21.5,5.2,21.6,5.3z"/>
		
			<ellipse transform="matrix(-0.7656 -0.6433 0.6433 -0.7656 34.5611 23.3022)" fill="#3B3B3B" stroke="#F15A24" stroke-miterlimit="10" cx="21.5" cy="5.4" rx="0.2" ry="0.1"/>
		<path fill="#616161" stroke="#F15A24" stroke-miterlimit="10" d="M21.4,5.2c0.1,0.2,0.3,0.2,0.3,0.3c0.1-0.1,0-0.2-0.1-0.3
			C21.5,5.2,21.4,5.1,21.4,5.2z"/>
	</g>
</g>
<g>
	<g>
		<path fill="#B3B3B3" d="M2.9,18.9C2.9,19,2.9,19,2.9,18.9l-0.2,0c0,0-0.1,0-0.1-0.1c0,0,0-0.1,0.1,0L2.9,18.9
			C2.9,18.9,2.9,18.9,2.9,18.9z"/>
	</g>
	<g>
		<path fill="#B3B3B3" d="M3.3,19C3.3,19,3.3,19.1,3.3,19l-0.2,0c0,0-0.1,0-0.1-0.1c0,0,0-0.1,0.1,0L3.3,19C3.3,18.9,3.3,19,3.3,19z
			"/>
	</g>
	<g>
		<path fill="#B3B3B3" d="M3.7,19.1C3.7,19.1,3.7,19.1,3.7,19.1l-0.2,0c0,0-0.1,0-0.1-0.1c0,0,0-0.1,0.1,0L3.7,19.1
			C3.7,19,3.7,19,3.7,19.1z"/>
	</g>
	<g>
		<path fill="#B3B3B3" d="M4.1,19.1C4.1,19.1,4.1,19.2,4.1,19.1l-0.2,0c0,0-0.1,0-0.1-0.1c0,0,0-0.1,0.1,0L4.1,19.1
			C4.1,19,4.1,19.1,4.1,19.1z"/>
	</g>
	<g>
		<path fill="#B3B3B3" d="M4.5,19.2C4.5,19.2,4.5,19.2,4.5,19.2l-0.2,0c0,0-0.1,0-0.1-0.1c0,0,0-0.1,0.1,0L4.5,19.2
			C4.5,19.1,4.5,19.1,4.5,19.2z"/>
	</g>
	<g>
		<path fill="#B3B3B3" d="M4.9,19.2C4.9,19.2,4.9,19.3,4.9,19.2l-0.2,0c0,0-0.1,0-0.1-0.1c0,0,0-0.1,0.1,0L4.9,19.2
			C4.9,19.2,4.9,19.2,4.9,19.2z"/>
	</g>
	<g>
		<path fill="#B3B3B3" d="M5.3,19.3C5.3,19.3,5.3,19.3,5.3,19.3l-0.2,0c0,0-0.1,0-0.1-0.1c0,0,0-0.1,0.1,0L5.3,19.3
			C5.3,19.2,5.3,19.2,5.3,19.3z"/>
	</g>
	<g>
		<path fill="#B3B3B3" d="M5.7,19.3C5.7,19.3,5.7,19.4,5.7,19.3l-0.2,0c0,0-0.1,0-0.1-0.1c0,0,0-0.1,0.1,0L5.7,19.3
			C5.7,19.3,5.7,19.3,5.7,19.3z"/>
	</g>
	<g>
		<path fill="#B3B3B3" d="M6.1,19.4C6.1,19.4,6.1,19.4,6.1,19.4l-0.2,0c0,0-0.1,0-0.1-0.1c0,0,0-0.1,0.1,0L6.1,19.4
			C6.1,19.3,6.1,19.3,6.1,19.4z"/>
	</g>
	<g>
		<path fill="#B3B3B3" d="M6.5,19.4C6.5,19.4,6.5,19.5,6.5,19.4l-0.2,0c0,0-0.1,0-0.1-0.1c0,0,0-0.1,0.1,0L6.5,19.4
			C6.5,19.3,6.5,19.4,6.5,19.4z"/>
	</g>
	<g>
		<path fill="#B3B3B3" d="M6.9,19.4C6.9,19.5,6.9,19.5,6.9,19.4l-0.2,0c0,0-0.1,0-0.1-0.1c0,0,0-0.1,0.1-0.1L6.9,19.4
			C6.9,19.4,6.9,19.4,6.9,19.4z"/>
	</g>
	<g>
		<path fill="#B3B3B3" d="M7.3,19.5C7.3,19.5,7.3,19.5,7.3,19.5l-0.2,0c0,0-0.1,0-0.1-0.1c0,0,0-0.1,0.1-0.1L7.3,19.5
			C7.3,19.4,7.3,19.5,7.3,19.5z"/>
	</g>
	<g>
		<path fill="#B3B3B3" d="M7.7,19.5C7.7,19.6,7.7,19.6,7.7,19.5l-0.2,0c0,0-0.1,0-0.1-0.1c0,0,0-0.1,0.1-0.1L7.7,19.5
			C7.7,19.5,7.7,19.5,7.7,19.5z"/>
	</g>
	<g>
		<path fill="#B3B3B3" d="M8.1,19.6C8.1,19.6,8.1,19.6,8.1,19.6l-0.2,0c0,0-0.1,0-0.1-0.1c0,0,0-0.1,0.1-0.1L8.1,19.6
			C8.1,19.5,8.1,19.5,8.1,19.6z"/>
	</g>
	<g>
		<path fill="#B3B3B3" d="M8.5,19.6C8.5,19.6,8.5,19.7,8.5,19.6l-0.2,0c0,0-0.1,0-0.1-0.1c0,0,0-0.1,0.1-0.1L8.5,19.6
			C8.5,19.5,8.5,19.6,8.5,19.6z"/>
	</g>
	<g>
		<path fill="#B3B3B3" d="M8.9,19.6C8.9,19.7,8.9,19.7,8.9,19.6l-0.2,0c0,0-0.1,0-0.1-0.1c0,0,0-0.1,0.1-0.1L8.9,19.6
			C8.9,19.6,8.9,19.6,8.9,19.6z"/>
	</g>
	<g>
		<path fill="#B3B3B3" d="M9.3,19.7C9.3,19.7,9.3,19.7,9.3,19.7l-0.2,0c0,0-0.1,0-0.1-0.1c0,0,0-0.1,0.1-0.1L9.3,19.7
			C9.3,19.6,9.3,19.6,9.3,19.7z"/>
	</g>
	<g>
		<path fill="#B3B3B3" d="M9.7,19.7C9.7,19.7,9.7,19.8,9.7,19.7l-0.2,0c0,0-0.1,0-0.1-0.1c0,0,0-0.1,0.1-0.1L9.7,19.7
			C9.7,19.7,9.7,19.7,9.7,19.7z"/>
	</g>
	<g>
		<path fill="#B3B3B3" d="M10.1,19.7C10.1,19.8,10.1,19.8,10.1,19.7l-0.2,0c0,0-0.1,0-0.1-0.1c0,0,0-0.1,0.1-0.1L10.1,19.7
			C10.1,19.7,10.1,19.7,10.1,19.7z"/>
	</g>
	<g>
		<path fill="#B3B3B3" d="M10.5,19.8C10.5,19.8,10.5,19.8,10.5,19.8l-0.2,0c0,0-0.1,0-0.1-0.1c0,0,0-0.1,0.1-0.1L10.5,19.8
			C10.5,19.7,10.5,19.7,10.5,19.8z"/>
	</g>
	<g>
		<path fill="#B3B3B3" d="M10.9,19.8C10.9,19.8,10.9,19.9,10.9,19.8l-0.2,0c0,0-0.1,0-0.1-0.1c0,0,0-0.1,0.1-0.1L10.9,19.8
			C10.9,19.7,10.9,19.8,10.9,19.8z"/>
	</g>
	<g>
		<path fill="#B3B3B3" d="M11.3,19.8C11.3,19.9,11.3,19.9,11.3,19.8l-0.2,0c0,0-0.1,0-0.1-0.1c0,0,0-0.1,0.1-0.1L11.3,19.8
			C11.3,19.8,11.3,19.8,11.3,19.8z"/>
	</g>
	<g>
		<path fill="#B3B3B3" d="M11.7,19.8C11.7,19.9,11.7,19.9,11.7,19.8l-0.2,0c0,0-0.1,0-0.1-0.1c0,0,0-0.1,0.1-0.1L11.7,19.8
			C11.7,19.8,11.7,19.8,11.7,19.8z"/>
	</g>
	<g>
		<path fill="#B3B3B3" d="M12.1,19.9C12.1,19.9,12.1,19.9,12.1,19.9l-0.2,0c0,0-0.1,0-0.1-0.1c0,0,0-0.1,0.1-0.1L12.1,19.9
			C12.1,19.8,12.1,19.8,12.1,19.9z"/>
	</g>
	<g>
		<path fill="#B3B3B3" d="M12.5,19.9C12.5,19.9,12.5,19.9,12.5,19.9l-0.2,0c0,0-0.1,0-0.1-0.1c0,0,0-0.1,0.1-0.1L12.5,19.9
			C12.5,19.8,12.5,19.9,12.5,19.9z"/>
	</g>
	<g>
		<path fill="#B3B3B3" d="M12.9,19.9C12.9,19.9,12.9,20,12.9,19.9l-0.2,0c0,0-0.1,0-0.1-0.1c0,0,0-0.1,0.1-0.1L12.9,19.9
			C12.9,19.8,12.9,19.9,12.9,19.9z"/>
	</g>
	<g>
		<path fill="#B3B3B3" d="M13.3,19.9C13.3,19.9,13.3,20,13.3,19.9L13.1,20c0,0-0.1,0-0.1-0.1c0,0,0-0.1,0.1-0.1L13.3,19.9
			C13.3,19.9,13.3,19.9,13.3,19.9z"/>
	</g>
	<g>
		<path fill="#B3B3B3" d="M13.7,19.9C13.7,20,13.7,20,13.7,19.9L13.5,20c0,0-0.1,0-0.1-0.1c0,0,0-0.1,0.1-0.1L13.7,19.9
			C13.7,19.9,13.7,19.9,13.7,19.9z"/>
	</g>
	<g>
		<path fill="#B3B3B3" d="M14.1,19.9C14.1,20,14.1,20,14.1,19.9L13.9,20c0,0-0.1,0-0.1-0.1c0,0,0-0.1,0.1-0.1L14.1,19.9
			C14.1,19.9,14.1,19.9,14.1,19.9z"/>
	</g>
	<g>
		<path fill="#B3B3B3" d="M14.5,19.9C14.5,20,14.5,20,14.5,19.9L14.3,20c0,0-0.1,0-0.1-0.1c0,0,0-0.1,0.1-0.1L14.5,19.9
			C14.5,19.9,14.5,19.9,14.5,19.9z"/>
	</g>
	<g>
		<path fill="#B3B3B3" d="M14.9,20C14.9,20,14.9,20,14.9,20L14.7,20c0,0-0.1,0-0.1-0.1c0,0,0-0.1,0.1-0.1L14.9,20
			C14.9,19.9,14.9,19.9,14.9,20z"/>
	</g>
	<g>
		<path fill="#B3B3B3" d="M15.3,20C15.3,20,15.3,20,15.3,20L15.1,20c0,0-0.1,0-0.1-0.1c0,0,0-0.1,0.1-0.1L15.3,20
			C15.3,19.9,15.3,19.9,15.3,20z"/>
	</g>
	<g>
		<path fill="#B3B3B3" d="M15.7,20C15.7,20,15.7,20,15.7,20L15.5,20c0,0-0.1,0-0.1-0.1c0,0,0-0.1,0.1-0.1L15.7,20
			C15.7,19.9,15.7,19.9,15.7,20z"/>
	</g>
	<g>
		<path fill="#B3B3B3" d="M16.1,20C16.1,20,16.1,20,16.1,20L15.9,20c0,0-0.1,0-0.1-0.1c0,0,0-0.1,0.1-0.1L16.1,20
			C16.1,19.9,16.1,19.9,16.1,20z"/>
	</g>
	<g>
		<path fill="#B3B3B3" d="M16.5,19.9C16.5,20,16.5,20,16.5,19.9L16.3,20c0,0-0.1,0-0.1-0.1c0,0,0-0.1,0.1-0.1L16.5,19.9
			C16.5,19.9,16.5,19.9,16.5,19.9z"/>
	</g>
	<g>
		<path fill="#B3B3B3" d="M16.9,19.9C16.9,20,16.9,20,16.9,19.9L16.7,20c0,0-0.1,0-0.1-0.1c0,0,0-0.1,0.1-0.1L16.9,19.9
			C16.9,19.9,16.9,19.9,16.9,19.9z"/>
	</g>
	<g>
		<path fill="#B3B3B3" d="M17.3,19.9C17.3,20,17.3,20,17.3,19.9L17.1,20c0,0-0.1,0-0.1-0.1c0,0,0-0.1,0.1-0.1L17.3,19.9
			C17.3,19.9,17.3,19.9,17.3,19.9z"/>
	</g>
	<g>
		<path fill="#B3B3B3" d="M17.7,19.9C17.7,20,17.7,20,17.7,19.9L17.5,20c0,0-0.1,0-0.1-0.1c0,0,0-0.1,0.1-0.1L17.7,19.9
			C17.7,19.9,17.7,19.9,17.7,19.9z"/>
	</g>
	<g>
		<path fill="#B3B3B3" d="M18.1,19.9C18.1,19.9,18.1,20,18.1,19.9L17.9,20c0,0-0.1,0-0.1-0.1c0,0,0-0.1,0.1-0.1L18.1,19.9
			C18.1,19.8,18.1,19.9,18.1,19.9z"/>
	</g>
	<g>
		<path fill="#B3B3B3" d="M18.5,19.9C18.5,19.9,18.5,19.9,18.5,19.9L18.3,20c0,0-0.1,0-0.1-0.1c0,0,0-0.1,0.1-0.1L18.5,19.9
			C18.5,19.8,18.5,19.9,18.5,19.9z"/>
	</g>
	<g>
		<path fill="#B3B3B3" d="M18.9,19.9C18.9,19.9,18.9,19.9,18.9,19.9l-0.2,0.1c0,0-0.1,0-0.1-0.1c0,0,0-0.1,0.1-0.1L18.9,19.9
			C18.9,19.8,18.9,19.8,18.9,19.9z"/>
	</g>
	<g>
		<path fill="#B3B3B3" d="M19.3,19.8C19.3,19.9,19.3,19.9,19.3,19.8l-0.2,0.1c0,0-0.1,0-0.1-0.1c0,0,0-0.1,0.1-0.1L19.3,19.8
			C19.3,19.8,19.3,19.8,19.3,19.8z"/>
	</g>
	<g>
		<path fill="#B3B3B3" d="M19.7,19.8C19.7,19.8,19.7,19.9,19.7,19.8l-0.2,0.1c0,0-0.1,0-0.1-0.1c0,0,0-0.1,0.1-0.1L19.7,19.8
			C19.7,19.8,19.7,19.8,19.7,19.8z"/>
	</g>
	<g>
		<path fill="#B3B3B3" d="M20.1,19.8C20.1,19.8,20.1,19.8,20.1,19.8l-0.2,0.1c0,0-0.1,0-0.1-0.1c0,0,0-0.1,0.1-0.1L20.1,19.8
			C20.1,19.7,20.1,19.7,20.1,19.8z"/>
	</g>
	<g>
		<path fill="#B3B3B3" d="M20.5,19.7C20.5,19.8,20.5,19.8,20.5,19.7l-0.2,0.1c0,0-0.1,0-0.1-0.1c0,0,0-0.1,0.1-0.1L20.5,19.7
			C20.5,19.7,20.5,19.7,20.5,19.7z"/>
	</g>
	<g>
		<path fill="#B3B3B3" d="M20.9,19.7C20.9,19.7,20.9,19.8,20.9,19.7l-0.2,0.1c0,0-0.1,0-0.1-0.1c0,0,0-0.1,0.1-0.1L20.9,19.7
			C20.9,19.7,20.9,19.7,20.9,19.7z"/>
	</g>
	<g>
		<path fill="#B3B3B3" d="M21.3,19.7C21.3,19.7,21.3,19.7,21.3,19.7l-0.2,0.1c0,0-0.1,0-0.1-0.1c0,0,0-0.1,0.1-0.1L21.3,19.7
			C21.3,19.6,21.3,19.6,21.3,19.7z"/>
	</g>
	<g>
		<path fill="#B3B3B3" d="M21.7,19.6C21.7,19.7,21.7,19.7,21.7,19.6l-0.2,0.1c0,0-0.1,0-0.1-0.1c0,0,0-0.1,0.1-0.1L21.7,19.6
			C21.7,19.6,21.7,19.6,21.7,19.6z"/>
	</g>
	<g>
		<path fill="#B3B3B3" d="M22.1,19.6C22.1,19.6,22.1,19.6,22.1,19.6l-0.2,0.1c0,0-0.1,0-0.1,0c0,0,0-0.1,0.1-0.1L22.1,19.6
			C22.1,19.5,22.1,19.5,22.1,19.6z"/>
	</g>
	<g>
		<path fill="#B3B3B3" d="M22.5,19.5C22.5,19.6,22.5,19.6,22.5,19.5l-0.2,0.1c0,0-0.1,0-0.1,0c0,0,0-0.1,0.1-0.1L22.5,19.5
			C22.5,19.5,22.5,19.5,22.5,19.5z"/>
	</g>
	<g>
		<path fill="#B3B3B3" d="M22.9,19.5C22.9,19.5,22.9,19.5,22.9,19.5l-0.2,0.1c0,0-0.1,0-0.1,0c0,0,0-0.1,0.1-0.1L22.9,19.5
			C22.9,19.4,22.9,19.4,22.9,19.5z"/>
	</g>
	<g>
		<path fill="#B3B3B3" d="M23.3,19.4C23.3,19.4,23.3,19.5,23.3,19.4l-0.2,0.1c0,0-0.1,0-0.1,0c0,0,0-0.1,0.1-0.1L23.3,19.4
			C23.3,19.4,23.3,19.4,23.3,19.4z"/>
	</g>
	<g>
		<path fill="#B3B3B3" d="M23.7,19.3C23.7,19.4,23.7,19.4,23.7,19.3l-0.2,0.1c0,0-0.1,0-0.1,0c0,0,0-0.1,0.1-0.1L23.7,19.3
			C23.7,19.3,23.7,19.3,23.7,19.3z"/>
	</g>
	<g>
		<path fill="#B3B3B3" d="M24.1,19.3C24.1,19.3,24.1,19.3,24.1,19.3l-0.2,0.1c0,0-0.1,0-0.1,0c0,0,0-0.1,0.1-0.1L24.1,19.3
			C24.1,19.2,24.1,19.2,24.1,19.3z"/>
	</g>
	<g>
		<path fill="#B3B3B3" d="M24.5,19.2C24.5,19.2,24.5,19.3,24.5,19.2l-0.2,0.1c0,0-0.1,0-0.1,0c0,0,0-0.1,0.1-0.1L24.5,19.2
			C24.5,19.1,24.5,19.2,24.5,19.2z"/>
	</g>
	<g>
		<path fill="#B3B3B3" d="M24.9,19.1C24.9,19.1,24.9,19.2,24.9,19.1l-0.2,0.1c0,0-0.1,0-0.1,0c0,0,0-0.1,0.1-0.1L24.9,19.1
			C24.9,19.1,24.9,19.1,24.9,19.1z"/>
	</g>
	<g>
		<path fill="#B3B3B3" d="M25.3,19C25.3,19.1,25.3,19.1,25.3,19l-0.2,0.1c0,0-0.1,0-0.1,0c0,0,0-0.1,0-0.1L25.3,19
			C25.3,19,25.3,19,25.3,19z"/>
	</g>
	<g>
		<path fill="#B3B3B3" d="M25.7,18.9C25.7,19,25.7,19,25.7,18.9L25.5,19c0,0-0.1,0-0.1,0c0,0,0-0.1,0-0.1L25.7,18.9
			C25.6,18.9,25.7,18.9,25.7,18.9z"/>
	</g>
	<g>
		<path fill="#B3B3B3" d="M26.1,18.8C26.1,18.9,26.1,18.9,26.1,18.8L25.9,19c0,0-0.1,0-0.1,0c0,0,0-0.1,0-0.1L26.1,18.8
			C26,18.8,26.1,18.8,26.1,18.8z"/>
	</g>
	<g>
		<path fill="#B3B3B3" d="M26.5,18.7C26.5,18.8,26.4,18.8,26.5,18.7l-0.2,0.1c0,0-0.1,0-0.1,0c0,0,0-0.1,0-0.1L26.5,18.7
			C26.4,18.7,26.5,18.7,26.5,18.7z"/>
	</g>
	<g>
		<path fill="#B3B3B3" d="M26.9,18.6C26.9,18.7,26.8,18.7,26.9,18.6l-0.2,0.1c0,0-0.1,0-0.1,0c0,0,0-0.1,0-0.1L26.9,18.6
			C26.8,18.6,26.8,18.6,26.9,18.6z"/>
	</g>
	<g>
		<path fill="#B3B3B3" d="M27.2,18.5C27.2,18.6,27.2,18.6,27.2,18.5l-0.2,0.1c0,0-0.1,0-0.1,0c0,0,0-0.1,0-0.1L27.2,18.5
			C27.2,18.5,27.2,18.5,27.2,18.5z"/>
	</g>
	<g>
		<path fill="#B3B3B3" d="M27.6,18.4C27.6,18.4,27.6,18.5,27.6,18.4l-0.2,0.1c0,0-0.1,0-0.1,0c0,0,0-0.1,0-0.1L27.6,18.4
			C27.6,18.4,27.6,18.4,27.6,18.4z"/>
	</g>
	<g>
		<path fill="#B3B3B3" d="M28,18.3C28,18.3,28,18.4,28,18.3l-0.2,0.1c0,0-0.1,0-0.1,0c0,0,0-0.1,0-0.1L28,18.3
			C28,18.2,28,18.3,28,18.3z"/>
	</g>
	<g>
		<path fill="#B3B3B3" d="M28.4,18.1C28.4,18.2,28.4,18.2,28.4,18.1c-0.1,0.1-0.1,0.1-0.2,0.1c0,0-0.1,0-0.1,0c0,0,0-0.1,0-0.1
			C28.2,18.1,28.2,18.1,28.4,18.1C28.3,18.1,28.4,18.1,28.4,18.1z"/>
	</g>
	<g>
		<path fill="#B3B3B3" d="M28.7,18C28.7,18,28.7,18,28.7,18c-0.1,0.1-0.1,0.1-0.2,0.1c0,0-0.1,0-0.1,0c0,0,0-0.1,0-0.1
			C28.6,18,28.6,18,28.7,18C28.7,17.9,28.7,17.9,28.7,18z"/>
	</g>
	<g>
		<path fill="#B3B3B3" d="M29.1,17.8C29.1,17.8,29.1,17.8,29.1,17.8c-0.1,0.1-0.1,0.1-0.1,0.2c0,0-0.1,0-0.1,0c0,0,0-0.1,0-0.1
			C28.9,17.8,29,17.8,29.1,17.8C29,17.7,29.1,17.7,29.1,17.8z"/>
	</g>
	<g>
		<path fill="#B3B3B3" d="M29.4,17.5C29.4,17.6,29.4,17.6,29.4,17.5c-0.1,0.1-0.1,0.1-0.1,0.2c0,0-0.1,0-0.1,0c0,0,0-0.1,0-0.1
			C29.3,17.6,29.3,17.6,29.4,17.5C29.4,17.5,29.4,17.5,29.4,17.5z"/>
	</g>
	<g>
		<path fill="#B3B3B3" d="M29.7,17.3C29.7,17.3,29.7,17.3,29.7,17.3c0,0.1-0.1,0.2-0.1,0.2c0,0-0.1,0-0.1,0c0,0,0-0.1,0-0.1
			C29.6,17.3,29.6,17.3,29.7,17.3C29.7,17.3,29.7,17.3,29.7,17.3z"/>
	</g>
</g>
<g>
	<path stroke="#F15A24" stroke-miterlimit="10" d="M7.2,18.3c0,0.5-0.1,0.9-0.4,0.9c-0.3,0-0.4-0.4-0.4-1l0-1c0-0.5,0.1-0.8,0.4-0.8
		c0.3,0,0.4,0.3,0.4,0.8L7.2,18.3z"/>
	<g>
		<path fill="#666666" stroke="#F15A24" stroke-miterlimit="10" d="M6.4,19.2c0,0,0.1,0.1,0.2,0.1c0.1,0,0.2,0,0.2,0
			c0-0.1,0-0.2,0-0.3c0,0,0,0-0.1,0c-0.1,0-0.2-0.1-0.2-0.3c0,0,0-0.1,0-0.1c0-0.3,0-0.6,0-0.9c0-0.2,0-0.5,0-0.7c0-0.1,0-0.2,0-0.3
			c0-0.2,0.1-0.3,0.3-0.3c0,0,0-0.1,0-0.1c0-0.1,0-0.1,0-0.2c-0.1,0-0.1,0-0.2,0c-0.1,0-0.1,0.1-0.2,0.1c0,0-0.1,0.1-0.1,0.1
			c-0.1,0.1-0.1,0.2-0.1,0.3c0,0.1,0,0.3,0,0.4c0,0.2,0,0.4,0,0.6c0,0.3,0,0.5,0,0.8c0,0.1,0,0.2,0,0.3c0,0.1,0,0.1,0,0.2
			C6.3,19.1,6.4,19.1,6.4,19.2z"/>
		<path fill="#666666" stroke="#F15A24" stroke-miterlimit="10" d="M6.8,19.4C6.8,19.4,6.9,19.4,6.8,19.4c0.1,0,0.2,0,0.2,0
			c0,0,0.1,0,0.1,0c0,0,0,0,0.1-0.1c0.1-0.1,0.1-0.1,0.1-0.2c0-0.1,0-0.1,0-0.2c0-0.3,0-0.7,0-1c0-0.3,0-0.5,0-0.8
			c0-0.1,0-0.2,0-0.3c0-0.1,0-0.2-0.1-0.3c0,0-0.1-0.1-0.1-0.1c0,0,0,0-0.1-0.1c0,0-0.1,0-0.1,0c0,0-0.1,0-0.1,0c0,0-0.1,0-0.1,0
			c0,0.1,0,0.1,0,0.2c0,0,0,0.1,0,0.1c0.1,0,0.3,0.1,0.3,0.3c0,0,0,0.1,0,0.1c0,0.3,0,0.6,0,0.9c0,0.3,0,0.7,0,1
			c0,0.2-0.1,0.3-0.3,0.3C6.8,19.2,6.8,19.3,6.8,19.4z"/>
	</g>
	<g>
		<g>
			<path fill="#FFFFFF" stroke="#F15A24" stroke-width="0.7013" stroke-miterlimit="10" d="M1.9,18.4c0.1,0.1,0.5,0.3,1,0.4
				c0.2,0,0.4,0.1,0.6,0.1c0.3,0,0.7,0.1,1,0.1c0.2,0,0.3,0,0.5,0c0.5,0,1,0,1.5-0.1c0.1,0,0.3,0,0.4,0c0,0,0-0.1,0-0.2
				c0-0.2,0-0.4,0-0.6c0-0.4,0-0.8,0-1.1c0-0.1,0-0.1,0-0.2c0-0.1,0-0.2-0.1-0.2c0-0.1-0.1-0.1-0.2-0.1c-0.1,0-0.2,0-0.3,0
				c-0.3,0-0.9,0-1.4,0.1c-0.2,0-0.2,0-0.5,0c-0.4,0-0.9,0-1.2-0.1c-0.2,0-0.4-0.1-0.6-0.1c-0.5-0.2-0.7-0.5-0.1-0.8
				c-0.1,0-0.2,0-0.2,0c-0.1,0-0.2,0.1-0.2,0.1c-0.1,0-0.1,0.1-0.2,0.2c-0.2,0.3-0.2,0.9-0.2,1.4c0,0.3,0,0.6,0,0.8
				C1.8,18.2,1.8,18.4,1.9,18.4z"/>
		</g>
		<g>
			<g>
				<path fill="#F2F2F2" stroke="#F15A24" stroke-miterlimit="10" d="M4.6,18.9c0-0.1,0-0.1,0-0.2c0-0.4,0-0.8,0-1.2
					c0-0.1,0-0.2,0-0.3c0-0.1,0-0.3,0.1-0.4c0-0.1,0-0.1,0-0.1c0,0,0,0,0.1,0c-0.1,0-0.1,0-0.1,0c0,0,0,0.1,0,0.1
					c0,0.2-0.1,0.3-0.1,0.4c0,0.1,0,0.2,0,0.3c0,0.4-0.1,0.9,0,1.2C4.5,18.8,4.5,18.8,4.6,18.9c0,0.1,0,0.2,0.1,0.2c0,0,0,0,0,0
					C4.6,19,4.6,19,4.6,18.9z"/>
			</g>
			<g>
				<g>
					<path fill="#FFFFFF" stroke="#F15A24" stroke-width="0.7013" stroke-miterlimit="10" d="M2.7,18.8c0.1,0.3,1.8,0.4,2,0.3
						c-0.1,0-0.1-0.1-0.1-0.2c0-0.1,0-0.1,0-0.2c0-0.4,0-0.8,0-1.2c0-0.1,0-0.2,0-0.3c0-0.1,0-0.3,0.1-0.4c0-0.1,0-0.1,0-0.1
						c0,0,0.1,0,0.1,0c-0.2-0.2-1.9-0.3-1.9-0.2c0,0-0.1,0.1-0.1,0.1c-0.1,0.1-0.1,0.3-0.1,0.5c0,0.1,0,0.2,0,0.3c0,0.4,0,0.9,0,1.2
						c0,0,0,0.1,0,0.2C2.6,18.7,2.6,18.8,2.7,18.8z"/>
				</g>
			</g>
		</g>
	</g>
</g>
<g>
	<g>
		<g>
			<path fill="#B3B3B3" d="M9.6,19.3C9.7,19.3,9.7,19.3,9.6,19.3l0.1,0.2c0,0,0,0.1-0.1,0.1c0,0-0.1,0-0.1-0.1L9.6,19.3
				C9.6,19.3,9.6,19.3,9.6,19.3z"/>
		</g>
		<g>
			<path fill="#B3B3B3" d="M9.6,18.9C9.7,18.9,9.7,18.9,9.6,18.9l0.1,0.2c0,0,0,0.1-0.1,0.1c0,0-0.1,0-0.1-0.1L9.6,18.9
				C9.6,18.9,9.6,18.9,9.6,18.9z"/>
		</g>
		<g>
			<path fill="#B3B3B3" d="M9.6,18.5C9.7,18.5,9.7,18.5,9.6,18.5l0.1,0.2c0,0,0,0.1-0.1,0.1c0,0-0.1,0-0.1-0.1L9.6,18.5
				C9.6,18.5,9.6,18.5,9.6,18.5z"/>
		</g>
		<g>
			<path fill="#B3B3B3" d="M9.6,18.1C9.7,18.1,9.7,18.1,9.6,18.1l0.1,0.2c0,0,0,0.1-0.1,0.1c0,0-0.1,0-0.1-0.1L9.6,18.1
				C9.6,18.1,9.6,18.1,9.6,18.1z"/>
		</g>
		<g>
			<path fill="#B3B3B3" d="M9.6,17.7C9.7,17.7,9.7,17.7,9.6,17.7l0.1,0.2c0,0,0,0.1-0.1,0.1c0,0-0.1,0-0.1-0.1L9.6,17.7
				C9.6,17.7,9.6,17.7,9.6,17.7z"/>
		</g>
		<g>
			<path fill="#B3B3B3" d="M9.6,17.3C9.7,17.3,9.7,17.3,9.6,17.3l0.1,0.2c0,0,0,0.1-0.1,0.1c0,0-0.1,0-0.1-0.1L9.6,17.3
				C9.6,17.3,9.6,17.3,9.6,17.3z"/>
		</g>
		<g>
			<path fill="#B3B3B3" d="M9.7,16.9C9.7,16.9,9.7,16.9,9.7,16.9l0.1,0.2c0,0,0,0.1-0.1,0.1c0,0-0.1,0-0.1-0.1L9.7,16.9
				C9.6,16.9,9.6,16.9,9.7,16.9z"/>
		</g>
		<g>
			<path fill="#B3B3B3" d="M9.7,16.5C9.7,16.5,9.7,16.5,9.7,16.5l0.1,0.2c0,0,0,0.1-0.1,0.1c0,0-0.1,0-0.1-0.1L9.7,16.5
				C9.6,16.5,9.6,16.5,9.7,16.5z"/>
		</g>
		<g>
			<path fill="#B3B3B3" d="M9.7,16.1C9.7,16.1,9.7,16.1,9.7,16.1l0,0.2c0,0,0,0.1-0.1,0.1c0,0-0.1,0-0.1-0.1L9.7,16.1
				C9.6,16.1,9.6,16.1,9.7,16.1z"/>
		</g>
		<g>
			<path fill="#B3B3B3" d="M9.7,15.7C9.7,15.7,9.8,15.7,9.7,15.7l0,0.2c0,0,0,0.1-0.1,0.1c0,0-0.1,0-0.1-0.1L9.7,15.7
				C9.6,15.7,9.7,15.7,9.7,15.7z"/>
		</g>
		<g>
			<path fill="#B3B3B3" d="M9.7,15.3C9.8,15.3,9.8,15.3,9.7,15.3l0,0.2c0,0,0,0.1-0.1,0.1c0,0-0.1,0-0.1-0.1L9.7,15.3
				C9.7,15.3,9.7,15.3,9.7,15.3z"/>
		</g>
		<g>
			<path fill="#B3B3B3" d="M9.8,14.9C9.8,14.9,9.8,14.9,9.8,14.9l0,0.2c0,0,0,0.1-0.1,0.1c0,0-0.1,0-0.1-0.1L9.8,14.9
				C9.7,14.9,9.7,14.9,9.8,14.9z"/>
		</g>
		<g>
			<path fill="#B3B3B3" d="M9.8,14.5C9.8,14.5,9.8,14.5,9.8,14.5l0,0.2c0,0,0,0.1-0.1,0.1c0,0-0.1,0-0.1-0.1L9.8,14.5
				C9.7,14.5,9.8,14.5,9.8,14.5z"/>
		</g>
		<g>
			<path fill="#B3B3B3" d="M9.8,14.1C9.9,14.1,9.9,14.1,9.8,14.1l0,0.2c0,0,0,0.1-0.1,0.1c0,0-0.1,0-0.1-0.1L9.8,14.1
				C9.8,14.1,9.8,14.1,9.8,14.1z"/>
		</g>
		<g>
			<path fill="#B3B3B3" d="M9.9,13.7C9.9,13.7,9.9,13.7,9.9,13.7l0,0.2c0,0,0,0.1-0.1,0.1c0,0-0.1,0,0-0.1L9.9,13.7
				C9.8,13.7,9.8,13.7,9.9,13.7z"/>
		</g>
		<g>
			<path fill="#B3B3B3" d="M9.9,13.3C10,13.3,10,13.3,9.9,13.3l0,0.2c0,0,0,0.1-0.1,0.1c0,0-0.1,0,0-0.1L9.9,13.3
				C9.9,13.3,9.9,13.3,9.9,13.3z"/>
		</g>
		<g>
			<path fill="#B3B3B3" d="M10,12.9C10,12.9,10,12.9,10,12.9l0,0.2c0,0,0,0.1-0.1,0.1c0,0-0.1,0,0-0.1L10,12.9
				C9.9,12.9,10,12.9,10,12.9z"/>
		</g>
		<g>
			<path fill="#B3B3B3" d="M10.1,12.5C10.1,12.5,10.1,12.5,10.1,12.5l0,0.2c0,0,0,0.1-0.1,0.1c0,0-0.1,0,0-0.1L10.1,12.5
				C10,12.5,10,12.5,10.1,12.5z"/>
		</g>
		<g>
			<path fill="#B3B3B3" d="M10.1,12.1C10.2,12.1,10.2,12.1,10.1,12.1l0,0.2c0,0,0,0.1-0.1,0.1c0,0-0.1,0,0-0.1L10.1,12.1
				C10.1,12.1,10.1,12.1,10.1,12.1z"/>
		</g>
		<g>
			<path fill="#B3B3B3" d="M10.2,11.7C10.2,11.7,10.2,11.7,10.2,11.7l0,0.2c0,0,0,0.1-0.1,0.1c0,0-0.1,0,0-0.1L10.2,11.7
				C10.1,11.7,10.2,11.7,10.2,11.7z"/>
		</g>
		<g>
			<path fill="#B3B3B3" d="M10.3,11.3C10.3,11.3,10.3,11.3,10.3,11.3l0,0.2c0,0,0,0.1-0.1,0.1c0,0-0.1,0,0-0.1L10.3,11.3
				C10.2,11.3,10.3,11.3,10.3,11.3z"/>
		</g>
		<g>
			<path fill="#B3B3B3" d="M10.4,10.9C10.4,10.9,10.4,11,10.4,10.9l0,0.2c0,0,0,0.1-0.1,0c0,0,0,0,0-0.1L10.4,10.9
				C10.3,10.9,10.3,10.9,10.4,10.9z"/>
		</g>
		<g>
			<path fill="#B3B3B3" d="M10.5,10.5C10.5,10.5,10.5,10.6,10.5,10.5l0,0.2c0,0,0,0.1-0.1,0c0,0,0,0,0-0.1L10.5,10.5
				C10.4,10.5,10.4,10.5,10.5,10.5z"/>
		</g>
		<g>
			<path fill="#B3B3B3" d="M10.6,10.1C10.6,10.1,10.6,10.2,10.6,10.1v0.2c0,0,0,0.1-0.1,0c0,0,0,0,0-0.1L10.6,10.1
				C10.5,10.1,10.5,10.1,10.6,10.1z"/>
		</g>
		<g>
			<path fill="#B3B3B3" d="M10.7,9.8C10.7,9.8,10.7,9.8,10.7,9.8l0,0.2c0,0,0,0.1-0.1,0c0,0,0,0,0-0.1L10.7,9.8
				C10.6,9.8,10.7,9.7,10.7,9.8z"/>
		</g>
		<g>
			<path fill="#B3B3B3" d="M10.8,9.4C10.9,9.4,10.9,9.4,10.8,9.4l0,0.2c0,0,0,0.1-0.1,0c0,0,0,0,0-0.1L10.8,9.4
				C10.8,9.4,10.8,9.4,10.8,9.4z"/>
		</g>
		<g>
			<path fill="#B3B3B3" d="M11,9C11,9,11,9,11,9l0,0.2c0,0,0,0.1-0.1,0c0,0,0,0,0-0.1L11,9C10.9,9,10.9,9,11,9z"/>
		</g>
		<g>
			<path fill="#B3B3B3" d="M11.1,8.6C11.1,8.6,11.1,8.7,11.1,8.6l0,0.2c0,0,0,0.1-0.1,0c0,0,0,0,0-0.1L11.1,8.6
				C11,8.6,11.1,8.6,11.1,8.6z"/>
		</g>
		<g>
			<path fill="#B3B3B3" d="M11.2,8.2C11.3,8.3,11.3,8.3,11.2,8.2l0,0.2c0,0,0,0-0.1,0c0,0,0,0,0-0.1L11.2,8.2
				C11.2,8.2,11.2,8.2,11.2,8.2z"/>
		</g>
		<g>
			<path fill="#B3B3B3" d="M11.4,7.9C11.4,7.9,11.5,7.9,11.4,7.9l0,0.2c0,0,0,0-0.1,0c0,0,0,0,0-0.1L11.4,7.9
				C11.3,7.9,11.4,7.9,11.4,7.9z"/>
		</g>
		<g>
			<path fill="#B3B3B3" d="M11.6,7.5C11.6,7.5,11.6,7.6,11.6,7.5l0,0.2c0,0-0.1,0-0.1,0c0,0,0-0.1,0-0.1L11.6,7.5
				C11.5,7.5,11.6,7.5,11.6,7.5z"/>
		</g>
		<g>
			<path fill="#B3B3B3" d="M11.8,7.2C11.8,7.2,11.8,7.2,11.8,7.2l0,0.2c0,0-0.1,0-0.1,0c0,0,0-0.1,0-0.1L11.8,7.2
				C11.7,7.2,11.7,7.1,11.8,7.2z"/>
		</g>
		<g>
			<path fill="#B3B3B3" d="M12,6.8C12,6.8,12,6.9,12,6.8l0,0.2c0,0-0.1,0-0.1,0c0,0,0-0.1,0-0.1L12,6.8C11.9,6.8,11.9,6.8,12,6.8z"
				/>
		</g>
		<g>
			<path fill="#B3B3B3" d="M12.2,6.5C12.2,6.5,12.2,6.5,12.2,6.5l-0.1,0.2c0,0-0.1,0-0.1,0c0,0,0-0.1,0-0.1L12.2,6.5
				C12.1,6.4,12.1,6.4,12.2,6.5z"/>
		</g>
		<g>
			<path fill="#B3B3B3" d="M12.4,6.1C12.4,6.1,12.4,6.2,12.4,6.1l-0.1,0.2c0,0-0.1,0-0.1,0c0,0,0-0.1,0-0.1L12.4,6.1
				C12.3,6.1,12.3,6.1,12.4,6.1z"/>
		</g>
		<g>
			<path fill="#B3B3B3" d="M12.6,5.8C12.6,5.8,12.6,5.8,12.6,5.8L12.5,6c0,0-0.1,0-0.1,0c0,0,0-0.1,0-0.1L12.6,5.8
				C12.5,5.8,12.6,5.8,12.6,5.8z"/>
		</g>
		<g>
			<path fill="#B3B3B3" d="M12.8,5.5C12.9,5.5,12.9,5.5,12.8,5.5l-0.1,0.2c0,0-0.1,0-0.1,0c0,0,0-0.1,0-0.1L12.8,5.5
				C12.8,5.4,12.8,5.4,12.8,5.5z"/>
		</g>
		<g>
			<path fill="#B3B3B3" d="M13.1,5.1C13.1,5.2,13.1,5.2,13.1,5.1L13,5.3c0,0-0.1,0-0.1,0c0,0,0-0.1,0-0.1L13.1,5.1
				C13,5.1,13,5.1,13.1,5.1z"/>
		</g>
		<g>
			<path fill="#B3B3B3" d="M13.3,4.8C13.4,4.8,13.4,4.9,13.3,4.8L13.2,5c0,0-0.1,0-0.1,0c0,0,0-0.1,0-0.1L13.3,4.8
				C13.3,4.8,13.3,4.8,13.3,4.8z"/>
		</g>
		<g>
			<path fill="#B3B3B3" d="M13.6,4.5C13.6,4.5,13.6,4.6,13.6,4.5l-0.1,0.2c0,0-0.1,0-0.1,0c0,0,0-0.1,0-0.1L13.6,4.5
				C13.5,4.5,13.6,4.5,13.6,4.5z"/>
		</g>
		<g>
			<path fill="#B3B3B3" d="M13.9,4.2C13.9,4.3,13.9,4.3,13.9,4.2l-0.1,0.2c0,0-0.1,0-0.1,0c0,0,0-0.1,0-0.1L13.9,4.2
				C13.8,4.2,13.8,4.2,13.9,4.2z"/>
		</g>
		<g>
			<path fill="#B3B3B3" d="M14.2,3.9C14.2,4,14.2,4,14.2,3.9l-0.1,0.2c0,0-0.1,0-0.1,0c0,0,0-0.1,0-0.1L14.2,3.9
				C14.1,3.9,14.1,3.9,14.2,3.9z"/>
		</g>
		<g>
			<path fill="#B3B3B3" d="M14.5,3.7C14.5,3.7,14.5,3.7,14.5,3.7l-0.1,0.2c0,0-0.1,0-0.1,0c0,0,0-0.1,0-0.1L14.5,3.7
				C14.4,3.7,14.4,3.7,14.5,3.7z"/>
		</g>
		<g>
			<path fill="#B3B3B3" d="M14.8,3.4C14.8,3.4,14.8,3.5,14.8,3.4l-0.1,0.2c0,0-0.1,0-0.1,0c0,0,0-0.1,0-0.1L14.8,3.4
				C14.7,3.4,14.7,3.4,14.8,3.4z"/>
		</g>
	</g>
	<g>
		<g>
			<path fill="#B3B3B3" d="M10.6,19.3C10.6,19.3,10.6,19.3,10.6,19.3l0.1,0.2c0,0,0,0.1-0.1,0.1c0,0-0.1,0-0.1-0.1L10.6,19.3
				C10.5,19.3,10.5,19.3,10.6,19.3z"/>
		</g>
		<g>
			<path fill="#B3B3B3" d="M10.6,18.9C10.6,18.9,10.6,18.9,10.6,18.9l0.1,0.2c0,0,0,0.1-0.1,0.1c0,0-0.1,0-0.1-0.1L10.6,18.9
				C10.5,18.9,10.6,18.9,10.6,18.9z"/>
		</g>
		<g>
			<path fill="#B3B3B3" d="M10.6,18.5C10.6,18.5,10.6,18.5,10.6,18.5l0.1,0.2c0,0,0,0.1-0.1,0.1c0,0-0.1,0-0.1-0.1L10.6,18.5
				C10.5,18.5,10.6,18.5,10.6,18.5z"/>
		</g>
		<g>
			<path fill="#B3B3B3" d="M10.6,18.1C10.6,18.1,10.7,18.1,10.6,18.1l0.1,0.2c0,0,0,0.1-0.1,0.1c0,0-0.1,0-0.1-0.1L10.6,18.1
				C10.5,18.1,10.6,18.1,10.6,18.1z"/>
		</g>
		<g>
			<path fill="#B3B3B3" d="M10.6,17.7C10.6,17.7,10.7,17.7,10.6,17.7l0.1,0.2c0,0,0,0.1-0.1,0.1c0,0-0.1,0-0.1-0.1L10.6,17.7
				C10.5,17.7,10.6,17.7,10.6,17.7z"/>
		</g>
		<g>
			<path fill="#B3B3B3" d="M10.6,17.3C10.6,17.3,10.7,17.3,10.6,17.3l0.1,0.2c0,0,0,0.1-0.1,0.1c0,0-0.1,0-0.1-0.1L10.6,17.3
				C10.5,17.3,10.6,17.3,10.6,17.3z"/>
		</g>
		<g>
			<path fill="#B3B3B3" d="M10.6,16.9C10.6,16.9,10.7,17,10.6,16.9l0.1,0.2c0,0,0,0.1-0.1,0.1c0,0-0.1,0-0.1-0.1L10.6,16.9
				C10.6,16.9,10.6,16.9,10.6,16.9z"/>
		</g>
		<g>
			<path fill="#B3B3B3" d="M10.6,16.5C10.7,16.5,10.7,16.6,10.6,16.5l0.1,0.2c0,0,0,0.1-0.1,0.1c0,0-0.1,0-0.1-0.1L10.6,16.5
				C10.6,16.6,10.6,16.5,10.6,16.5z"/>
		</g>
		<g>
			<path fill="#B3B3B3" d="M10.6,16.1C10.7,16.1,10.7,16.2,10.6,16.1l0,0.2c0,0,0,0.1-0.1,0.1c0,0-0.1,0-0.1-0.1L10.6,16.1
				C10.6,16.2,10.6,16.1,10.6,16.1z"/>
		</g>
		<g>
			<path fill="#B3B3B3" d="M10.7,15.7C10.7,15.7,10.7,15.8,10.7,15.7l0,0.2c0,0,0,0.1-0.1,0.1c0,0-0.1,0-0.1-0.1L10.7,15.7
				C10.6,15.8,10.6,15.7,10.7,15.7z"/>
		</g>
		<g>
			<path fill="#B3B3B3" d="M10.7,15.3C10.7,15.3,10.7,15.4,10.7,15.3l0,0.2c0,0,0,0.1-0.1,0.1c0,0-0.1,0-0.1-0.1L10.7,15.3
				C10.6,15.4,10.7,15.3,10.7,15.3z"/>
		</g>
		<g>
			<path fill="#B3B3B3" d="M10.7,14.9C10.7,14.9,10.8,15,10.7,14.9l0,0.2c0,0,0,0.1-0.1,0.1c0,0-0.1,0-0.1-0.1L10.7,14.9
				C10.7,15,10.7,14.9,10.7,14.9z"/>
		</g>
		<g>
			<path fill="#B3B3B3" d="M10.7,14.5C10.8,14.5,10.8,14.6,10.7,14.5l0,0.2c0,0,0,0.1-0.1,0.1c0,0-0.1,0-0.1-0.1L10.7,14.5
				C10.7,14.6,10.7,14.5,10.7,14.5z"/>
		</g>
		<g>
			<path fill="#B3B3B3" d="M10.8,14.1C10.8,14.2,10.8,14.2,10.8,14.1l0,0.2c0,0,0,0.1-0.1,0.1c0,0-0.1,0-0.1-0.1L10.8,14.1
				C10.7,14.2,10.8,14.1,10.8,14.1z"/>
		</g>
		<g>
			<path fill="#B3B3B3" d="M10.8,13.8C10.9,13.8,10.9,13.8,10.8,13.8l0,0.2c0,0,0,0.1-0.1,0.1c0,0-0.1,0-0.1-0.1L10.8,13.8
				C10.8,13.8,10.8,13.8,10.8,13.8z"/>
		</g>
		<g>
			<path fill="#B3B3B3" d="M10.9,13.4C10.9,13.4,10.9,13.4,10.9,13.4l0,0.2c0,0,0,0.1-0.1,0.1c0,0-0.1,0,0-0.1L10.9,13.4
				C10.8,13.4,10.8,13.4,10.9,13.4z"/>
		</g>
		<g>
			<path fill="#B3B3B3" d="M10.9,13C11,13,11,13,10.9,13l0,0.2c0,0,0,0.1-0.1,0.1c0,0-0.1,0,0-0.1L10.9,13C10.9,13,10.9,13,10.9,13z
				"/>
		</g>
		<g>
			<path fill="#B3B3B3" d="M11,12.6C11,12.6,11,12.6,11,12.6l0,0.2c0,0,0,0.1-0.1,0.1c0,0-0.1,0,0-0.1L11,12.6
				C10.9,12.6,11,12.6,11,12.6z"/>
		</g>
		<g>
			<path fill="#B3B3B3" d="M11.1,12.2C11.1,12.2,11.1,12.2,11.1,12.2l0,0.2c0,0,0,0.1-0.1,0.1c0,0-0.1,0,0-0.1L11.1,12.2
				C11,12.2,11,12.2,11.1,12.2z"/>
		</g>
		<g>
			<path fill="#B3B3B3" d="M11.1,11.8C11.2,11.8,11.2,11.8,11.1,11.8l0,0.2c0,0,0,0.1-0.1,0.1c0,0-0.1,0,0-0.1L11.1,11.8
				C11.1,11.8,11.1,11.8,11.1,11.8z"/>
		</g>
		<g>
			<path fill="#B3B3B3" d="M11.2,11.4C11.2,11.4,11.3,11.4,11.2,11.4l0,0.2c0,0,0,0.1-0.1,0.1c0,0-0.1,0,0-0.1L11.2,11.4
				C11.1,11.4,11.2,11.4,11.2,11.4z"/>
		</g>
		<g>
			<path fill="#B3B3B3" d="M11.3,11C11.3,11,11.3,11.1,11.3,11l0,0.2c0,0,0,0.1-0.1,0c0,0-0.1,0,0-0.1L11.3,11
				C11.2,11,11.3,11,11.3,11z"/>
		</g>
		<g>
			<path fill="#B3B3B3" d="M11.4,10.6C11.4,10.6,11.4,10.7,11.4,10.6l0,0.2c0,0,0,0.1-0.1,0c0,0,0,0,0-0.1L11.4,10.6
				C11.3,10.6,11.4,10.6,11.4,10.6z"/>
		</g>
		<g>
			<path fill="#B3B3B3" d="M11.5,10.3C11.5,10.3,11.5,10.3,11.5,10.3l0,0.2c0,0,0,0.1-0.1,0c0,0,0,0,0-0.1L11.5,10.3
				C11.4,10.3,11.5,10.2,11.5,10.3z"/>
		</g>
		<g>
			<path fill="#B3B3B3" d="M11.6,9.9C11.6,9.9,11.7,9.9,11.6,9.9l0,0.2c0,0,0,0.1-0.1,0c0,0,0,0,0-0.1L11.6,9.9
				C11.5,9.9,11.6,9.9,11.6,9.9z"/>
		</g>
		<g>
			<path fill="#B3B3B3" d="M11.7,9.5C11.8,9.5,11.8,9.5,11.7,9.5l0,0.2c0,0,0,0.1-0.1,0c0,0,0,0,0-0.1L11.7,9.5
				C11.7,9.5,11.7,9.5,11.7,9.5z"/>
		</g>
		<g>
			<path fill="#B3B3B3" d="M11.8,9.1C11.9,9.1,11.9,9.2,11.8,9.1l0,0.2c0,0,0,0.1-0.1,0c0,0,0,0,0-0.1L11.8,9.1
				C11.8,9.1,11.8,9.1,11.8,9.1z"/>
		</g>
		<g>
			<path fill="#B3B3B3" d="M12,8.7C12,8.8,12,8.8,12,8.7l0,0.2c0,0,0,0-0.1,0c0,0,0,0,0-0.1L12,8.7C11.9,8.7,12,8.7,12,8.7z"/>
		</g>
		<g>
			<path fill="#B3B3B3" d="M12.1,8.4C12.2,8.4,12.2,8.4,12.1,8.4l0,0.2c0,0,0,0-0.1,0c0,0,0,0,0-0.1L12.1,8.4
				C12.1,8.4,12.1,8.4,12.1,8.4z"/>
		</g>
		<g>
			<path fill="#B3B3B3" d="M12.3,8C12.3,8,12.3,8.1,12.3,8l0,0.2c0,0,0,0-0.1,0c0,0,0,0,0-0.1L12.3,8C12.2,8,12.3,8,12.3,8z"/>
		</g>
		<g>
			<path fill="#B3B3B3" d="M12.4,7.6C12.5,7.7,12.5,7.7,12.4,7.6l0,0.2c0,0,0,0-0.1,0c0,0,0,0,0-0.1L12.4,7.6
				C12.4,7.6,12.4,7.6,12.4,7.6z"/>
		</g>
		<g>
			<path fill="#B3B3B3" d="M12.6,7.3C12.6,7.3,12.6,7.3,12.6,7.3l0,0.2c0,0-0.1,0-0.1,0c0,0,0-0.1,0-0.1L12.6,7.3
				C12.5,7.3,12.6,7.3,12.6,7.3z"/>
		</g>
		<g>
			<path fill="#B3B3B3" d="M12.8,6.9C12.8,6.9,12.8,7,12.8,6.9l0,0.2c0,0-0.1,0-0.1,0c0,0,0-0.1,0-0.1L12.8,6.9
				C12.7,6.9,12.8,6.9,12.8,6.9z"/>
		</g>
		<g>
			<path fill="#B3B3B3" d="M13,6.6C13,6.6,13,6.6,13,6.6l0,0.2c0,0-0.1,0-0.1,0c0,0,0-0.1,0-0.1L13,6.6C12.9,6.6,12.9,6.6,13,6.6z"
				/>
		</g>
		<g>
			<path fill="#B3B3B3" d="M13.2,6.2C13.2,6.2,13.2,6.3,13.2,6.2l-0.1,0.2c0,0-0.1,0-0.1,0c0,0,0-0.1,0-0.1L13.2,6.2
				C13.1,6.2,13.1,6.2,13.2,6.2z"/>
		</g>
		<g>
			<path fill="#B3B3B3" d="M13.4,5.9C13.4,5.9,13.4,5.9,13.4,5.9l-0.1,0.2c0,0-0.1,0-0.1,0c0,0,0-0.1,0-0.1L13.4,5.9
				C13.3,5.9,13.3,5.9,13.4,5.9z"/>
		</g>
		<g>
			<path fill="#B3B3B3" d="M13.6,5.6C13.6,5.6,13.6,5.6,13.6,5.6l-0.1,0.2c0,0-0.1,0-0.1,0c0,0,0-0.1,0-0.1L13.6,5.6
				C13.5,5.6,13.6,5.5,13.6,5.6z"/>
		</g>
		<g>
			<path fill="#B3B3B3" d="M13.8,5.2C13.8,5.2,13.8,5.3,13.8,5.2l-0.1,0.2c0,0-0.1,0-0.1,0c0,0,0-0.1,0-0.1L13.8,5.2
				C13.7,5.2,13.8,5.2,13.8,5.2z"/>
		</g>
		<g>
			<path fill="#B3B3B3" d="M14,4.9C14.1,4.9,14.1,5,14,4.9L14,5.1c0,0-0.1,0-0.1,0c0,0,0-0.1,0-0.1L14,4.9C14,4.9,14,4.9,14,4.9z"/>
		</g>
		<g>
			<path fill="#B3B3B3" d="M14.3,4.6C14.3,4.6,14.3,4.6,14.3,4.6l-0.1,0.2c0,0-0.1,0-0.1,0c0,0,0-0.1,0-0.1L14.3,4.6
				C14.2,4.6,14.3,4.6,14.3,4.6z"/>
		</g>
		<g>
			<path fill="#B3B3B3" d="M14.5,4.3C14.6,4.3,14.6,4.3,14.5,4.3l-0.1,0.2c0,0-0.1,0-0.1,0c0,0,0-0.1,0-0.1L14.5,4.3
				C14.5,4.3,14.5,4.3,14.5,4.3z"/>
		</g>
		<g>
			<path fill="#B3B3B3" d="M14.8,4C14.8,4,14.8,4,14.8,4l-0.1,0.2c0,0-0.1,0-0.1,0c0,0,0-0.1,0-0.1L14.8,4C14.7,4,14.8,4,14.8,4z"/>
		</g>
		<g>
			<path fill="#B3B3B3" d="M15.1,3.7C15.1,3.7,15.1,3.7,15.1,3.7L15,3.9c0,0-0.1,0-0.1,0c0,0,0-0.1,0-0.1L15.1,3.7
				C15,3.7,15,3.7,15.1,3.7z"/>
		</g>
	</g>
</g>
<g>
	<g>
		<g>
			<path fill="#B3B3B3" d="M22.2,20.3C22.2,20.4,22.2,20.4,22.2,20.3l-0.2,0c0,0,0-0.1,0-0.1c0,0,0.1,0,0.1,0L22.2,20.3
				C22.2,20.3,22.3,20.3,22.2,20.3z"/>
		</g>
		<g>
			<path fill="#B3B3B3" d="M22.6,20.5C22.6,20.5,22.6,20.5,22.6,20.5l-0.2,0c0,0,0-0.1,0-0.1c0,0,0.1,0,0.1,0L22.6,20.5
				C22.6,20.4,22.6,20.5,22.6,20.5z"/>
		</g>
		<g>
			<path fill="#B3B3B3" d="M23,20.7C22.9,20.7,22.9,20.7,23,20.7l-0.2,0c0,0,0-0.1,0-0.1c0,0,0.1,0,0.1,0L23,20.7
				C23,20.6,23,20.7,23,20.7z"/>
		</g>
		<g>
			<path fill="#B3B3B3" d="M23.3,20.9C23.3,20.9,23.3,20.9,23.3,20.9l-0.2,0c0,0,0-0.1,0-0.1c0,0,0.1,0,0.1,0L23.3,20.9
				C23.3,20.8,23.3,20.9,23.3,20.9z"/>
		</g>
		<g>
			<path fill="#B3B3B3" d="M23.7,21.1C23.7,21.1,23.6,21.1,23.7,21.1l-0.2,0c0,0,0-0.1,0-0.1c0,0,0.1,0,0.1,0L23.7,21.1
				C23.7,21,23.7,21,23.7,21.1z"/>
		</g>
		<g>
			<path fill="#B3B3B3" d="M24,21.3C24,21.3,24,21.3,24,21.3l-0.2,0c0,0,0-0.1,0-0.1c0,0,0.1,0,0.1,0L24,21.3
				C24,21.2,24,21.2,24,21.3z"/>
		</g>
		<g>
			<path fill="#B3B3B3" d="M24.4,21.4C24.4,21.5,24.3,21.5,24.4,21.4l-0.2,0c0,0,0-0.1,0-0.1c0,0,0.1,0,0.1,0L24.4,21.4
				C24.4,21.4,24.4,21.4,24.4,21.4z"/>
		</g>
		<g>
			<path fill="#B3B3B3" d="M24.8,21.6C24.7,21.6,24.7,21.7,24.8,21.6l-0.2,0c0,0,0-0.1,0-0.1c0,0,0.1,0,0.1,0L24.8,21.6
				C24.8,21.6,24.8,21.6,24.8,21.6z"/>
		</g>
		<g>
			<path fill="#B3B3B3" d="M25.1,21.8C25.1,21.8,25.1,21.8,25.1,21.8l-0.2,0c0,0,0-0.1,0-0.1c0,0,0.1,0,0.1,0L25.1,21.8
				C25.1,21.7,25.1,21.8,25.1,21.8z"/>
		</g>
		<g>
			<path fill="#B3B3B3" d="M25.5,22C25.5,22,25.4,22,25.5,22l-0.2,0c0,0,0-0.1,0-0.1c0,0,0.1,0,0.1,0L25.5,22
				C25.5,21.9,25.5,21.9,25.5,22z"/>
		</g>
		<g>
			<path fill="#B3B3B3" d="M25.8,22.2C25.8,22.2,25.8,22.2,25.8,22.2l-0.2,0c0,0,0-0.1,0-0.1c0,0,0.1,0,0.1,0L25.8,22.2
				C25.8,22.1,25.8,22.1,25.8,22.2z"/>
		</g>
		<g>
			<path fill="#B3B3B3" d="M26.2,22.3C26.2,22.4,26.1,22.4,26.2,22.3l-0.2,0c0,0,0-0.1,0-0.1c0,0,0.1,0,0.1,0L26.2,22.3
				C26.2,22.3,26.2,22.3,26.2,22.3z"/>
		</g>
		<g>
			<path fill="#B3B3B3" d="M26.6,22.5C26.5,22.5,26.5,22.5,26.6,22.5l-0.2,0c0,0,0-0.1,0-0.1c0,0,0.1,0,0.1,0L26.6,22.5
				C26.6,22.4,26.6,22.5,26.6,22.5z"/>
		</g>
		<g>
			<path fill="#B3B3B3" d="M26.9,22.7C26.9,22.7,26.9,22.7,26.9,22.7l-0.2,0c0,0,0-0.1,0-0.1c0,0,0.1,0,0.1,0L26.9,22.7
				C26.9,22.6,26.9,22.7,26.9,22.7z"/>
		</g>
		<g>
			<path fill="#B3B3B3" d="M27.3,22.8C27.3,22.9,27.2,22.9,27.3,22.8l-0.2,0c0,0,0-0.1,0-0.1c0,0,0.1,0,0.1,0L27.3,22.8
				C27.3,22.8,27.3,22.8,27.3,22.8z"/>
		</g>
		<g>
			<path fill="#B3B3B3" d="M27.7,23C27.6,23,27.6,23.1,27.7,23l-0.2,0c0,0,0,0,0-0.1c0,0,0,0,0.1,0L27.7,23
				C27.7,22.9,27.7,23,27.7,23z"/>
		</g>
		<g>
			<path fill="#B3B3B3" d="M28,23.2C28,23.2,28,23.2,28,23.2l-0.2,0c0,0,0,0,0-0.1c0,0,0.1,0,0.1,0L28,23.2C28,23.1,28,23.2,28,23.2
				z"/>
		</g>
		<g>
			<path fill="#B3B3B3" d="M28.4,23.3C28.4,23.4,28.3,23.4,28.4,23.3l-0.2,0c0,0,0,0,0-0.1c0,0,0,0,0.1,0L28.4,23.3
				C28.4,23.3,28.4,23.3,28.4,23.3z"/>
		</g>
		<g>
			<path fill="#B3B3B3" d="M28.8,23.5C28.7,23.5,28.7,23.5,28.8,23.5l-0.2,0c0,0,0,0,0-0.1c0,0,0,0,0.1,0L28.8,23.5
				C28.8,23.4,28.8,23.5,28.8,23.5z"/>
		</g>
		<g>
			<path fill="#B3B3B3" d="M29.1,23.7C29.1,23.7,29.1,23.7,29.1,23.7l-0.2,0c0,0,0,0,0-0.1c0,0,0,0,0.1,0L29.1,23.7
				C29.1,23.6,29.1,23.6,29.1,23.7z"/>
		</g>
		<g>
			<path fill="#B3B3B3" d="M29.5,23.8C29.5,23.9,29.4,23.9,29.5,23.8l-0.2,0c0,0,0,0,0-0.1c0,0,0,0,0.1,0L29.5,23.8
				C29.5,23.8,29.5,23.8,29.5,23.8z"/>
		</g>
		<g>
			<path fill="#B3B3B3" d="M29.9,24C29.9,24,29.8,24,29.9,24l-0.2,0c0,0,0,0,0-0.1c0,0,0,0,0.1,0L29.9,24
				C29.9,23.9,29.9,23.9,29.9,24z"/>
		</g>
		<g>
			<path fill="#B3B3B3" d="M30.2,24.1C30.2,24.2,30.2,24.2,30.2,24.1l-0.2,0c0,0,0,0,0-0.1c0,0,0,0,0.1,0L30.2,24.1
				C30.2,24.1,30.3,24.1,30.2,24.1z"/>
		</g>
		<g>
			<path fill="#B3B3B3" d="M30.6,24.3C30.6,24.3,30.6,24.3,30.6,24.3l-0.2,0c0,0-0.1,0,0-0.1c0,0,0,0,0.1,0L30.6,24.3
				C30.6,24.2,30.6,24.2,30.6,24.3z"/>
		</g>
		<g>
			<path fill="#B3B3B3" d="M31,24.4C31,24.4,31,24.4,31,24.4l-0.2,0c0,0-0.1,0,0-0.1c0,0,0,0,0.1,0L31,24.4C31,24.3,31,24.4,31,24.4
				z"/>
		</g>
		<g>
			<path fill="#B3B3B3" d="M31.4,24.5C31.4,24.6,31.3,24.6,31.4,24.5l-0.2,0c0,0-0.1,0,0-0.1c0,0,0,0,0.1,0L31.4,24.5
				C31.4,24.5,31.4,24.5,31.4,24.5z"/>
		</g>
		<g>
			<path fill="#B3B3B3" d="M31.8,24.6C31.8,24.7,31.7,24.7,31.8,24.6l-0.2,0c0,0-0.1,0,0-0.1c0,0,0,0,0.1,0L31.8,24.6
				C31.8,24.6,31.8,24.6,31.8,24.6z"/>
		</g>
		<g>
			<path fill="#B3B3B3" d="M32.2,24.7C32.2,24.8,32.1,24.8,32.2,24.7l-0.2,0c0,0-0.1,0,0-0.1c0,0,0,0,0.1,0L32.2,24.7
				C32.2,24.7,32.2,24.7,32.2,24.7z"/>
		</g>
		<g>
			<path fill="#B3B3B3" d="M32.6,24.8C32.6,24.8,32.5,24.9,32.6,24.8c-0.1,0-0.2,0-0.2,0c0,0-0.1,0-0.1-0.1c0,0,0-0.1,0.1,0
				C32.4,24.7,32.5,24.7,32.6,24.8C32.5,24.7,32.6,24.8,32.6,24.8z"/>
		</g>
		<g>
			<path fill="#B3B3B3" d="M33,24.8C33,24.9,32.9,24.9,33,24.8c-0.1,0-0.2,0-0.2,0c0,0-0.1,0-0.1-0.1c0,0,0-0.1,0.1,0
				C32.8,24.8,32.9,24.8,33,24.8C32.9,24.8,33,24.8,33,24.8z"/>
		</g>
		<g>
			<path fill="#B3B3B3" d="M33.4,24.9C33.4,24.9,33.3,24.9,33.4,24.9c-0.1,0.1-0.2,0.1-0.2,0.1c0,0-0.1,0-0.1-0.1c0,0,0-0.1,0.1-0.1
				C33.2,24.8,33.3,24.8,33.4,24.9C33.3,24.8,33.4,24.8,33.4,24.9z"/>
		</g>
		<g>
			<path fill="#B3B3B3" d="M33.8,24.8C33.8,24.9,33.7,24.9,33.8,24.8c-0.1,0.1-0.2,0.1-0.2,0.1c0,0-0.1,0-0.1-0.1c0,0,0-0.1,0.1-0.1
				C33.6,24.8,33.7,24.8,33.8,24.8C33.7,24.8,33.8,24.8,33.8,24.8z"/>
		</g>
		<g>
			<path fill="#B3B3B3" d="M34.2,24.8C34.2,24.8,34.1,24.9,34.2,24.8c-0.1,0.1-0.2,0.1-0.2,0.1c0,0-0.1,0-0.1-0.1c0,0,0-0.1,0.1-0.1
				C34,24.8,34.1,24.8,34.2,24.8C34.1,24.8,34.2,24.8,34.2,24.8z"/>
		</g>
		<g>
			<path fill="#B3B3B3" d="M34.6,24.7C34.6,24.8,34.5,24.8,34.6,24.7c-0.1,0.1-0.1,0.1-0.2,0.1c0,0-0.1,0-0.1,0c0,0,0-0.1,0.1-0.1
				C34.4,24.7,34.4,24.7,34.6,24.7C34.5,24.7,34.6,24.7,34.6,24.7z"/>
		</g>
		<g>
			<path fill="#B3B3B3" d="M35,24.7C35,24.7,34.9,24.7,35,24.7c-0.1,0.1-0.1,0.1-0.2,0.1c0,0-0.1,0-0.1,0c0,0,0-0.1,0-0.1
				C34.8,24.6,34.8,24.6,35,24.7C34.9,24.6,34.9,24.6,35,24.7z"/>
		</g>
		<g>
			<path fill="#B3B3B3" d="M35.3,24.5C35.4,24.6,35.3,24.6,35.3,24.5c-0.1,0.1-0.1,0.1-0.2,0.1c0,0-0.1,0-0.1,0c0,0,0-0.1,0-0.1
				C35.2,24.5,35.2,24.5,35.3,24.5C35.3,24.5,35.3,24.5,35.3,24.5z"/>
		</g>
		<g>
			<path fill="#B3B3B3" d="M35.7,24.4C35.7,24.4,35.7,24.5,35.7,24.4c-0.1,0.1-0.1,0.1-0.2,0.1c0,0-0.1,0-0.1,0c0,0,0-0.1,0-0.1
				C35.6,24.4,35.6,24.4,35.7,24.4C35.7,24.4,35.7,24.4,35.7,24.4z"/>
		</g>
		<g>
			<path fill="#B3B3B3" d="M36.1,24.3C36.1,24.3,36.1,24.3,36.1,24.3c-0.1,0.1-0.1,0.1-0.2,0.1c0,0-0.1,0-0.1,0c0,0,0-0.1,0-0.1
				C35.9,24.3,36,24.2,36.1,24.3C36,24.2,36.1,24.2,36.1,24.3z"/>
		</g>
		<g>
			<path fill="#B3B3B3" d="M36.5,24.1C36.5,24.1,36.5,24.1,36.5,24.1l-0.2,0.1c0,0-0.1,0-0.1,0c0,0,0-0.1,0-0.1L36.5,24.1
				C36.4,24,36.4,24,36.5,24.1z"/>
		</g>
		<g>
			<path fill="#B3B3B3" d="M36.8,23.9C36.8,23.9,36.8,23.9,36.8,23.9C36.7,24,36.7,24,36.7,24c0,0-0.1,0-0.1,0c0,0,0-0.1,0-0.1
				C36.6,23.9,36.7,23.9,36.8,23.9C36.8,23.8,36.8,23.9,36.8,23.9z"/>
		</g>
		<g>
			<path fill="#B3B3B3" d="M37.2,23.7C37.2,23.7,37.2,23.7,37.2,23.7c-0.1,0.1-0.1,0.1-0.1,0.2c0,0-0.1,0-0.1,0c0,0,0-0.1,0-0.1
				C37,23.7,37,23.7,37.2,23.7C37.1,23.6,37.1,23.6,37.2,23.7z"/>
		</g>
		<g>
			<path fill="#B3B3B3" d="M37.5,23.4C37.5,23.5,37.5,23.5,37.5,23.4c-0.1,0.1-0.1,0.1-0.1,0.2c0,0-0.1,0-0.1,0c0,0,0-0.1,0-0.1
				C37.3,23.5,37.4,23.5,37.5,23.4C37.4,23.4,37.5,23.4,37.5,23.4z"/>
		</g>
		<g>
			<path fill="#B3B3B3" d="M37.8,23.2C37.8,23.2,37.8,23.3,37.8,23.2c0,0.1-0.1,0.1-0.1,0.2c0,0-0.1,0-0.1,0c0,0,0-0.1,0-0.1
				C37.6,23.2,37.7,23.2,37.8,23.2C37.7,23.2,37.8,23.2,37.8,23.2z"/>
		</g>
		<g>
			<path fill="#B3B3B3" d="M38.1,22.9C38.1,22.9,38.1,23,38.1,22.9c0,0.1-0.1,0.2-0.1,0.2c0,0-0.1,0-0.1,0c0,0,0-0.1,0-0.1
				C37.9,23,38,23,38.1,22.9C38,22.9,38.1,22.9,38.1,22.9z"/>
		</g>
		<g>
			<path fill="#B3B3B3" d="M38.4,22.6C38.4,22.7,38.4,22.7,38.4,22.6c0,0.1-0.1,0.2-0.1,0.2c0,0-0.1,0-0.1,0c0,0,0-0.1,0-0.1
				C38.2,22.7,38.3,22.7,38.4,22.6C38.3,22.6,38.4,22.6,38.4,22.6z"/>
		</g>
		<g>
			<path fill="#B3B3B3" d="M38.6,22.3C38.6,22.3,38.7,22.4,38.6,22.3c0,0.1,0,0.2-0.1,0.2c0,0-0.1,0-0.1,0c0,0,0-0.1,0-0.1
				C38.5,22.4,38.5,22.4,38.6,22.3C38.6,22.3,38.6,22.3,38.6,22.3z"/>
		</g>
	</g>
	<g>
		<g>
			<path fill="#B3B3B3" d="M23.3,20.2C23.2,20.2,23.2,20.2,23.3,20.2l-0.2,0c0,0,0-0.1,0-0.1c0,0,0.1,0,0.1,0L23.3,20.2
				C23.3,20.1,23.3,20.2,23.3,20.2z"/>
		</g>
		<g>
			<path fill="#B3B3B3" d="M23.6,20.4C23.6,20.4,23.6,20.4,23.6,20.4l-0.2,0c0,0,0-0.1,0-0.1c0,0,0.1,0,0.1,0L23.6,20.4
				C23.6,20.3,23.6,20.4,23.6,20.4z"/>
		</g>
		<g>
			<path fill="#B3B3B3" d="M24,20.6C24,20.6,23.9,20.6,24,20.6l-0.2,0c0,0,0-0.1,0-0.1c0,0,0.1,0,0.1,0L24,20.6
				C24,20.5,24,20.5,24,20.6z"/>
		</g>
		<g>
			<path fill="#B3B3B3" d="M24.3,20.7C24.3,20.8,24.3,20.8,24.3,20.7l-0.2,0c0,0,0-0.1,0-0.1c0,0,0.1,0,0.1,0L24.3,20.7
				C24.3,20.7,24.3,20.7,24.3,20.7z"/>
		</g>
		<g>
			<path fill="#B3B3B3" d="M24.7,20.9C24.7,21,24.6,21,24.7,20.9l-0.2,0c0,0,0-0.1,0-0.1c0,0,0.1,0,0.1,0L24.7,20.9
				C24.7,20.9,24.7,20.9,24.7,20.9z"/>
		</g>
		<g>
			<path fill="#B3B3B3" d="M25,21.1C25,21.1,25,21.1,25,21.1l-0.2,0c0,0,0-0.1,0-0.1c0,0,0.1,0,0.1,0L25,21.1C25,21,25,21.1,25,21.1
				z"/>
		</g>
		<g>
			<path fill="#B3B3B3" d="M25.4,21.3C25.4,21.3,25.3,21.3,25.4,21.3l-0.2,0c0,0,0-0.1,0-0.1c0,0,0.1,0,0.1,0L25.4,21.3
				C25.4,21.2,25.4,21.2,25.4,21.3z"/>
		</g>
		<g>
			<path fill="#B3B3B3" d="M25.7,21.5C25.7,21.5,25.7,21.5,25.7,21.5l-0.2,0c0,0,0-0.1,0-0.1c0,0,0.1,0,0.1,0L25.7,21.5
				C25.7,21.4,25.8,21.4,25.7,21.5z"/>
		</g>
		<g>
			<path fill="#B3B3B3" d="M26.1,21.6C26.1,21.7,26.1,21.7,26.1,21.6l-0.2,0c0,0,0-0.1,0-0.1c0,0,0.1,0,0.1,0L26.1,21.6
				C26.1,21.6,26.1,21.6,26.1,21.6z"/>
		</g>
		<g>
			<path fill="#B3B3B3" d="M26.5,21.8C26.4,21.8,26.4,21.8,26.5,21.8l-0.2,0c0,0,0-0.1,0-0.1c0,0,0.1,0,0.1,0L26.5,21.8
				C26.5,21.7,26.5,21.8,26.5,21.8z"/>
		</g>
		<g>
			<path fill="#B3B3B3" d="M26.8,22C26.8,22,26.8,22,26.8,22l-0.2,0c0,0,0-0.1,0-0.1c0,0,0.1,0,0.1,0L26.8,22
				C26.8,21.9,26.8,21.9,26.8,22z"/>
		</g>
		<g>
			<path fill="#B3B3B3" d="M27.2,22.1C27.2,22.2,27.1,22.2,27.2,22.1l-0.2,0c0,0,0-0.1,0-0.1c0,0,0.1,0,0.1,0L27.2,22.1
				C27.2,22.1,27.2,22.1,27.2,22.1z"/>
		</g>
		<g>
			<path fill="#B3B3B3" d="M27.5,22.3C27.5,22.3,27.5,22.3,27.5,22.3l-0.2,0c0,0,0,0,0-0.1c0,0,0,0,0.1,0L27.5,22.3
				C27.5,22.2,27.6,22.3,27.5,22.3z"/>
		</g>
		<g>
			<path fill="#B3B3B3" d="M27.9,22.5C27.9,22.5,27.9,22.5,27.9,22.5l-0.2,0c0,0,0,0,0-0.1c0,0,0,0,0.1,0L27.9,22.5
				C27.9,22.4,27.9,22.4,27.9,22.5z"/>
		</g>
		<g>
			<path fill="#B3B3B3" d="M28.3,22.6C28.3,22.7,28.2,22.7,28.3,22.6l-0.2,0c0,0,0,0,0-0.1c0,0,0,0,0.1,0L28.3,22.6
				C28.3,22.6,28.3,22.6,28.3,22.6z"/>
		</g>
		<g>
			<path fill="#B3B3B3" d="M28.6,22.8C28.6,22.8,28.6,22.8,28.6,22.8l-0.2,0c0,0,0,0,0-0.1c0,0,0,0,0.1,0L28.6,22.8
				C28.6,22.7,28.6,22.8,28.6,22.8z"/>
		</g>
		<g>
			<path fill="#B3B3B3" d="M29,23C29,23,29,23,29,23l-0.2,0c0,0,0,0,0-0.1c0,0,0,0,0.1,0L29,23C29,22.9,29,22.9,29,23z"/>
		</g>
		<g>
			<path fill="#B3B3B3" d="M29.4,23.1C29.4,23.1,29.3,23.2,29.4,23.1l-0.2,0c0,0,0,0,0-0.1c0,0,0,0,0.1,0L29.4,23.1
				C29.4,23,29.4,23.1,29.4,23.1z"/>
		</g>
		<g>
			<path fill="#B3B3B3" d="M29.7,23.3C29.7,23.3,29.7,23.3,29.7,23.3l-0.2,0c0,0,0,0,0-0.1c0,0,0,0,0.1,0L29.7,23.3
				C29.7,23.2,29.7,23.2,29.7,23.3z"/>
		</g>
		<g>
			<path fill="#B3B3B3" d="M30.1,23.4C30.1,23.4,30.1,23.5,30.1,23.4l-0.2,0c0,0,0,0,0-0.1c0,0,0,0,0.1,0L30.1,23.4
				C30.1,23.3,30.1,23.4,30.1,23.4z"/>
		</g>
		<g>
			<path fill="#B3B3B3" d="M30.5,23.6C30.5,23.6,30.4,23.6,30.5,23.6l-0.2,0c0,0,0,0,0-0.1c0,0,0,0,0.1,0L30.5,23.6
				C30.5,23.5,30.5,23.5,30.5,23.6z"/>
		</g>
		<g>
			<path fill="#B3B3B3" d="M30.9,23.7C30.8,23.7,30.8,23.7,30.9,23.7l-0.2,0c0,0-0.1,0,0-0.1c0,0,0,0,0.1,0L30.9,23.7
				C30.8,23.6,30.9,23.7,30.9,23.7z"/>
		</g>
		<g>
			<path fill="#B3B3B3" d="M31.2,23.8C31.2,23.8,31.2,23.9,31.2,23.8l-0.2,0c0,0-0.1,0,0-0.1c0,0,0,0,0.1,0L31.2,23.8
				C31.2,23.7,31.2,23.8,31.2,23.8z"/>
		</g>
		<g>
			<path fill="#B3B3B3" d="M31.6,23.9C31.6,23.9,31.6,24,31.6,23.9l-0.2,0c0,0-0.1,0,0-0.1c0,0,0,0,0.1,0L31.6,23.9
				C31.6,23.9,31.6,23.9,31.6,23.9z"/>
		</g>
		<g>
			<path fill="#B3B3B3" d="M32,24C32,24,32,24.1,32,24l-0.2,0c0,0-0.1,0,0-0.1c0,0,0,0,0.1,0L32,24C32,23.9,32,24,32,24z"/>
		</g>
		<g>
			<path fill="#B3B3B3" d="M32.4,24.1C32.4,24.1,32.4,24.1,32.4,24.1c-0.1,0-0.2,0-0.2,0c0,0-0.1,0,0-0.1c0,0,0,0,0.1,0
				C32.2,24,32.3,24,32.4,24.1C32.4,24,32.4,24.1,32.4,24.1z"/>
		</g>
		<g>
			<path fill="#B3B3B3" d="M32.8,24.1C32.8,24.2,32.7,24.2,32.8,24.1c-0.1,0-0.2,0-0.2,0c0,0-0.1,0-0.1-0.1c0,0,0-0.1,0.1,0
				C32.6,24.1,32.7,24.1,32.8,24.1C32.8,24.1,32.8,24.1,32.8,24.1z"/>
		</g>
		<g>
			<path fill="#B3B3B3" d="M33.2,24.2C33.2,24.2,33.2,24.2,33.2,24.2c-0.1,0.1-0.2,0.1-0.2,0c0,0-0.1,0-0.1-0.1c0,0,0-0.1,0.1-0.1
				C33,24.1,33.1,24.1,33.2,24.2C33.2,24.1,33.2,24.1,33.2,24.2z"/>
		</g>
		<g>
			<path fill="#B3B3B3" d="M33.6,24.2C33.6,24.2,33.6,24.2,33.6,24.2c-0.1,0.1-0.2,0.1-0.2,0.1c0,0-0.1,0-0.1-0.1c0,0,0-0.1,0.1-0.1
				C33.4,24.1,33.5,24.1,33.6,24.2C33.5,24.1,33.6,24.1,33.6,24.2z"/>
		</g>
		<g>
			<path fill="#B3B3B3" d="M34,24.1C34,24.2,34,24.2,34,24.1c-0.1,0.1-0.2,0.1-0.2,0.1c0,0-0.1,0-0.1-0.1c0,0,0-0.1,0.1-0.1
				C33.8,24.1,33.9,24.1,34,24.1C33.9,24.1,34,24.1,34,24.1z"/>
		</g>
		<g>
			<path fill="#B3B3B3" d="M34.4,24.1C34.4,24.1,34.4,24.1,34.4,24.1c-0.1,0.1-0.1,0.1-0.2,0.1c0,0-0.1,0-0.1,0c0,0,0-0.1,0.1-0.1
				C34.2,24,34.3,24,34.4,24.1C34.3,24,34.4,24,34.4,24.1z"/>
		</g>
		<g>
			<path fill="#B3B3B3" d="M34.8,24C34.8,24,34.7,24.1,34.8,24c-0.1,0.1-0.1,0.1-0.2,0.1c0,0-0.1,0-0.1,0c0,0,0-0.1,0.1-0.1
				C34.6,24,34.6,24,34.8,24C34.7,24,34.8,24,34.8,24z"/>
		</g>
		<g>
			<path fill="#B3B3B3" d="M35.1,23.9C35.2,23.9,35.1,24,35.1,23.9C35.1,24,35,24,35,24c0,0-0.1,0-0.1,0c0,0,0-0.1,0-0.1
				C35,23.9,35,23.9,35.1,23.9C35.1,23.8,35.1,23.9,35.1,23.9z"/>
		</g>
		<g>
			<path fill="#B3B3B3" d="M35.5,23.8C35.5,23.8,35.5,23.8,35.5,23.8l-0.2,0.1c0,0-0.1,0-0.1,0c0,0,0-0.1,0-0.1L35.5,23.8
				C35.5,23.7,35.5,23.7,35.5,23.8z"/>
		</g>
		<g>
			<path fill="#B3B3B3" d="M35.9,23.6C35.9,23.7,35.9,23.7,35.9,23.6l-0.2,0.1c0,0-0.1,0-0.1,0c0,0,0-0.1,0-0.1L35.9,23.6
				C35.8,23.6,35.9,23.6,35.9,23.6z"/>
		</g>
		<g>
			<path fill="#B3B3B3" d="M36.3,23.5C36.3,23.5,36.3,23.5,36.3,23.5c-0.1,0.1-0.1,0.1-0.2,0.1c0,0-0.1,0-0.1,0c0,0,0-0.1,0-0.1
				L36.3,23.5C36.2,23.4,36.2,23.4,36.3,23.5z"/>
		</g>
		<g>
			<path fill="#B3B3B3" d="M36.6,23.3C36.6,23.3,36.6,23.3,36.6,23.3c-0.1,0.1-0.1,0.1-0.2,0.1c0,0-0.1,0-0.1,0c0,0,0-0.1,0-0.1
				C36.4,23.3,36.5,23.3,36.6,23.3C36.6,23.2,36.6,23.3,36.6,23.3z"/>
		</g>
		<g>
			<path fill="#B3B3B3" d="M37,23.1C37,23.1,37,23.1,37,23.1c-0.1,0.1-0.1,0.1-0.1,0.2c0,0-0.1,0-0.1,0c0,0,0-0.1,0-0.1
				C36.8,23.1,36.8,23.1,37,23.1C36.9,23,36.9,23,37,23.1z"/>
		</g>
		<g>
			<path fill="#B3B3B3" d="M37.3,22.9C37.3,22.9,37.3,22.9,37.3,22.9C37.2,23,37.2,23,37.1,23c0,0-0.1,0-0.1,0c0,0,0-0.1,0-0.1
				C37.1,22.9,37.2,22.9,37.3,22.9C37.2,22.8,37.3,22.8,37.3,22.9z"/>
		</g>
		<g>
			<path fill="#B3B3B3" d="M37.6,22.6C37.6,22.6,37.6,22.7,37.6,22.6c-0.1,0.1-0.1,0.1-0.1,0.2c0,0-0.1,0-0.1,0c0,0,0-0.1,0-0.1
				C37.4,22.7,37.5,22.6,37.6,22.6C37.5,22.6,37.6,22.6,37.6,22.6z"/>
		</g>
		<g>
			<path fill="#B3B3B3" d="M37.9,22.4C37.9,22.4,37.9,22.4,37.9,22.4c0,0.1-0.1,0.1-0.1,0.2c0,0-0.1,0-0.1,0c0,0,0-0.1,0-0.1
				C37.8,22.4,37.8,22.4,37.9,22.4C37.8,22.3,37.9,22.3,37.9,22.4z"/>
		</g>
		<g>
			<path fill="#B3B3B3" d="M38.2,22.1C38.2,22.1,38.2,22.1,38.2,22.1c0,0.1-0.1,0.2-0.1,0.2c0,0-0.1,0-0.1,0c0,0,0-0.1,0-0.1
				C38,22.2,38.1,22.1,38.2,22.1C38.1,22.1,38.2,22.1,38.2,22.1z"/>
		</g>
	</g>
</g>
<g>
	<g>
		<g>
			<path fill="#B3B3B3" d="M22.2,19.1C22.2,19.1,22.3,19.2,22.2,19.1l0.1,0.2c0,0,0,0.1-0.1,0.1c0,0-0.1,0-0.1-0.1L22.2,19.1
				C22.1,19.2,22.2,19.1,22.2,19.1z"/>
		</g>
		<g>
			<path fill="#B3B3B3" d="M22.2,18.7C22.2,18.7,22.3,18.7,22.2,18.7l0.1,0.2c0,0,0,0.1-0.1,0.1c0,0-0.1,0-0.1-0.1L22.2,18.7
				C22.1,18.7,22.2,18.7,22.2,18.7z"/>
		</g>
		<g>
			<path fill="#B3B3B3" d="M22.2,18.3C22.2,18.3,22.3,18.3,22.2,18.3l0.1,0.2c0,0,0,0.1-0.1,0.1c0,0-0.1,0-0.1-0.1L22.2,18.3
				C22.1,18.3,22.2,18.3,22.2,18.3z"/>
		</g>
		<g>
			<path fill="#B3B3B3" d="M22.2,17.9C22.2,17.9,22.3,17.9,22.2,17.9l0.1,0.2c0,0,0,0.1-0.1,0.1c0,0-0.1,0-0.1-0.1L22.2,17.9
				C22.1,17.9,22.2,17.9,22.2,17.9z"/>
		</g>
		<g>
			<path fill="#B3B3B3" d="M22.2,17.5C22.2,17.5,22.2,17.5,22.2,17.5l0.1,0.2c0,0,0,0.1-0.1,0.1c0,0-0.1,0-0.1-0.1L22.2,17.5
				C22.1,17.5,22.2,17.5,22.2,17.5z"/>
		</g>
		<g>
			<path fill="#B3B3B3" d="M22.2,17.1C22.2,17.1,22.2,17.1,22.2,17.1l0.1,0.2c0,0,0,0.1-0.1,0.1c0,0-0.1,0-0.1-0.1L22.2,17.1
				C22.1,17.1,22.1,17.1,22.2,17.1z"/>
		</g>
		<g>
			<path fill="#B3B3B3" d="M22.2,16.7C22.2,16.7,22.2,16.7,22.2,16.7l0.1,0.2c0,0,0,0.1-0.1,0.1c0,0-0.1,0-0.1-0.1L22.2,16.7
				C22.1,16.7,22.1,16.7,22.2,16.7z"/>
		</g>
		<g>
			<path fill="#B3B3B3" d="M22.1,16.3C22.2,16.3,22.2,16.3,22.1,16.3l0.1,0.2c0,0,0,0.1-0.1,0.1c0,0-0.1,0-0.1-0.1L22.1,16.3
				C22.1,16.3,22.1,16.3,22.1,16.3z"/>
		</g>
		<g>
			<path fill="#B3B3B3" d="M22.1,15.9C22.2,15.9,22.2,15.9,22.1,15.9l0.1,0.2c0,0,0,0.1-0.1,0.1c0,0-0.1,0-0.1-0.1L22.1,15.9
				C22.1,15.9,22.1,15.9,22.1,15.9z"/>
		</g>
		<g>
			<path fill="#B3B3B3" d="M22.1,15.5C22.1,15.5,22.2,15.5,22.1,15.5l0.1,0.2c0,0,0,0.1-0.1,0.1c0,0-0.1,0-0.1-0.1L22.1,15.5
				C22,15.5,22.1,15.5,22.1,15.5z"/>
		</g>
		<g>
			<path fill="#B3B3B3" d="M22.1,15.1C22.1,15.1,22.1,15.1,22.1,15.1l0.1,0.2c0,0,0,0.1-0.1,0.1c0,0-0.1,0-0.1-0.1L22.1,15.1
				C22,15.1,22,15.1,22.1,15.1z"/>
		</g>
		<g>
			<path fill="#B3B3B3" d="M22,14.7C22.1,14.7,22.1,14.7,22,14.7l0.1,0.2c0,0,0,0.1-0.1,0.1c0,0-0.1,0-0.1-0.1L22,14.7
				C22,14.7,22,14.7,22,14.7z"/>
		</g>
		<g>
			<path fill="#B3B3B3" d="M22,14.3C22,14.3,22.1,14.3,22,14.3l0.1,0.2c0,0,0,0.1-0.1,0.1c0,0-0.1,0-0.1-0.1L22,14.3
				C22,14.3,22,14.3,22,14.3z"/>
		</g>
		<g>
			<path fill="#B3B3B3" d="M22,13.9C22,13.9,22,13.9,22,13.9l0.1,0.2c0,0,0,0.1-0.1,0.1c0,0-0.1,0-0.1-0.1L22,13.9
				C21.9,13.9,21.9,13.9,22,13.9z"/>
		</g>
		<g>
			<path fill="#B3B3B3" d="M21.9,13.5C21.9,13.5,22,13.5,21.9,13.5l0.1,0.2c0,0,0,0.1,0,0.1c0,0-0.1,0-0.1-0.1L21.9,13.5
				C21.9,13.5,21.9,13.5,21.9,13.5z"/>
		</g>
		<g>
			<path fill="#B3B3B3" d="M21.9,13.1C21.9,13.1,21.9,13.1,21.9,13.1l0.1,0.2c0,0,0,0.1,0,0.1c0,0-0.1,0-0.1-0.1L21.9,13.1
				C21.8,13.1,21.8,13.1,21.9,13.1z"/>
		</g>
		<g>
			<path fill="#B3B3B3" d="M21.8,12.7C21.8,12.7,21.9,12.7,21.8,12.7l0.1,0.2c0,0,0,0.1,0,0.1c0,0-0.1,0-0.1-0.1L21.8,12.7
				C21.8,12.7,21.8,12.7,21.8,12.7z"/>
		</g>
		<g>
			<path fill="#B3B3B3" d="M21.7,12.3C21.8,12.3,21.8,12.3,21.7,12.3l0.1,0.2c0,0,0,0.1,0,0.1c0,0-0.1,0-0.1-0.1L21.7,12.3
				C21.7,12.3,21.7,12.3,21.7,12.3z"/>
		</g>
		<g>
			<path fill="#B3B3B3" d="M21.7,11.9C21.7,11.9,21.7,11.9,21.7,11.9l0.1,0.2c0,0,0,0.1,0,0.1c0,0-0.1,0-0.1-0.1L21.7,11.9
				C21.6,11.9,21.6,11.9,21.7,11.9z"/>
		</g>
		<g>
			<path fill="#B3B3B3" d="M21.6,11.5C21.6,11.5,21.6,11.5,21.6,11.5l0.1,0.2c0,0,0,0.1,0,0.1c0,0-0.1,0-0.1-0.1L21.6,11.5
				C21.5,11.5,21.6,11.5,21.6,11.5z"/>
		</g>
		<g>
			<path fill="#B3B3B3" d="M21.5,11.1C21.5,11.1,21.6,11.1,21.5,11.1l0.1,0.2c0,0,0,0.1,0,0.1c0,0-0.1,0-0.1-0.1L21.5,11.1
				C21.4,11.1,21.5,11.1,21.5,11.1z"/>
		</g>
		<g>
			<path fill="#B3B3B3" d="M21.4,10.7C21.4,10.7,21.5,10.7,21.4,10.7l0.1,0.2c0,0,0,0.1,0,0.1c0,0-0.1,0-0.1,0L21.4,10.7
				C21.4,10.7,21.4,10.7,21.4,10.7z"/>
		</g>
		<g>
			<path fill="#B3B3B3" d="M21.3,10.3C21.3,10.3,21.4,10.3,21.3,10.3l0.1,0.2c0,0,0,0.1,0,0.1c0,0-0.1,0-0.1,0L21.3,10.3
				C21.3,10.3,21.3,10.3,21.3,10.3z"/>
		</g>
		<g>
			<path fill="#B3B3B3" d="M21.2,9.9C21.2,9.9,21.3,9.9,21.2,9.9l0.1,0.2c0,0,0,0.1,0,0.1c0,0-0.1,0-0.1,0L21.2,9.9
				C21.1,10,21.2,9.9,21.2,9.9z"/>
		</g>
		<g>
			<path fill="#B3B3B3" d="M21.1,9.5C21.1,9.5,21.1,9.5,21.1,9.5l0.1,0.2c0,0,0,0.1,0,0.1c0,0-0.1,0-0.1,0L21.1,9.5
				C21,9.6,21,9.5,21.1,9.5z"/>
		</g>
		<g>
			<path fill="#B3B3B3" d="M20.9,9.1C21,9.1,21,9.1,20.9,9.1l0.1,0.2c0,0,0,0.1,0,0.1c0,0-0.1,0-0.1,0L20.9,9.1
				C20.9,9.2,20.9,9.1,20.9,9.1z"/>
		</g>
		<g>
			<path fill="#B3B3B3" d="M20.8,8.8C20.8,8.7,20.9,8.8,20.8,8.8l0.1,0.2c0,0,0,0.1,0,0.1c0,0-0.1,0-0.1,0L20.8,8.8
				C20.8,8.8,20.8,8.8,20.8,8.8z"/>
		</g>
		<g>
			<path fill="#B3B3B3" d="M20.7,8.4C20.7,8.4,20.7,8.4,20.7,8.4l0.1,0.2c0,0,0,0.1,0,0.1c0,0-0.1,0-0.1,0L20.7,8.4
				C20.6,8.4,20.6,8.4,20.7,8.4z"/>
		</g>
		<g>
			<path fill="#B3B3B3" d="M20.5,8C20.5,8,20.6,8,20.5,8l0.1,0.2c0,0,0,0.1,0,0.1c0,0-0.1,0-0.1,0L20.5,8C20.5,8.1,20.5,8,20.5,8z"
				/>
		</g>
		<g>
			<path fill="#B3B3B3" d="M20.3,7.6C20.4,7.6,20.4,7.6,20.3,7.6l0.1,0.2c0,0,0,0.1,0,0.1c0,0-0.1,0-0.1,0L20.3,7.6
				C20.3,7.7,20.3,7.6,20.3,7.6z"/>
		</g>
		<g>
			<path fill="#B3B3B3" d="M20.2,7.3C20.2,7.3,20.2,7.3,20.2,7.3l0.1,0.2c0,0,0,0.1,0,0.1c0,0-0.1,0-0.1,0L20.2,7.3
				C20.1,7.3,20.1,7.3,20.2,7.3z"/>
		</g>
		<g>
			<path fill="#B3B3B3" d="M20,6.9C20,6.9,20.1,6.9,20,6.9l0.1,0.2c0,0,0,0.1,0,0.1c0,0-0.1,0-0.1,0L20,6.9C20,7,20,6.9,20,6.9z"/>
		</g>
		<g>
			<path fill="#B3B3B3" d="M19.8,6.5C19.8,6.5,19.9,6.5,19.8,6.5L20,6.7c0,0,0,0.1,0,0.1c0,0-0.1,0-0.1,0L19.8,6.5
				C19.8,6.6,19.8,6.6,19.8,6.5z"/>
		</g>
		<g>
			<path fill="#B3B3B3" d="M19.6,6.2C19.6,6.2,19.7,6.2,19.6,6.2l0.2,0.1c0,0,0,0.1,0,0.1c0,0-0.1,0-0.1,0L19.6,6.2
				C19.6,6.3,19.6,6.2,19.6,6.2z"/>
		</g>
		<g>
			<path fill="#B3B3B3" d="M19.4,5.9C19.4,5.8,19.5,5.8,19.4,5.9L19.5,6c0,0,0,0.1,0,0.1c0,0-0.1,0-0.1,0L19.4,5.9
				C19.4,5.9,19.4,5.9,19.4,5.9z"/>
		</g>
		<g>
			<path fill="#B3B3B3" d="M19.2,5.5C19.2,5.5,19.2,5.5,19.2,5.5l0.2,0.1c0,0,0,0.1,0,0.1c0,0-0.1,0-0.1,0L19.2,5.5
				C19.1,5.6,19.1,5.5,19.2,5.5z"/>
		</g>
		<g>
			<path fill="#B3B3B3" d="M18.9,5.2C19,5.2,19,5.2,18.9,5.2l0.2,0.1c0,0,0,0.1,0,0.1c0,0-0.1,0-0.1,0L18.9,5.2
				C18.9,5.2,18.9,5.2,18.9,5.2z"/>
		</g>
		<g>
			<path fill="#B3B3B3" d="M18.7,4.9C18.7,4.8,18.8,4.8,18.7,4.9L18.9,5c0,0,0,0.1,0,0.1c0,0-0.1,0-0.1,0L18.7,4.9
				C18.7,4.9,18.7,4.9,18.7,4.9z"/>
		</g>
		<g>
			<path fill="#B3B3B3" d="M18.4,4.5C18.5,4.5,18.5,4.5,18.4,4.5l0.2,0.1c0,0,0,0.1,0,0.1c0,0-0.1,0-0.1,0L18.4,4.5
				C18.4,4.6,18.4,4.6,18.4,4.5z"/>
		</g>
		<g>
			<path fill="#B3B3B3" d="M18.2,4.2C18.2,4.2,18.2,4.2,18.2,4.2l0.2,0.1c0,0,0,0.1,0,0.1c0,0-0.1,0-0.1,0L18.2,4.2
				C18.2,4.3,18.2,4.3,18.2,4.2z"/>
		</g>
		<g>
			<path fill="#B3B3B3" d="M17.9,3.9C17.9,3.9,18,3.9,17.9,3.9L18.1,4c0,0,0,0.1,0,0.1c0,0-0.1,0-0.1,0L17.9,3.9
				C17.9,4,17.9,4,17.9,3.9z"/>
		</g>
		<g>
			<path fill="#B3B3B3" d="M17.6,3.6C17.7,3.6,17.7,3.6,17.6,3.6l0.2,0.1c0,0,0,0.1,0,0.1c0,0-0.1,0-0.1,0L17.6,3.6
				C17.6,3.7,17.6,3.7,17.6,3.6z"/>
		</g>
		<g>
			<path fill="#B3B3B3" d="M17.4,3.3C17.4,3.3,17.4,3.3,17.4,3.3l0.2,0.1c0,0,0,0.1,0,0.1c0,0-0.1,0-0.1,0L17.4,3.3
				C17.3,3.4,17.3,3.4,17.4,3.3z"/>
		</g>
	</g>
	<g>
		<g>
			<path fill="#B3B3B3" d="M21.2,19.1C21.2,19.1,21.2,19.2,21.2,19.1l0.1,0.2c0,0,0,0.1-0.1,0.1c0,0-0.1,0-0.1-0.1L21.2,19.1
				C21.1,19.2,21.1,19.1,21.2,19.1z"/>
		</g>
		<g>
			<path fill="#B3B3B3" d="M21.2,18.7C21.2,18.7,21.2,18.8,21.2,18.7l0.1,0.2c0,0,0,0.1-0.1,0.1c0,0-0.1,0-0.1-0.1L21.2,18.7
				C21.1,18.8,21.1,18.7,21.2,18.7z"/>
		</g>
		<g>
			<path fill="#B3B3B3" d="M21.2,18.3C21.2,18.3,21.2,18.4,21.2,18.3l0.1,0.2c0,0,0,0.1-0.1,0.1c0,0-0.1,0-0.1-0.1L21.2,18.3
				C21.1,18.4,21.1,18.3,21.2,18.3z"/>
		</g>
		<g>
			<path fill="#B3B3B3" d="M21.2,17.9C21.2,17.9,21.2,18,21.2,17.9l0.1,0.2c0,0,0,0.1-0.1,0.1c0,0-0.1,0-0.1-0.1L21.2,17.9
				C21.1,18,21.1,17.9,21.2,17.9z"/>
		</g>
		<g>
			<path fill="#B3B3B3" d="M21.2,17.5C21.2,17.5,21.2,17.6,21.2,17.5l0.1,0.2c0,0,0,0.1-0.1,0.1c0,0-0.1,0-0.1-0.1L21.2,17.5
				C21.1,17.6,21.1,17.5,21.2,17.5z"/>
		</g>
		<g>
			<path fill="#B3B3B3" d="M21.2,17.1C21.2,17.1,21.2,17.2,21.2,17.1l0.1,0.2c0,0,0,0.1-0.1,0.1c0,0-0.1,0-0.1-0.1L21.2,17.1
				C21.1,17.2,21.1,17.1,21.2,17.1z"/>
		</g>
		<g>
			<path fill="#B3B3B3" d="M21.1,16.7C21.2,16.7,21.2,16.8,21.1,16.7l0.1,0.2c0,0,0,0.1-0.1,0.1c0,0-0.1,0-0.1-0.1L21.1,16.7
				C21.1,16.8,21.1,16.7,21.1,16.7z"/>
		</g>
		<g>
			<path fill="#B3B3B3" d="M21.1,16.3C21.2,16.3,21.2,16.4,21.1,16.3l0.1,0.2c0,0,0,0.1-0.1,0.1c0,0-0.1,0-0.1-0.1L21.1,16.3
				C21.1,16.4,21.1,16.3,21.1,16.3z"/>
		</g>
		<g>
			<path fill="#B3B3B3" d="M21.1,15.9C21.1,15.9,21.2,16,21.1,15.9l0.1,0.2c0,0,0,0.1-0.1,0.1c0,0-0.1,0-0.1-0.1L21.1,15.9
				C21,16,21.1,15.9,21.1,15.9z"/>
		</g>
		<g>
			<path fill="#B3B3B3" d="M21.1,15.5C21.1,15.5,21.1,15.6,21.1,15.5l0.1,0.2c0,0,0,0.1-0.1,0.1c0,0-0.1,0-0.1-0.1L21.1,15.5
				C21,15.6,21,15.5,21.1,15.5z"/>
		</g>
		<g>
			<path fill="#B3B3B3" d="M21,15.1C21.1,15.1,21.1,15.2,21,15.1l0.1,0.2c0,0,0,0.1-0.1,0.1c0,0-0.1,0-0.1-0.1L21,15.1
				C21,15.2,21,15.1,21,15.1z"/>
		</g>
		<g>
			<path fill="#B3B3B3" d="M21,14.7C21,14.7,21.1,14.8,21,14.7l0.1,0.2c0,0,0,0.1-0.1,0.1c0,0-0.1,0-0.1-0.1L21,14.7
				C21,14.8,21,14.7,21,14.7z"/>
		</g>
		<g>
			<path fill="#B3B3B3" d="M21,14.3C21,14.3,21,14.4,21,14.3l0.1,0.2c0,0,0,0.1-0.1,0.1c0,0-0.1,0-0.1-0.1L21,14.3
				C20.9,14.4,20.9,14.3,21,14.3z"/>
		</g>
		<g>
			<path fill="#B3B3B3" d="M20.9,13.9C21,13.9,21,14,20.9,13.9l0.1,0.2c0,0,0,0.1-0.1,0.1c0,0-0.1,0-0.1-0.1L20.9,13.9
				C20.9,14,20.9,14,20.9,13.9z"/>
		</g>
		<g>
			<path fill="#B3B3B3" d="M20.9,13.5C20.9,13.5,20.9,13.6,20.9,13.5l0.1,0.2c0,0,0,0.1,0,0.1c0,0-0.1,0-0.1-0.1L20.9,13.5
				C20.8,13.6,20.8,13.6,20.9,13.5z"/>
		</g>
		<g>
			<path fill="#B3B3B3" d="M20.8,13.2C20.8,13.1,20.9,13.2,20.8,13.2l0.1,0.2c0,0,0,0.1,0,0.1c0,0-0.1,0-0.1-0.1L20.8,13.2
				C20.8,13.2,20.8,13.2,20.8,13.2z"/>
		</g>
		<g>
			<path fill="#B3B3B3" d="M20.8,12.8C20.8,12.8,20.8,12.8,20.8,12.8l0.1,0.2c0,0,0,0.1,0,0.1c0,0-0.1,0-0.1-0.1L20.8,12.8
				C20.7,12.8,20.7,12.8,20.8,12.8z"/>
		</g>
		<g>
			<path fill="#B3B3B3" d="M20.7,12.4C20.7,12.4,20.8,12.4,20.7,12.4l0.1,0.2c0,0,0,0.1,0,0.1c0,0-0.1,0-0.1-0.1L20.7,12.4
				C20.6,12.4,20.7,12.4,20.7,12.4z"/>
		</g>
		<g>
			<path fill="#B3B3B3" d="M20.6,12C20.7,12,20.7,12,20.6,12l0.1,0.2c0,0,0,0.1,0,0.1c0,0-0.1,0-0.1-0.1L20.6,12
				C20.6,12,20.6,12,20.6,12z"/>
		</g>
		<g>
			<path fill="#B3B3B3" d="M20.5,11.6C20.6,11.6,20.6,11.6,20.5,11.6l0.1,0.2c0,0,0,0.1,0,0.1c0,0-0.1,0-0.1-0.1L20.5,11.6
				C20.5,11.6,20.5,11.6,20.5,11.6z"/>
		</g>
		<g>
			<path fill="#B3B3B3" d="M20.5,11.2C20.5,11.2,20.5,11.2,20.5,11.2l0.1,0.2c0,0,0,0.1,0,0.1c0,0-0.1,0-0.1-0.1L20.5,11.2
				C20.4,11.2,20.4,11.2,20.5,11.2z"/>
		</g>
		<g>
			<path fill="#B3B3B3" d="M20.4,10.8C20.4,10.8,20.4,10.8,20.4,10.8l0.1,0.2c0,0,0,0.1,0,0.1c0,0-0.1,0-0.1,0L20.4,10.8
				C20.3,10.8,20.3,10.8,20.4,10.8z"/>
		</g>
		<g>
			<path fill="#B3B3B3" d="M20.3,10.4C20.3,10.4,20.3,10.4,20.3,10.4l0.1,0.2c0,0,0,0.1,0,0.1c0,0-0.1,0-0.1,0L20.3,10.4
				C20.2,10.5,20.3,10.4,20.3,10.4z"/>
		</g>
		<g>
			<path fill="#B3B3B3" d="M20.2,10C20.2,10,20.2,10,20.2,10l0.1,0.2c0,0,0,0.1,0,0.1c0,0-0.1,0-0.1,0L20.2,10
				C20.1,10.1,20.2,10,20.2,10z"/>
		</g>
		<g>
			<path fill="#B3B3B3" d="M20.1,9.6C20.1,9.6,20.1,9.7,20.1,9.6l0.1,0.2c0,0,0,0.1,0,0.1c0,0-0.1,0-0.1,0L20.1,9.6
				C20,9.7,20,9.6,20.1,9.6z"/>
		</g>
		<g>
			<path fill="#B3B3B3" d="M20,9.3C20,9.2,20,9.3,20,9.3l0.1,0.2c0,0,0,0.1,0,0.1c0,0-0.1,0-0.1,0L20,9.3C19.9,9.3,19.9,9.3,20,9.3z
				"/>
		</g>
		<g>
			<path fill="#B3B3B3" d="M19.8,8.9C19.9,8.9,19.9,8.9,19.8,8.9L20,9.1c0,0,0,0.1,0,0.1c0,0-0.1,0-0.1,0L19.8,8.9
				C19.8,8.9,19.8,8.9,19.8,8.9z"/>
		</g>
		<g>
			<path fill="#B3B3B3" d="M19.7,8.5C19.7,8.5,19.8,8.5,19.7,8.5l0.1,0.2c0,0,0,0.1,0,0.1c0,0-0.1,0-0.1,0L19.7,8.5
				C19.7,8.5,19.7,8.5,19.7,8.5z"/>
		</g>
		<g>
			<path fill="#B3B3B3" d="M19.6,8.1C19.6,8.1,19.6,8.1,19.6,8.1l0.1,0.2c0,0,0,0.1,0,0.1c0,0-0.1,0-0.1,0L19.6,8.1
				C19.5,8.2,19.6,8.1,19.6,8.1z"/>
		</g>
		<g>
			<path fill="#B3B3B3" d="M19.4,7.7C19.5,7.7,19.5,7.8,19.4,7.7l0.1,0.2c0,0,0,0.1,0,0.1c0,0-0.1,0-0.1,0L19.4,7.7
				C19.4,7.8,19.4,7.8,19.4,7.7z"/>
		</g>
		<g>
			<path fill="#B3B3B3" d="M19.3,7.4C19.3,7.4,19.4,7.4,19.3,7.4l0.1,0.2c0,0,0,0.1,0,0.1c0,0-0.1,0-0.1,0L19.3,7.4
				C19.2,7.4,19.3,7.4,19.3,7.4z"/>
		</g>
		<g>
			<path fill="#B3B3B3" d="M19.1,7C19.2,7,19.2,7,19.1,7l0.1,0.2c0,0,0,0.1,0,0.1c0,0-0.1,0-0.1,0L19.1,7C19.1,7.1,19.1,7,19.1,7z"
				/>
		</g>
		<g>
			<path fill="#B3B3B3" d="M19,6.7C19,6.6,19,6.7,19,6.7l0.1,0.2c0,0,0,0.1,0,0.1c0,0-0.1,0-0.1,0L19,6.7C18.9,6.7,18.9,6.7,19,6.7z
				"/>
		</g>
		<g>
			<path fill="#B3B3B3" d="M18.8,6.3C18.8,6.3,18.8,6.3,18.8,6.3l0.1,0.2c0,0,0,0.1,0,0.1c0,0-0.1,0-0.1,0L18.8,6.3
				C18.7,6.3,18.8,6.3,18.8,6.3z"/>
		</g>
		<g>
			<path fill="#B3B3B3" d="M18.6,5.9C18.6,5.9,18.7,5.9,18.6,5.9l0.1,0.2c0,0,0,0.1,0,0.1c0,0-0.1,0-0.1,0L18.6,5.9
				C18.6,6,18.6,6,18.6,5.9z"/>
		</g>
		<g>
			<path fill="#B3B3B3" d="M18.4,5.6C18.4,5.6,18.5,5.6,18.4,5.6l0.2,0.1c0,0,0,0.1,0,0.1c0,0-0.1,0-0.1,0L18.4,5.6
				C18.4,5.6,18.4,5.6,18.4,5.6z"/>
		</g>
		<g>
			<path fill="#B3B3B3" d="M18.2,5.3C18.2,5.2,18.3,5.2,18.2,5.3l0.2,0.1c0,0,0,0.1,0,0.1c0,0-0.1,0-0.1,0L18.2,5.3
				C18.2,5.3,18.2,5.3,18.2,5.3z"/>
		</g>
		<g>
			<path fill="#B3B3B3" d="M18,4.9C18,4.9,18,4.9,18,4.9l0.2,0.1c0,0,0,0.1,0,0.1c0,0-0.1,0-0.1,0L18,4.9C17.9,5,17.9,4.9,18,4.9z"
				/>
		</g>
		<g>
			<path fill="#B3B3B3" d="M17.7,4.6C17.8,4.6,17.8,4.6,17.7,4.6l0.2,0.1c0,0,0,0.1,0,0.1c0,0-0.1,0-0.1,0L17.7,4.6
				C17.7,4.6,17.7,4.6,17.7,4.6z"/>
		</g>
		<g>
			<path fill="#B3B3B3" d="M17.5,4.3C17.5,4.2,17.6,4.3,17.5,4.3l0.2,0.1c0,0,0,0.1,0,0.1c0,0-0.1,0-0.1,0L17.5,4.3
				C17.5,4.3,17.5,4.3,17.5,4.3z"/>
		</g>
		<g>
			<path fill="#B3B3B3" d="M17.3,4C17.3,3.9,17.3,3.9,17.3,4l0.2,0.1c0,0,0,0.1,0,0.1c0,0-0.1,0-0.1,0L17.3,4C17.2,4,17.2,4,17.3,4z
				"/>
		</g>
		<g>
			<path fill="#B3B3B3" d="M17,3.6C17,3.6,17.1,3.6,17,3.6l0.2,0.1c0,0,0,0.1,0,0.1c0,0-0.1,0-0.1,0L17,3.6C17,3.7,17,3.7,17,3.6z"
				/>
		</g>
	</g>
</g>
<g>
	<g>
		<path fill="#FFFFFF" stroke="#F15A24" stroke-width="0.7013" stroke-miterlimit="10" d="M17,3.3c0,0.4-2.8,0.4-2.8,0
			c0-0.4,0.6-0.8,1.4-0.8C16.4,2.5,17,2.8,17,3.3z"/>
	</g>
</g>
</svg>
