<?xml version="1.0" encoding="utf-8"?>
<!-- Generator: Adobe Illustrator 18.0.0, SVG Export Plug-In . SVG Version: 6.00 Build 0)  -->
<!DOCTYPE svg PUBLIC "-//W3C//DTD SVG 1.1//EN" "http://www.w3.org/Graphics/SVG/1.1/DTD/svg11.dtd">
<svg version="1.1" id="Layer_1" xmlns="http://www.w3.org/2000/svg" xmlns:xlink="http://www.w3.org/1999/xlink" x="0px" y="0px"
	 viewBox="0 0 160.9 100.9" enable-background="new 0 0 160.9 100.9" xml:space="preserve">
<path fill="none" stroke="#F15A24" stroke-miterlimit="10" d="M81.3,76.6c0.8,0.4,1.6,0.9,2.6,1.4c7.7,4.2,21.1,11.1,27.7,14
	c7.2,3.2,12.8,5.8,18.3,7.2c0.4,0.1,0.7,0.2,1.1,0.3c0.3,0.1,0.5,0.1,0.8,0.2c0.8,0.2,1.5,0.3,2.3,0.4c0.7,0.1,1.5,0.2,2.2,0.2
	c8.6,0.3,16.7-4.1,21-8.2c1.8-1.7,2.9-3.4,3.2-4.7c0.2-0.8,0.1-1.4-0.4-1.9c-0.3-0.2-0.6-0.3-0.9-0.5c-0.4-0.2-0.8-0.4-1.3-0.6
	c-6.3-3.2-11.8-5.8-18.4-9.2c-5.2-2.7-10.5-5.4-15.8-8.1c-0.7-0.3-1.3-0.7-2-1c-1.3,0.6-2.4,1.2-3.6,1.8c-2,1.1-4.2,2.1-7.5,3.1
	c-8,2.3-18.1,4.3-25.6,5.3c-0.6,0.1-1.2,0.2-1.8,0.2C82.4,76.5,81.8,76.6,81.3,76.6z"/>
<g>
	<path fill="none" stroke="#F15A24" stroke-width="0.7013" stroke-miterlimit="10" d="M159.9,85.5c-0.3-0.2-0.6-0.3-0.9-0.5
		c-0.4-0.2-0.8-0.4-1.3-0.6c-6.3-3.2-11.8-5.8-18.4-9.2c-5.2-2.7-10.5-5.4-15.8-8.1c-0.7-0.3-1.3-0.7-2-1c-1.3,0.6-2.4,1.2-3.6,1.8
		c-2,1.1-4.2,2.1-7.5,3.1c-8,2.3-18.1,4.3-25.6,5.3c-0.6,0.1-1.2,0.2-1.8,0.2c-0.6,0.1-1.2,0.1-1.8,0.1c0.8,0.4,1.6,0.9,2.6,1.4
		c7.7,4.2,21.1,11.1,27.7,14c7.2,3.2,12.8,5.8,18.3,7.2c0.4,0.1,0.7,0.2,1.1,0.3c0.3,0.1,0.5,0.1,0.8,0.2c0.8,0.2,1.5,0.3,2.3,0.4
		c0.7,0.1,1.5,0.2,2.2,0.2c8.6,0.3,16.7-4.1,21-8.2c1.8-1.7,2.9-3.4,3.2-4.7C160.5,86.6,160.4,86,159.9,85.5z"/>
</g>
<path fill="none" stroke="#F15A24" stroke-miterlimit="10" d="M3.9,61.7c0,2.6,0.7,4.3-0.8,4c-1.5-0.3-1.7-2-1.5-5.1
	c0.2-2.6,1-4.1,2.5-3.8C4.1,57.5,3.9,59.2,3.9,61.7z"/>
<g>
	<path fill="none" stroke="#F15A24" stroke-width="0.7013" stroke-miterlimit="10" d="M3.7,72.2c2.8,1.1,11.5,2.6,14.2,3
		c5,0.7,12.9,1.5,16,1.6c0.8,0,1.6,0.1,2.7,0.2c0-0.3,0.3-3.1,0.3-3.4c0.2-4.6,0.1-12,0.7-20.4c0.5-6,1.4-12.5,3.1-19.1
		c2.5-9.4,7.5-18.6,14.5-26.4c1.1-1.2,2.2-2.4,3.5-3.5c-0.7,0-1.4,0-2.1,0c-4.3,0-7.8,0.6-10.2,1c-4.1,0.7-7.8,1.3-13.7,4.2
		c-1.3,0.7-2.6,1.3-3.8,2.1C21.5,16,16.1,22,12.4,28.7c-4.1,7.4-6.3,13.6-7.4,19.2C3.5,55.7,4,62.3,3.7,69.3
		C3.7,69.8,3.7,71.6,3.7,72.2z"/>
	<g>
		<defs>
			<path id="SVGID_1_" d="M58.1,3.9C49.7,9.6,41.6,24.8,39,34.6c-1.8,6.8-2.8,14.7-3.2,19.6c-0.8,10-0.5,15.3-0.6,19.7
				c0,1.2,0.6,3,1.4,3c0-0.3,0.3-3.1,0.3-3.4c0.2-4.6,0.1-12,0.7-20.4c0.5-6,1.4-12.5,3.1-19.1c2.5-9.4,7.5-18.6,14.5-26.4
				c1.1-1.2,2.2-2.4,3.5-3.5C58.1,4.1,58.7,3.6,58.1,3.9z"/>
		</defs>
		<clipPath id="SVGID_2_">
			<use xlink:href="#SVGID_1_"  overflow="visible"/>
		</clipPath>
		<path clip-path="url(#SVGID_2_)" fill="none" stroke="#F15A24" stroke-miterlimit="10" d="M3.7,72.2c2.8,1.1,11.5,2.6,14.2,3
			c5,0.7,12.9,1.5,16,1.6c0.8,0,1.6,0.1,2.7,0.2c0-0.3,0.3-3.1,0.3-3.4c0.2-4.6,0.1-12,0.7-20.4c0.5-6,1.4-12.5,3.1-19.1
			c2.5-9.4,7.5-18.6,14.5-26.4c1.1-1.2,2.2-2.4,3.5-3.5c-0.7,0-1.4,0-2.1,0c-4.3,0-7.8,0.6-10.2,1c-4.1,0.7-7.8,1.3-13.7,4.2
			c-1.3,0.7-2.6,1.3-3.8,2.1C21.5,16,16.1,22,12.4,28.7c-4.1,7.4-6.3,13.6-7.4,19.2C3.5,55.7,4,62.3,3.7,69.3
			C3.7,69.8,3.7,71.6,3.7,72.2z"/>
		<use xlink:href="#SVGID_1_"  overflow="visible" fill="none" stroke="#F15A24" stroke-miterlimit="10"/>
	</g>
	<path fill="none" stroke="#F15A24" stroke-width="0.7013" stroke-miterlimit="10" d="M36,76.9c0.7,0,1.3,0.1,2,0.1
		c0.8,0,1.1,0.1,1.9,0.1c7.8,0.3,11.8,0.4,17.9,0.3c10.3-0.1,17.9-0.3,26.1-1.1c1-0.1,1.4-0.1,2.2-0.2c0.1-0.9,0.3-1.5,0.4-2.4
		C87.8,62,86,49.7,83.8,37c-1.6-9.2-6.2-21.9-13.2-29.2c-1.5-1.6-3.1-2.9-4.7-3.9C65.8,4,64.4,4,64.3,4c-1.8-0.1-5.7,0.1-5.8,0
		C58.3,4,58.2,4,58,3.9c-1.5,1.3-2.9,2.7-4.3,4.1c-6.2,6.9-10.4,15.4-13.3,24.5c-4,12.5-4.4,29-4.4,41C36.1,74.4,36.1,76.1,36,76.9z
		"/>
	<path fill="none" stroke="#F15A24" stroke-width="0.7013" stroke-miterlimit="10" d="M85.9,76.1c1.1,0,1.7-0.1,2.5-0.2
		c6-0.6,9.7-1.1,16.3-2.6c4.1-0.9,8.1-2.2,11.7-4c1.9-0.9,3.7-2,5.3-3.3c-0.1-0.7-0.2-1.3-0.3-2c-1.6-9.3-4.9-21.3-8.6-28.7
		c-5-10.2-17.1-24.6-36.7-30.2c-2.7-0.8-5.3-1.4-7.9-1.3c-0.5,0-0.8,0-1.2,0c-0.6,0-0.9-0.1-1.1-0.1c-0.3-0.1-0.2,0-1,0.1
		c-0.2,0-0.3,0-0.6,0.1c1.7,0.8,3.3,2,4.9,3.5c8.3,8.1,13.3,24.5,14.5,32.3c1.6,10.3,3.2,23.9,2.4,34.1C86,74.5,86,75.4,85.9,76.1z"
		/>
	<g>
		
			<ellipse transform="matrix(0.9987 -5.093655e-002 5.093655e-002 0.9987 -0.7619 3.1289)" fill="none" stroke="#F15A24" stroke-miterlimit="10" cx="61" cy="16.5" rx="2.3" ry="1.9"/>
		<path fill="none" stroke="#F15A24" stroke-miterlimit="10" d="M63.3,16.2C63.3,16.2,63.3,16.1,63.3,16.2c0-0.1,0-0.2,0-0.2
			c0,0,0-0.1,0-0.1c0,0,0-0.1,0-0.1c0,0,0,0,0-0.1c0,0,0-0.1,0-0.1c0,0,0,0,0-0.1c0,0,0-0.1-0.1-0.1c0,0,0-0.1-0.1-0.1
			c0,0,0,0-0.1-0.1c0,0-0.1-0.1-0.1-0.1c0,0,0,0,0,0c0,0-0.1-0.1-0.1-0.1c0,0,0,0,0,0c0,0,0,0,0,0c0.3,0.3,0.4,0.7,0.5,1.1
			c0.1,1.1-0.9,2-2.1,2c-1.2,0.1-2.1-0.7-2.3-1.7c0,0,0,0.1,0,0.1c0.1,1.1,1.1,1.9,2.4,1.8c1.3-0.1,2.3-1,2.2-2
			C63.3,16.3,63.3,16.3,63.3,16.2z"/>
		
			<ellipse transform="matrix(-5.051814e-002 -0.9987 0.9987 -5.051814e-002 47.9311 77.6538)" fill="none" stroke="#F15A24" stroke-miterlimit="10" cx="60.9" cy="16" rx="0.9" ry="1.1"/>
		
			<ellipse transform="matrix(0.9987 -5.068288e-002 5.068288e-002 0.9987 -0.7281 3.1109)" fill="none" stroke="#F15A24" stroke-miterlimit="10" cx="61" cy="15.9" rx="1" ry="0.8"/>
		<path fill="none" stroke="#F15A24" stroke-miterlimit="10" d="M61.9,15.9c-0.7,0.4-1.5-0.3-1.9,0.1c0-0.4,0.4-0.8,0.9-0.8
			C61.5,15.1,61.9,15.4,61.9,15.9z"/>
	</g>
	<path fill="none" stroke="#F15A24" stroke-miterlimit="10" d="M40,11.9c-0.8-0.8-1.7-0.8-2.6-0.2c-0.9,0.6-1.9,1.8-1.7,2.9
		c0.2,1,1.2,1.3,2,1.1c0.8-0.2,1.6-0.9,2-1.6c0.5-0.7,0.4-1.5,0.2-2.3L40,11.9z"/>
	<g>
		
			<ellipse transform="matrix(0.7496 -0.6619 0.6619 0.7496 0.83 28.4878)" fill="none" stroke="#F15A24" stroke-miterlimit="10" cx="38.1" cy="13.1" rx="2.3" ry="1.5"/>
		<path fill="none" stroke="#F15A24" stroke-miterlimit="10" d="M39.8,11.6c0,0-0.1-0.1-0.1-0.1c0,0,0,0-0.1,0c0,0,0,0-0.1,0
			c0,0-0.1,0-0.1,0c0,0,0,0-0.1,0c0,0-0.1,0-0.1,0c0,0,0,0-0.1,0c0,0-0.1,0-0.1,0c0,0,0,0-0.1,0c0,0-0.1,0-0.1,0c0,0-0.1,0-0.1,0
			c0,0-0.1,0-0.1,0c0,0,0,0-0.1,0c0,0-0.1,0-0.1,0c0,0,0,0,0,0c0,0,0,0,0,0c0.4,0,0.7,0.1,0.9,0.4c0.6,0.6,0.3,1.8-0.6,2.6
			c-0.9,0.8-2,0.9-2.6,0.4c0,0,0,0,0.1,0.1c0.6,0.6,1.8,0.4,2.8-0.4C40,13.4,40.4,12.2,39.8,11.6z"/>
		
			<ellipse transform="matrix(-0.662 -0.7495 0.7495 -0.662 53.025 49.7839)" fill="none" stroke="#F15A24" stroke-miterlimit="10" cx="37.7" cy="12.9" rx="0.7" ry="1.1"/>
		
			<ellipse transform="matrix(0.7494 -0.6621 0.6621 0.7494 0.9913 28.2012)" fill="none" stroke="#F15A24" stroke-miterlimit="10" cx="37.8" cy="12.8" rx="1" ry="0.6"/>
		<path fill="none" stroke="#F15A24" stroke-miterlimit="10" d="M38.5,12.2c-0.4,0.7-1.3,0.8-1.4,1.3c-0.2-0.3-0.1-0.8,0.3-1.1
			C37.7,12,38.2,11.9,38.5,12.2z"/>
	</g>
	<path fill="none" stroke="#F15A24" stroke-miterlimit="10" d="M83.6,11.6c-0.4,0.3-0.5,0.7-0.5,1.2c0.1,0.5,0.7,2.5,3.4,2.4
		c0.8,0,1.4-0.8,1.2-1.7C86.9,10.9,83.6,11.6,83.6,11.6z"/>
	<g>
		
			<ellipse transform="matrix(-0.7654 -0.6436 0.6436 -0.7654 141.6633 77.9394)" fill="none" stroke="#F15A24" stroke-miterlimit="10" cx="85" cy="13.1" rx="2.3" ry="1.5"/>
		<path fill="none" stroke="#F15A24" stroke-miterlimit="10" d="M84.3,14.3c-0.9-0.8-1.2-1.9-0.7-2.6c0.2-0.3,0.5-0.4,0.9-0.4
			c0,0,0,0,0,0c0,0,0,0,0,0c0,0-0.1,0-0.2,0c0,0,0,0-0.1,0c0,0-0.1,0-0.1,0c0,0,0,0-0.1,0c0,0-0.1,0-0.1,0c0,0-0.1,0-0.1,0
			c0,0-0.1,0-0.1,0c0,0,0,0-0.1,0c0,0-0.1,0-0.1,0c0,0,0,0-0.1,0c0,0-0.1,0-0.1,0c0,0,0,0,0,0c0,0-0.1,0-0.1,0.1
			c0,0-0.1,0.1-0.1,0.1c-0.5,0.6-0.2,1.8,0.8,2.7c1,0.8,2.2,1,2.8,0.3c0,0,0,0,0.1-0.1C86.3,15.1,85.2,15,84.3,14.3z"/>
		
			<ellipse transform="matrix(0.6443 -0.7648 0.7648 0.6443 20.4798 69.8833)" fill="none" stroke="#F15A24" stroke-miterlimit="10" cx="85.4" cy="12.9" rx="0.7" ry="1.1"/>
		
			<ellipse transform="matrix(-0.7656 -0.6433 0.6433 -0.7656 142.4631 77.4705)" fill="none" stroke="#F15A24" stroke-miterlimit="10" cx="85.3" cy="12.8" rx="1" ry="0.6"/>
		<path fill="none" stroke="#F15A24" stroke-miterlimit="10" d="M84.6,12.2c0.4,0.7,1.3,0.7,1.5,1.2c0.2-0.3,0.1-0.8-0.3-1.1
			C85.3,12,84.8,11.9,84.6,12.2z"/>
	</g>
</g>
<g>
	<g>
		<path fill="none" stroke="#F15A24" stroke-miterlimit="10" d="M5.5,71.1c0,0.1-0.2,0.2-0.3,0.2l-0.6-0.1c-0.1,0-0.3-0.1-0.2-0.3
			c0-0.1,0.2-0.2,0.3-0.2l0.6,0.1C5.4,70.9,5.5,71,5.5,71.1z"/>
	</g>
	<g>
		<path fill="none" stroke="#F15A24" stroke-miterlimit="10" d="M7.2,71.4c0,0.1-0.2,0.2-0.3,0.2l-0.6-0.1c-0.1,0-0.3-0.1-0.2-0.3
			c0-0.1,0.2-0.2,0.3-0.2L7,71.1C7.1,71.1,7.2,71.2,7.2,71.4z"/>
	</g>
	<g>
		<path fill="none" stroke="#F15A24" stroke-miterlimit="10" d="M8.9,71.6c0,0.1-0.2,0.2-0.3,0.2L8,71.7c-0.1,0-0.3-0.1-0.2-0.3
			c0-0.1,0.2-0.2,0.3-0.2l0.6,0.1C8.8,71.4,8.9,71.5,8.9,71.6z"/>
	</g>
	<g>
		<path fill="none" stroke="#F15A24" stroke-miterlimit="10" d="M10.6,71.8c0,0.1-0.2,0.2-0.3,0.2L9.7,72c-0.1,0-0.3-0.1-0.2-0.3
			c0-0.1,0.2-0.2,0.3-0.2l0.6,0.1C10.5,71.6,10.6,71.7,10.6,71.8z"/>
	</g>
	<g>
		<path fill="none" stroke="#F15A24" stroke-miterlimit="10" d="M12.3,72.1c0,0.1-0.2,0.2-0.3,0.2l-0.6-0.1c-0.1,0-0.3-0.1-0.2-0.3
			c0-0.1,0.2-0.2,0.3-0.2l0.6,0.1C12.2,71.8,12.4,71.9,12.3,72.1z"/>
	</g>
	<g>
		<path fill="none" stroke="#F15A24" stroke-miterlimit="10" d="M14,72.3c0,0.1-0.2,0.2-0.3,0.2l-0.6-0.1c-0.1,0-0.3-0.1-0.2-0.3
			c0-0.1,0.2-0.2,0.3-0.2l0.6,0.1C14,72,14.1,72.2,14,72.3z"/>
	</g>
	<g>
		<path fill="none" stroke="#F15A24" stroke-miterlimit="10" d="M15.8,72.5c0,0.1-0.2,0.2-0.3,0.2l-0.6-0.1c-0.2,0-0.3-0.1-0.2-0.3
			c0-0.1,0.2-0.2,0.3-0.2l0.6,0.1C15.7,72.2,15.8,72.4,15.8,72.5z"/>
	</g>
	<g>
		<path fill="none" stroke="#F15A24" stroke-miterlimit="10" d="M17.5,72.7c0,0.1-0.2,0.2-0.3,0.2l-0.6-0.1c-0.1,0-0.3-0.1-0.2-0.3
			c0-0.1,0.2-0.2,0.3-0.2l0.6,0.1C17.4,72.5,17.5,72.6,17.5,72.7z"/>
	</g>
	<g>
		<path fill="none" stroke="#F15A24" stroke-miterlimit="10" d="M19.2,72.9c0,0.1-0.2,0.2-0.3,0.2l-0.6-0.1c-0.1,0-0.3-0.1-0.2-0.3
			c0-0.1,0.2-0.2,0.3-0.2l0.6,0.1C19.1,72.7,19.2,72.8,19.2,72.9z"/>
	</g>
	<g>
		<path fill="none" stroke="#F15A24" stroke-miterlimit="10" d="M20.9,73.1c0,0.1-0.1,0.2-0.3,0.2L20,73.3c-0.1,0-0.3-0.1-0.2-0.3
			c0-0.1,0.2-0.2,0.3-0.2l0.6,0.1C20.8,72.9,20.9,73,20.9,73.1z"/>
	</g>
	<g>
		<path fill="none" stroke="#F15A24" stroke-miterlimit="10" d="M22.6,73.3c0,0.1-0.1,0.2-0.3,0.2l-0.6-0.1c-0.1,0-0.3-0.1-0.2-0.3
			c0-0.1,0.1-0.2,0.3-0.2l0.6,0.1C22.5,73,22.6,73.2,22.6,73.3z"/>
	</g>
	<g>
		<path fill="none" stroke="#F15A24" stroke-miterlimit="10" d="M24.3,73.5c0,0.1-0.1,0.2-0.3,0.2l-0.6-0.1c-0.1,0-0.3-0.1-0.2-0.3
			c0-0.1,0.1-0.2,0.3-0.2l0.6,0.1C24.2,73.2,24.3,73.3,24.3,73.5z"/>
	</g>
	<g>
		<path fill="none" stroke="#F15A24" stroke-miterlimit="10" d="M26,73.7c0,0.1-0.1,0.2-0.3,0.2l-0.6-0.1c-0.1,0-0.3-0.1-0.2-0.3
			c0-0.1,0.1-0.2,0.3-0.2l0.6,0.1C25.9,73.4,26,73.5,26,73.7z"/>
	</g>
	<g>
		<path fill="none" stroke="#F15A24" stroke-miterlimit="10" d="M27.7,73.8c0,0.1-0.1,0.2-0.3,0.2L26.8,74c-0.2,0-0.3-0.1-0.2-0.3
			c0-0.1,0.1-0.2,0.3-0.2l0.6,0.1C27.6,73.6,27.8,73.7,27.7,73.8z"/>
	</g>
	<g>
		<path fill="none" stroke="#F15A24" stroke-miterlimit="10" d="M29.5,74c0,0.1-0.1,0.2-0.3,0.2l-0.6-0.1c-0.1,0-0.3-0.1-0.2-0.3
			c0-0.1,0.1-0.2,0.3-0.2l0.6,0.1C29.4,73.7,29.5,73.9,29.5,74z"/>
	</g>
	<g>
		<path fill="none" stroke="#F15A24" stroke-miterlimit="10" d="M31.2,74.1c0,0.1-0.1,0.2-0.3,0.2l-0.6-0.1c-0.1,0-0.3-0.1-0.2-0.3
			c0-0.1,0.1-0.2,0.3-0.2l0.6,0.1C31.1,73.9,31.2,74,31.2,74.1z"/>
	</g>
	<g>
		<path fill="none" stroke="#F15A24" stroke-miterlimit="10" d="M32.9,74.3c0,0.1-0.1,0.2-0.3,0.2L32,74.5c-0.1,0-0.3-0.1-0.3-0.3
			c0-0.1,0.1-0.2,0.3-0.2l0.6,0.1C32.8,74,32.9,74.1,32.9,74.3z"/>
	</g>
	<g>
		<path fill="none" stroke="#F15A24" stroke-miterlimit="10" d="M34.6,74.4c0,0.1-0.1,0.2-0.3,0.2l-0.6,0c-0.1,0-0.3-0.1-0.3-0.3
			c0-0.1,0.1-0.2,0.3-0.2l0.6,0C34.5,74.2,34.6,74.3,34.6,74.4z"/>
	</g>
	<g>
		<path fill="none" stroke="#F15A24" stroke-miterlimit="10" d="M36.3,74.6c0,0.1-0.1,0.2-0.3,0.2l-0.6,0c-0.2,0-0.3-0.1-0.3-0.3
			c0-0.1,0.1-0.2,0.3-0.2l0.6,0C36.2,74.3,36.3,74.4,36.3,74.6z"/>
	</g>
	<g>
		<path fill="none" stroke="#F15A24" stroke-miterlimit="10" d="M38,74.7c0,0.1-0.1,0.2-0.3,0.2l-0.6,0c-0.2,0-0.3-0.1-0.3-0.3
			c0-0.1,0.1-0.2,0.3-0.2l0.6,0C37.9,74.4,38.1,74.5,38,74.7z"/>
	</g>
	<g>
		<path fill="none" stroke="#F15A24" stroke-miterlimit="10" d="M39.8,74.8c0,0.1-0.1,0.2-0.3,0.2l-0.6,0c-0.1,0-0.3-0.1-0.3-0.3
			c0-0.1,0.1-0.2,0.3-0.2l0.6,0C39.7,74.5,39.8,74.7,39.8,74.8z"/>
	</g>
	<g>
		<path fill="none" stroke="#F15A24" stroke-miterlimit="10" d="M41.5,74.9c0,0.1-0.1,0.2-0.3,0.2l-0.6,0c-0.1,0-0.3-0.1-0.3-0.3
			c0-0.1,0.1-0.2,0.3-0.2l0.6,0C41.4,74.6,41.5,74.8,41.5,74.9z"/>
	</g>
	<g>
		<path fill="none" stroke="#F15A24" stroke-miterlimit="10" d="M43.2,75c0,0.1-0.1,0.2-0.3,0.2l-0.6,0c-0.2,0-0.3-0.1-0.3-0.3
			c0-0.1,0.1-0.2,0.3-0.2l0.6,0C43.1,74.7,43.2,74.9,43.2,75z"/>
	</g>
	<g>
		<path fill="none" stroke="#F15A24" stroke-miterlimit="10" d="M44.9,75.1c0,0.1-0.1,0.2-0.3,0.2l-0.6,0c-0.2,0-0.3-0.1-0.3-0.3
			c0-0.1,0.1-0.2,0.3-0.2l0.6,0C44.8,74.8,44.9,75,44.9,75.1z"/>
	</g>
	<g>
		<path fill="none" stroke="#F15A24" stroke-miterlimit="10" d="M46.6,75.2c0,0.1-0.1,0.2-0.3,0.2l-0.6,0c-0.2,0-0.3-0.1-0.3-0.3
			c0-0.1,0.1-0.2,0.3-0.2l0.6,0C46.5,74.9,46.7,75,46.6,75.2z"/>
	</g>
	<g>
		<path fill="none" stroke="#F15A24" stroke-miterlimit="10" d="M48.4,75.2c0,0.1-0.1,0.2-0.3,0.2l-0.6,0c-0.2,0-0.3-0.1-0.3-0.3
			c0-0.1,0.1-0.2,0.3-0.2l0.6,0C48.3,75,48.4,75.1,48.4,75.2z"/>
	</g>
	<g>
		<path fill="none" stroke="#F15A24" stroke-miterlimit="10" d="M50.1,75.3c0,0.1-0.1,0.2-0.3,0.2l-0.6,0c-0.2,0-0.3-0.1-0.3-0.3
			c0-0.1,0.1-0.2,0.3-0.2l0.6,0C50,75.1,50.1,75.2,50.1,75.3z"/>
	</g>
	<g>
		<path fill="none" stroke="#F15A24" stroke-miterlimit="10" d="M51.8,75.4c0,0.1-0.1,0.2-0.3,0.2l-0.6,0c-0.1,0-0.3-0.1-0.3-0.3
			c0-0.1,0.1-0.2,0.3-0.2l0.6,0C51.7,75.1,51.8,75.2,51.8,75.4z"/>
	</g>
	<g>
		<path fill="none" stroke="#F15A24" stroke-miterlimit="10" d="M53.5,75.4c0,0.1-0.1,0.2-0.3,0.2l-0.6,0c-0.2,0-0.3-0.1-0.3-0.3
			c0-0.1,0.1-0.2,0.3-0.2l0.6,0C53.4,75.1,53.5,75.3,53.5,75.4z"/>
	</g>
	<g>
		<path fill="none" stroke="#F15A24" stroke-miterlimit="10" d="M55.3,75.4c0,0.1-0.1,0.2-0.3,0.2l-0.6,0c-0.2,0-0.3-0.1-0.3-0.3
			c0-0.1,0.1-0.2,0.3-0.2l0.6,0C55.1,75.2,55.3,75.3,55.3,75.4z"/>
	</g>
	<g>
		<path fill="none" stroke="#F15A24" stroke-miterlimit="10" d="M57,75.5c0,0.1-0.1,0.2-0.3,0.2l-0.6,0c-0.2,0-0.3-0.1-0.3-0.3
			c0-0.1,0.1-0.2,0.3-0.2l0.6,0C56.9,75.2,57,75.3,57,75.5z"/>
	</g>
	<g>
		<path fill="none" stroke="#F15A24" stroke-miterlimit="10" d="M58.7,75.5c0,0.1-0.1,0.2-0.3,0.2l-0.6,0c-0.2,0-0.3-0.1-0.3-0.3
			c0-0.1,0.1-0.2,0.3-0.2l0.6,0C58.6,75.2,58.7,75.3,58.7,75.5z"/>
	</g>
	<g>
		<path fill="none" stroke="#F15A24" stroke-miterlimit="10" d="M60.4,75.5c0,0.1-0.1,0.2-0.3,0.2l-0.6,0c-0.1,0-0.3-0.1-0.3-0.2
			c0-0.1,0.1-0.2,0.3-0.2h0.6C60.3,75.2,60.4,75.3,60.4,75.5z"/>
	</g>
	<g>
		<path fill="none" stroke="#F15A24" stroke-miterlimit="10" d="M62.2,75.5c0,0.1-0.1,0.2-0.3,0.3l-0.6,0c-0.2,0-0.3-0.1-0.3-0.2
			c0-0.1,0.1-0.2,0.3-0.2l0.6,0C62,75.2,62.2,75.3,62.2,75.5z"/>
	</g>
	<g>
		<path fill="none" stroke="#F15A24" stroke-miterlimit="10" d="M63.9,75.4c0,0.1-0.1,0.2-0.3,0.3l-0.6,0c-0.2,0-0.3-0.1-0.3-0.2
			c0-0.1,0.1-0.2,0.3-0.3l0.6,0C63.8,75.2,63.9,75.3,63.9,75.4z"/>
	</g>
	<g>
		<path fill="none" stroke="#F15A24" stroke-miterlimit="10" d="M65.6,75.4c0,0.1-0.1,0.3-0.3,0.3l-0.6,0c-0.2,0-0.3-0.1-0.3-0.2
			c0-0.1,0.1-0.2,0.3-0.3l0.6,0C65.5,75.2,65.6,75.3,65.6,75.4z"/>
	</g>
	<g>
		<path fill="none" stroke="#F15A24" stroke-miterlimit="10" d="M67.3,75.4c0,0.1-0.1,0.3-0.3,0.3l-0.6,0c-0.2,0-0.3-0.1-0.3-0.2
			c0-0.1,0.1-0.3,0.3-0.3l0.6,0C67.2,75.1,67.3,75.2,67.3,75.4z"/>
	</g>
	<g>
		<path fill="none" stroke="#F15A24" stroke-miterlimit="10" d="M69,75.3c0,0.1-0.1,0.3-0.3,0.3l-0.6,0c-0.2,0-0.3-0.1-0.3-0.2
			c0-0.1,0.1-0.3,0.3-0.3l0.6,0C68.9,75.1,69,75.2,69,75.3z"/>
	</g>
	<g>
		<path fill="none" stroke="#F15A24" stroke-miterlimit="10" d="M70.8,75.3c0,0.1-0.1,0.3-0.3,0.3l-0.6,0c-0.2,0-0.3-0.1-0.3-0.2
			c0-0.1,0.1-0.3,0.3-0.3l0.6,0C70.6,75,70.8,75.1,70.8,75.3z"/>
	</g>
	<g>
		<path fill="none" stroke="#F15A24" stroke-miterlimit="10" d="M72.5,75.2c0,0.1-0.1,0.3-0.3,0.3l-0.6,0c-0.2,0-0.3-0.1-0.3-0.2
			c0-0.1,0.1-0.3,0.3-0.3l0.6,0C72.4,74.9,72.5,75,72.5,75.2z"/>
	</g>
	<g>
		<path fill="none" stroke="#F15A24" stroke-miterlimit="10" d="M74.2,75.1c0,0.1-0.1,0.3-0.3,0.3l-0.6,0c-0.2,0-0.3-0.1-0.3-0.2
			c0-0.1,0.1-0.3,0.3-0.3l0.6,0C74.1,74.8,74.2,74.9,74.2,75.1z"/>
	</g>
	<g>
		<path fill="none" stroke="#F15A24" stroke-miterlimit="10" d="M75.9,75c0,0.1-0.1,0.3-0.3,0.3l-0.6,0c-0.1,0-0.3-0.1-0.3-0.2
			c0-0.1,0.1-0.3,0.3-0.3l0.6,0C75.8,74.7,75.9,74.8,75.9,75z"/>
	</g>
	<g>
		<path fill="none" stroke="#F15A24" stroke-miterlimit="10" d="M77.7,74.9c0,0.1-0.1,0.3-0.3,0.3l-0.6,0c-0.2,0-0.3-0.1-0.3-0.2
			c0-0.1,0.1-0.3,0.3-0.3l0.6,0C77.5,74.6,77.6,74.7,77.7,74.9z"/>
	</g>
	<g>
		<path fill="none" stroke="#F15A24" stroke-miterlimit="10" d="M79.4,74.7c0,0.1-0.1,0.3-0.3,0.3l-0.6,0c-0.2,0-0.3-0.1-0.3-0.2
			c0-0.1,0.1-0.3,0.3-0.3l0.6,0C79.2,74.5,79.4,74.6,79.4,74.7z"/>
	</g>
	<g>
		<path fill="none" stroke="#F15A24" stroke-miterlimit="10" d="M81.1,74.6c0,0.1-0.1,0.3-0.3,0.3l-0.6,0.1c-0.1,0-0.3-0.1-0.3-0.2
			c0-0.1,0.1-0.3,0.3-0.3l0.6-0.1C80.9,74.3,81.1,74.4,81.1,74.6z"/>
	</g>
	<g>
		<path fill="none" stroke="#F15A24" stroke-miterlimit="10" d="M82.8,74.4c0,0.1-0.1,0.3-0.2,0.3L82,74.8c-0.1,0-0.3-0.1-0.3-0.2
			c0-0.1,0.1-0.3,0.3-0.3l0.6-0.1C82.7,74.2,82.8,74.3,82.8,74.4z"/>
	</g>
	<g>
		<path fill="none" stroke="#F15A24" stroke-miterlimit="10" d="M84.5,74.2c0,0.1-0.1,0.3-0.2,0.3l-0.6,0.1c-0.1,0-0.3-0.1-0.3-0.2
			c0-0.1,0.1-0.3,0.2-0.3l0.6-0.1C84.4,74,84.5,74.1,84.5,74.2z"/>
	</g>
	<g>
		<path fill="none" stroke="#F15A24" stroke-miterlimit="10" d="M86.2,74.1c0,0.1-0.1,0.3-0.2,0.3l-0.6,0.1c-0.1,0-0.3-0.1-0.3-0.2
			c0-0.1,0.1-0.3,0.2-0.3l0.6-0.1C86.1,73.8,86.2,73.9,86.2,74.1z"/>
	</g>
	<g>
		<path fill="none" stroke="#F15A24" stroke-miterlimit="10" d="M87.9,73.8c0,0.1-0.1,0.3-0.2,0.3l-0.6,0.1c-0.1,0-0.3-0.1-0.3-0.2
			c0-0.1,0.1-0.3,0.2-0.3l0.6-0.1C87.8,73.6,87.9,73.7,87.9,73.8z"/>
	</g>
	<g>
		<path fill="none" stroke="#F15A24" stroke-miterlimit="10" d="M89.6,73.6c0,0.1-0.1,0.3-0.2,0.3L88.8,74c-0.1,0-0.3-0.1-0.3-0.2
			c0-0.1,0.1-0.3,0.2-0.3l0.6-0.1C89.5,73.4,89.6,73.5,89.6,73.6z"/>
	</g>
	<g>
		<path fill="none" stroke="#F15A24" stroke-miterlimit="10" d="M91.4,73.4c0,0.1-0.1,0.3-0.2,0.3l-0.6,0.1c-0.1,0-0.3-0.1-0.3-0.2
			c0-0.1,0.1-0.3,0.2-0.3l0.6-0.1C91.2,73.1,91.3,73.2,91.4,73.4z"/>
	</g>
	<g>
		<path fill="none" stroke="#F15A24" stroke-miterlimit="10" d="M93.1,73.1c0,0.1-0.1,0.3-0.2,0.3l-0.6,0.1c-0.1,0-0.3-0.1-0.3-0.2
			c0-0.1,0.1-0.3,0.2-0.3l0.6-0.1C92.9,72.9,93,73,93.1,73.1z"/>
	</g>
	<g>
		<path fill="none" stroke="#F15A24" stroke-miterlimit="10" d="M94.8,72.8c0,0.1-0.1,0.3-0.2,0.3l-0.6,0.1c-0.1,0-0.3-0.1-0.3-0.2
			c0-0.1,0.1-0.3,0.2-0.3l0.6-0.1C94.6,72.6,94.7,72.7,94.8,72.8z"/>
	</g>
	<g>
		<path fill="none" stroke="#F15A24" stroke-miterlimit="10" d="M96.5,72.5c0,0.1-0.1,0.3-0.2,0.3l-0.6,0.1c-0.1,0-0.3-0.1-0.3-0.2
			c0-0.1,0.1-0.3,0.2-0.3l0.6-0.1C96.3,72.3,96.4,72.4,96.5,72.5z"/>
	</g>
	<g>
		<path fill="none" stroke="#F15A24" stroke-miterlimit="10" d="M98.1,72.2c0,0.1-0.1,0.3-0.2,0.3l-0.6,0.1c-0.1,0-0.3-0.1-0.3-0.2
			c0-0.1,0.1-0.3,0.2-0.3l0.6-0.1C98,72,98.1,72.1,98.1,72.2z"/>
	</g>
	<g>
		<path fill="none" stroke="#F15A24" stroke-miterlimit="10" d="M99.8,71.9c0,0.1-0.1,0.3-0.2,0.3L99,72.3c-0.1,0-0.3-0.1-0.3-0.2
			c0-0.1,0.1-0.3,0.2-0.3l0.6-0.1C99.7,71.6,99.8,71.7,99.8,71.9z"/>
	</g>
	<g>
		<path fill="none" stroke="#F15A24" stroke-miterlimit="10" d="M101.5,71.5c0,0.1-0.1,0.3-0.2,0.3l-0.6,0.1c-0.1,0-0.3-0.1-0.3-0.2
			c0-0.1,0.1-0.3,0.2-0.3l0.6-0.1C101.3,71.3,101.5,71.4,101.5,71.5z"/>
	</g>
	<g>
		<path fill="none" stroke="#F15A24" stroke-miterlimit="10" d="M103.2,71.1c0,0.1-0.1,0.3-0.2,0.3l-0.6,0.1c-0.1,0-0.3,0-0.3-0.2
			c0-0.1,0.1-0.3,0.2-0.3l0.6-0.1C103,70.9,103.2,71,103.2,71.1z"/>
	</g>
	<g>
		<path fill="none" stroke="#F15A24" stroke-miterlimit="10" d="M104.9,70.7c0,0.1-0.1,0.3-0.2,0.3l-0.6,0.1c-0.1,0-0.3,0-0.3-0.2
			c0-0.1,0.1-0.3,0.2-0.3l0.6-0.1C104.7,70.5,104.8,70.6,104.9,70.7z"/>
	</g>
	<g>
		<path fill="none" stroke="#F15A24" stroke-miterlimit="10" d="M106.5,70.3c0,0.1-0.1,0.3-0.2,0.3l-0.6,0.1c-0.1,0-0.3,0-0.3-0.2
			c0-0.1,0.1-0.3,0.2-0.3l0.6-0.1C106.4,70.1,106.5,70.2,106.5,70.3z"/>
	</g>
	<g>
		<path fill="none" stroke="#F15A24" stroke-miterlimit="10" d="M108.2,69.9c0,0.1-0.1,0.3-0.2,0.3l-0.6,0.2c-0.1,0-0.3,0-0.3-0.2
			c0-0.1,0.1-0.3,0.2-0.3l0.6-0.2C108,69.6,108.2,69.7,108.2,69.9z"/>
	</g>
	<g>
		<path fill="none" stroke="#F15A24" stroke-miterlimit="10" d="M109.9,69.4c0,0.1,0,0.3-0.2,0.3l-0.6,0.2c-0.1,0-0.3,0-0.3-0.2
			c0-0.1,0.1-0.3,0.2-0.3l0.6-0.2C109.7,69.2,109.8,69.3,109.9,69.4z"/>
	</g>
	<g>
		<path fill="none" stroke="#F15A24" stroke-miterlimit="10" d="M111.5,68.9c0,0.1,0,0.3-0.2,0.3l-0.6,0.2c-0.1,0-0.3,0-0.3-0.2
			c0-0.1,0-0.3,0.2-0.3l0.6-0.2C111.3,68.7,111.5,68.7,111.5,68.9z"/>
	</g>
	<g>
		<path fill="none" stroke="#F15A24" stroke-miterlimit="10" d="M113.1,68.3c0,0.1,0,0.3-0.2,0.3l-0.6,0.2c-0.1,0.1-0.3,0-0.3-0.1
			c0-0.1,0-0.3,0.2-0.3l0.6-0.2C112.9,68.1,113.1,68.2,113.1,68.3z"/>
	</g>
	<g>
		<path fill="none" stroke="#F15A24" stroke-miterlimit="10" d="M114.7,67.7c0.1,0.1,0,0.3-0.2,0.3c-0.2,0.1-0.4,0.2-0.6,0.2
			c-0.1,0.1-0.3,0-0.3-0.1c0-0.1,0-0.3,0.2-0.3c0.2-0.1,0.4-0.1,0.6-0.2C114.5,67.5,114.7,67.5,114.7,67.7z"/>
	</g>
	<g>
		<path fill="none" stroke="#F15A24" stroke-miterlimit="10" d="M116.3,66.9c0.1,0.1,0,0.3-0.1,0.3c-0.2,0.1-0.4,0.2-0.5,0.3
			c-0.1,0.1-0.3,0-0.4-0.1c-0.1-0.1,0-0.3,0.1-0.3c0.2-0.1,0.4-0.2,0.5-0.3C116.1,66.8,116.2,66.8,116.3,66.9z"/>
	</g>
	<g>
		<path fill="none" stroke="#F15A24" stroke-miterlimit="10" d="M117.8,66.1c0.1,0.1,0,0.3-0.1,0.4c-0.2,0.1-0.3,0.2-0.5,0.3
			c-0.1,0.1-0.3,0-0.4-0.1c-0.1-0.1,0-0.3,0.1-0.3c0.2-0.1,0.3-0.2,0.5-0.3C117.6,65.9,117.7,66,117.8,66.1z"/>
	</g>
	<g>
		<path fill="none" stroke="#F15A24" stroke-miterlimit="10" d="M119.2,65.1c0.1,0.1,0.1,0.3-0.1,0.4c-0.2,0.1-0.3,0.2-0.5,0.4
			c-0.1,0.1-0.3,0.1-0.4-0.1c-0.1-0.1,0-0.3,0.1-0.4c0.2-0.1,0.3-0.2,0.5-0.3C119,65,119.1,65,119.2,65.1z"/>
	</g>
	<g>
		<path fill="none" stroke="#F15A24" stroke-miterlimit="10" d="M120.5,64c0.1,0.1,0.1,0.3,0,0.4c-0.1,0.1-0.3,0.3-0.4,0.4
			c-0.1,0.1-0.3,0.1-0.4,0c-0.1-0.1-0.1-0.3,0-0.4c0.1-0.1,0.3-0.3,0.4-0.4C120.2,63.9,120.4,63.9,120.5,64z"/>
	</g>
</g>
<g>
	<path fill="none" stroke="#F15A24" stroke-miterlimit="10" d="M23.8,68.2c0,2.2-0.5,4-1.6,3.9c-1.1,0-1.6-1.9-1.6-4.1l0-4.3
		c0-2.2,0.5-3.3,1.5-3.4c1.2-0.1,1.6,1.4,1.6,3.5L23.8,68.2z"/>
	<g>
		<path fill="none" stroke="#F15A24" stroke-miterlimit="10" d="M20.5,72.2c0.2,0.2,0.5,0.4,0.7,0.5c0.3,0.1,0.7,0.2,1,0.2
			c0-0.4,0-0.8,0-1.2c0,0-0.2,0-0.3,0c-0.5-0.1-1-0.6-1-1.2c0-0.2,0-0.4,0-0.6c0-1.3,0-2.5,0-3.8c0-1,0-2.1,0-3.1c0-0.4,0-0.8,0-1.2
			c0-0.7,0.5-1.2,1.1-1.2c0-0.2,0-0.4,0-0.5c0-0.2,0-0.5,0-0.7c-0.3,0-0.6,0.1-0.9,0.2c-0.3,0.1-0.5,0.3-0.7,0.5
			c-0.1,0.1-0.3,0.3-0.4,0.4c-0.3,0.4-0.4,0.8-0.4,1.3c0,0.6,0,1.1,0,1.7c0,0.9,0,1.8,0,2.7c0,1.1,0,2.1,0,3.2c0,0.4,0,0.8,0,1.2
			c0,0.3,0.1,0.6,0.2,0.9C20.1,71.7,20.3,72,20.5,72.2z"/>
		<path fill="none" stroke="#F15A24" stroke-miterlimit="10" d="M22.2,72.9c0.1,0,0.3,0,0.4,0c0.2,0,0.4-0.1,0.6-0.2
			c0.1-0.1,0.2-0.1,0.4-0.2c0.1-0.1,0.2-0.2,0.3-0.2c0.2-0.2,0.4-0.5,0.6-0.8c0.1-0.3,0.2-0.6,0.2-1c0-1.4,0-2.8,0-4.2
			c0-1.1,0-2.3,0-3.4c0-0.4,0-0.7,0-1.1c0-0.5-0.1-0.9-0.4-1.3c-0.1-0.2-0.2-0.3-0.4-0.4c-0.1-0.1-0.2-0.2-0.3-0.2
			c-0.1-0.1-0.2-0.1-0.4-0.2c-0.2-0.1-0.4-0.2-0.6-0.2c-0.1,0-0.3,0-0.4,0c0,0.2,0,0.5,0,0.7c0,0.2,0,0.3,0,0.5
			c0.6,0,1.1,0.6,1.1,1.2c0,0.2,0,0.3,0,0.5c0,1.3,0,2.7,0,4c0,1.4,0,2.8,0,4.2c0,0.7-0.5,1.2-1.1,1.2
			C22.2,72.1,22.2,72.5,22.2,72.9z"/>
	</g>
	<g>
		<g>
			<path fill="none" stroke="#F15A24" stroke-width="0.7013" stroke-miterlimit="10" d="M1,69c0.3,0.4,2,1.1,4.1,1.6
				C6,70.8,6.9,71,7.8,71.1c1.2,0.2,3,0.4,4.4,0.5c0.9,0.1,1.3,0.1,2.2,0.1c2.1,0,4.3,0,6.4-0.3c0.6-0.1,1.2-0.1,1.7-0.1
				c0.1-0.2,0.1-0.5,0.2-0.9c0.1-0.7,0.1-1.7,0-2.8c0-1.6-0.1-3.4-0.2-4.8c0-0.3,0-0.5,0-0.8c0-0.4-0.1-0.7-0.3-0.9
				c-0.2-0.2-0.5-0.3-0.7-0.3c-0.3,0-0.7,0-1.1,0c-1.5,0.1-3.8,0.2-6.2,0.3c-1,0-1,0-2,0c-1.6,0-4-0.1-5.1-0.3
				c-0.9-0.2-1.8-0.4-2.6-0.6c-2-0.7-2.9-2.1-0.6-3.4c-0.3-0.1-0.8-0.1-1.1-0.1c-0.4,0.1-0.7,0.3-1,0.5c-0.3,0.2-0.5,0.4-0.7,0.7
				c-1,1.5-0.9,4-0.8,6.1c0.1,1.4-0.1,2.4,0.1,3.5C0.7,68.1,0.7,68.6,1,69z"/>
		</g>
		<g>
			<g>
				<path fill="none" stroke="#F15A24" stroke-miterlimit="10" d="M12.5,70.9c-0.1-0.2-0.1-0.4-0.1-0.8c-0.2-1.5-0.1-3.6,0.1-5.3
					c0-0.5,0.1-0.9,0.1-1.2c0-0.5,0.1-1.2,0.3-1.8c0.1-0.2,0.1-0.3,0.2-0.4c0,0,0.1-0.1,0.3-0.1c-0.3,0-0.4,0.1-0.4,0.1
					c-0.1,0.1-0.1,0.2-0.2,0.4c-0.2,0.6-0.2,1.3-0.3,1.8c0,0.4-0.1,0.8-0.1,1.2c-0.2,1.7-0.2,3.7-0.1,5.3c0,0.4,0.1,0.6,0.1,0.8
					c0.1,0.5,0.3,0.8,0.6,0.8c0,0,0,0,0,0C12.7,71.6,12.6,71.3,12.5,70.9z"/>
			</g>
			<g>
				<g>
					<path fill="none" stroke="#F15A24" stroke-width="0.7013" stroke-miterlimit="10" d="M4.4,70.6c0.6,1.1,7.9,1.8,8.6,1.1
						c-0.4,0-0.5-0.3-0.6-0.8c-0.1-0.2-0.1-0.4-0.1-0.8c-0.2-1.5-0.1-3.6,0.1-5.3c0-0.5,0.1-0.9,0.1-1.2c0-0.5,0.1-1.2,0.3-1.8
						c0-0.2,0.1-0.3,0.2-0.4c0.1-0.1,0.3-0.1,0.4-0.1c-1-1.1-8-1.4-8.2-1c-0.1,0.2-0.4,0.4-0.5,0.6c-0.3,0.6-0.4,1.4-0.4,1.9
						C4,63.1,4,63.5,4,64c-0.1,1.7-0.1,3.7,0,5.1c0,0.2,0.1,0.6,0.1,0.7C4.2,70.2,4.2,70.3,4.4,70.6z"/>
				</g>
			</g>
		</g>
	</g>
</g>
<g>
	<g>
		<g>
			<path fill="none" stroke="#F15A24" stroke-miterlimit="10" d="M34.3,72.7c0.1,0,0.3,0.1,0.3,0.3l0,0.6c0,0.2-0.1,0.3-0.2,0.3
				c-0.1,0-0.3-0.1-0.3-0.3l0-0.6C34.1,72.8,34.2,72.7,34.3,72.7z"/>
		</g>
		<g>
			<path fill="none" stroke="#F15A24" stroke-miterlimit="10" d="M34.3,70.9c0.1,0,0.2,0.1,0.3,0.3l0,0.6c0,0.2-0.1,0.3-0.2,0.3
				c-0.1,0-0.2-0.1-0.2-0.3l0-0.6C34,71.1,34.2,70.9,34.3,70.9z"/>
		</g>
		<g>
			<path fill="none" stroke="#F15A24" stroke-miterlimit="10" d="M34.3,69.2c0.1,0,0.2,0.1,0.2,0.3l0,0.6c0,0.2-0.1,0.3-0.2,0.3
				c-0.1,0-0.2-0.1-0.3-0.3l0-0.6C34,69.3,34.1,69.2,34.3,69.2z"/>
		</g>
		<g>
			<path fill="none" stroke="#F15A24" stroke-miterlimit="10" d="M34.3,67.5c0.1,0,0.2,0.1,0.2,0.3v0.6c0,0.2-0.1,0.3-0.2,0.3
				c-0.1,0-0.2-0.1-0.2-0.3l0-0.6C34,67.6,34.1,67.5,34.3,67.5z"/>
		</g>
		<g>
			<path fill="none" stroke="#F15A24" stroke-miterlimit="10" d="M34.3,65.7c0.1,0,0.2,0.1,0.2,0.3l0,0.6c0,0.2-0.1,0.3-0.2,0.3
				c-0.1,0-0.2-0.1-0.2-0.3l0-0.6C34,65.9,34.2,65.7,34.3,65.7z"/>
		</g>
		<g>
			<path fill="none" stroke="#F15A24" stroke-miterlimit="10" d="M34.3,64c0.1,0,0.2,0.1,0.2,0.3l0,0.6c0,0.2-0.1,0.3-0.3,0.3
				c-0.1,0-0.2-0.1-0.2-0.3l0-0.6C34.1,64.1,34.2,64,34.3,64z"/>
		</g>
		<g>
			<path fill="none" stroke="#F15A24" stroke-miterlimit="10" d="M34.4,62.3c0.1,0,0.2,0.1,0.2,0.3l0,0.6c0,0.2-0.1,0.3-0.3,0.3
				c-0.1,0-0.2-0.1-0.2-0.3l0-0.6C34.1,62.4,34.2,62.3,34.4,62.3z"/>
		</g>
		<g>
			<path fill="none" stroke="#F15A24" stroke-miterlimit="10" d="M34.4,60.6c0.1,0,0.2,0.1,0.2,0.3l0,0.6c0,0.1-0.1,0.3-0.3,0.3
				c-0.1,0-0.2-0.1-0.2-0.3l0-0.6C34.2,60.7,34.3,60.6,34.4,60.6z"/>
		</g>
		<g>
			<path fill="none" stroke="#F15A24" stroke-miterlimit="10" d="M34.5,58.8c0.1,0,0.2,0.1,0.2,0.3l0,0.6c0,0.2-0.1,0.3-0.3,0.3
				c-0.1,0-0.2-0.1-0.2-0.3l0-0.6C34.2,59,34.3,58.8,34.5,58.8z"/>
		</g>
		<g>
			<path fill="none" stroke="#F15A24" stroke-miterlimit="10" d="M34.6,57.1c0.1,0,0.2,0.1,0.2,0.3l0,0.6c0,0.2-0.1,0.3-0.3,0.3
				c-0.1,0-0.2-0.1-0.2-0.3l0-0.6C34.3,57.2,34.4,57.1,34.6,57.1z"/>
		</g>
		<g>
			<path fill="none" stroke="#F15A24" stroke-miterlimit="10" d="M34.7,55.4c0.1,0,0.2,0.1,0.2,0.3l0,0.6c0,0.1-0.1,0.3-0.3,0.3
				c-0.1,0-0.2-0.1-0.2-0.3l0-0.6C34.4,55.5,34.5,55.4,34.7,55.4z"/>
		</g>
		<g>
			<path fill="none" stroke="#F15A24" stroke-miterlimit="10" d="M34.8,53.7c0.1,0,0.2,0.1,0.2,0.3l0,0.6c0,0.1-0.1,0.3-0.3,0.3
				c-0.1,0-0.2-0.1-0.2-0.3l0-0.6C34.6,53.8,34.7,53.7,34.8,53.7z"/>
		</g>
		<g>
			<path fill="none" stroke="#F15A24" stroke-miterlimit="10" d="M35,52c0.1,0,0.2,0.1,0.2,0.3l-0.1,0.6c0,0.2-0.1,0.3-0.3,0.3
				c-0.1,0-0.2-0.1-0.2-0.3l0.1-0.6C34.7,52.1,34.8,51.9,35,52z"/>
		</g>
		<g>
			<path fill="none" stroke="#F15A24" stroke-miterlimit="10" d="M35.1,50.2c0.1,0,0.2,0.1,0.2,0.3l-0.1,0.6c0,0.1-0.1,0.3-0.3,0.2
				c-0.1,0-0.2-0.1-0.2-0.3l0.1-0.6C34.9,50.3,35,50.2,35.1,50.2z"/>
		</g>
		<g>
			<path fill="none" stroke="#F15A24" stroke-miterlimit="10" d="M35.3,48.5c0.1,0,0.2,0.2,0.2,0.3l-0.1,0.6c0,0.2-0.1,0.3-0.3,0.2
				c-0.1,0-0.2-0.2-0.2-0.3l0.1-0.6C35.1,48.6,35.2,48.5,35.3,48.5z"/>
		</g>
		<g>
			<path fill="none" stroke="#F15A24" stroke-miterlimit="10" d="M35.5,46.8c0.1,0,0.2,0.2,0.2,0.3l-0.1,0.6c0,0.1-0.1,0.3-0.3,0.2
				c-0.1,0-0.2-0.2-0.2-0.3l0.1-0.6C35.3,46.9,35.4,46.8,35.5,46.8z"/>
		</g>
		<g>
			<path fill="none" stroke="#F15A24" stroke-miterlimit="10" d="M35.8,45.1c0.1,0,0.2,0.2,0.2,0.3L35.9,46c0,0.1-0.1,0.3-0.3,0.2
				c-0.1,0-0.2-0.2-0.2-0.3l0.1-0.6C35.5,45.2,35.7,45.1,35.8,45.1z"/>
		</g>
		<g>
			<path fill="none" stroke="#F15A24" stroke-miterlimit="10" d="M36.1,43.4c0.1,0,0.2,0.2,0.2,0.3l-0.1,0.6c0,0.1-0.2,0.3-0.3,0.2
				c-0.1,0-0.2-0.2-0.2-0.3l0.1-0.6C35.8,43.5,35.9,43.4,36.1,43.4z"/>
		</g>
		<g>
			<path fill="none" stroke="#F15A24" stroke-miterlimit="10" d="M36.4,41.7c0.1,0,0.2,0.2,0.2,0.3l-0.1,0.6c0,0.1-0.2,0.2-0.3,0.2
				c-0.1,0-0.2-0.2-0.2-0.3l0.1-0.6C36.1,41.8,36.2,41.7,36.4,41.7z"/>
		</g>
		<g>
			<path fill="none" stroke="#F15A24" stroke-miterlimit="10" d="M36.7,40c0.1,0,0.2,0.2,0.2,0.3l-0.1,0.6c0,0.1-0.2,0.2-0.3,0.2
				c-0.1,0-0.2-0.2-0.2-0.3l0.1-0.6C36.4,40.1,36.6,40,36.7,40z"/>
		</g>
		<g>
			<path fill="none" stroke="#F15A24" stroke-miterlimit="10" d="M37.1,38.3c0.1,0,0.2,0.2,0.2,0.3l-0.1,0.6c0,0.1-0.2,0.2-0.3,0.2
				c-0.1,0-0.2-0.2-0.2-0.3l0.1-0.6C36.8,38.4,36.9,38.3,37.1,38.3z"/>
		</g>
		<g>
			<path fill="none" stroke="#F15A24" stroke-miterlimit="10" d="M37.5,36.6c0.1,0,0.2,0.2,0.2,0.3l-0.1,0.6c0,0.1-0.2,0.2-0.3,0.2
				c-0.1,0-0.2-0.2-0.2-0.3l0.1-0.6C37.2,36.7,37.3,36.6,37.5,36.6z"/>
		</g>
		<g>
			<path fill="none" stroke="#F15A24" stroke-miterlimit="10" d="M37.9,35c0.1,0,0.2,0.2,0.2,0.3l-0.2,0.6c0,0.1-0.2,0.2-0.3,0.2
				c-0.1,0-0.2-0.2-0.2-0.3l0.2-0.6C37.6,35,37.8,34.9,37.9,35z"/>
		</g>
		<g>
			<path fill="none" stroke="#F15A24" stroke-miterlimit="10" d="M38.3,33.3c0.1,0,0.2,0.2,0.2,0.3l-0.2,0.6c0,0.1-0.2,0.2-0.3,0.2
				c-0.1,0-0.2-0.2-0.2-0.3l0.2-0.6C38.1,33.4,38.2,33.3,38.3,33.3z"/>
		</g>
		<g>
			<path fill="none" stroke="#F15A24" stroke-miterlimit="10" d="M38.8,31.7c0.1,0,0.2,0.2,0.2,0.3l-0.2,0.6c0,0.1-0.2,0.2-0.3,0.2
				c-0.1,0-0.2-0.2-0.2-0.3l0.2-0.6C38.6,31.7,38.7,31.6,38.8,31.7z"/>
		</g>
		<g>
			<path fill="none" stroke="#F15A24" stroke-miterlimit="10" d="M39.4,30c0.1,0,0.2,0.2,0.1,0.3l-0.2,0.6c0,0.1-0.2,0.2-0.3,0.2
				c-0.1,0-0.2-0.2-0.2-0.3l0.2-0.6C39.1,30.1,39.2,30,39.4,30z"/>
		</g>
		<g>
			<path fill="none" stroke="#F15A24" stroke-miterlimit="10" d="M39.9,28.4c0.1,0,0.2,0.2,0.1,0.3l-0.2,0.6
				c-0.1,0.1-0.2,0.2-0.3,0.2c-0.1,0-0.2-0.2-0.1-0.3l0.2-0.6C39.7,28.4,39.8,28.3,39.9,28.4z"/>
		</g>
		<g>
			<path fill="none" stroke="#F15A24" stroke-miterlimit="10" d="M40.6,26.8c0.1,0.1,0.2,0.2,0.1,0.3l-0.2,0.6
				c-0.1,0.1-0.2,0.2-0.3,0.2c-0.1,0-0.2-0.2-0.1-0.3l0.2-0.6C40.3,26.8,40.4,26.7,40.6,26.8z"/>
		</g>
		<g>
			<path fill="none" stroke="#F15A24" stroke-miterlimit="10" d="M41.2,25.2c0.1,0.1,0.2,0.2,0.1,0.3l-0.2,0.6
				c-0.1,0.1-0.2,0.2-0.3,0.2c-0.1-0.1-0.2-0.2-0.1-0.3l0.2-0.6C40.9,25.2,41.1,25.1,41.2,25.2z"/>
		</g>
		<g>
			<path fill="none" stroke="#F15A24" stroke-miterlimit="10" d="M41.9,23.6c0.1,0.1,0.2,0.2,0.1,0.4l-0.2,0.5
				c-0.1,0.1-0.2,0.2-0.3,0.2c-0.1-0.1-0.2-0.2-0.1-0.4l0.2-0.6C41.6,23.6,41.8,23.5,41.9,23.6z"/>
		</g>
		<g>
			<path fill="none" stroke="#F15A24" stroke-miterlimit="10" d="M42.6,22c0.1,0.1,0.2,0.2,0.1,0.4l-0.3,0.5
				c-0.1,0.1-0.2,0.2-0.3,0.1C42,23,42,22.9,42,22.7l0.3-0.5C42.4,22,42.5,22,42.6,22z"/>
		</g>
		<g>
			<path fill="none" stroke="#F15A24" stroke-miterlimit="10" d="M43.4,20.5c0.1,0.1,0.2,0.2,0.1,0.4l-0.3,0.5
				c-0.1,0.1-0.2,0.2-0.3,0.1c-0.1-0.1-0.2-0.2-0.1-0.4l0.3-0.5C43.1,20.5,43.3,20.4,43.4,20.5z"/>
		</g>
		<g>
			<path fill="none" stroke="#F15A24" stroke-miterlimit="10" d="M44.2,19c0.1,0.1,0.2,0.2,0.1,0.4L44,19.9C44,20,43.8,20.1,43.7,20
				c-0.1-0.1-0.2-0.2-0.1-0.4l0.3-0.5C44,19,44.1,18.9,44.2,19z"/>
		</g>
		<g>
			<path fill="none" stroke="#F15A24" stroke-miterlimit="10" d="M45.1,17.5c0.1,0.1,0.1,0.2,0.1,0.4l-0.3,0.5
				c-0.1,0.1-0.2,0.2-0.4,0.1c-0.1-0.1-0.2-0.2-0.1-0.4l0.3-0.5C44.8,17.5,45,17.4,45.1,17.5z"/>
		</g>
		<g>
			<path fill="none" stroke="#F15A24" stroke-miterlimit="10" d="M46,16c0.1,0.1,0.1,0.2,0.1,0.4l-0.3,0.5c-0.1,0.1-0.2,0.2-0.4,0.1
				c-0.1-0.1-0.1-0.2-0.1-0.4l0.3-0.5C45.8,16,45.9,16,46,16z"/>
		</g>
		<g>
			<path fill="none" stroke="#F15A24" stroke-miterlimit="10" d="M47,14.6c0.1,0.1,0.1,0.2,0,0.4l-0.3,0.5c-0.1,0.1-0.2,0.2-0.4,0.1
				c-0.1-0.1-0.1-0.2-0.1-0.4l0.3-0.5C46.7,14.6,46.9,14.5,47,14.6z"/>
		</g>
		<g>
			<path fill="none" stroke="#F15A24" stroke-miterlimit="10" d="M48,13.2c0.1,0.1,0.1,0.2,0,0.4L47.7,14c-0.1,0.1-0.2,0.2-0.4,0.1
				c-0.1-0.1-0.1-0.2,0-0.4l0.4-0.5C47.7,13.1,47.9,13.1,48,13.2z"/>
		</g>
		<g>
			<path fill="none" stroke="#F15A24" stroke-miterlimit="10" d="M49,11.8c0.1,0.1,0.1,0.2,0,0.4l-0.4,0.5c-0.1,0.1-0.3,0.1-0.4,0.1
				c-0.1-0.1-0.1-0.2,0-0.4l0.4-0.5C48.8,11.8,48.9,11.7,49,11.8z"/>
		</g>
		<g>
			<path fill="none" stroke="#F15A24" stroke-miterlimit="10" d="M50.1,10.5c0.1,0.1,0.1,0.3,0,0.4l-0.4,0.5
				c-0.1,0.1-0.3,0.1-0.4,0.1c-0.1-0.1-0.1-0.3,0-0.4l0.4-0.5C49.9,10.4,50,10.4,50.1,10.5z"/>
		</g>
		<g>
			<path fill="none" stroke="#F15A24" stroke-miterlimit="10" d="M51.3,9.2c0.1,0.1,0.1,0.3,0,0.4L50.9,10c-0.1,0.1-0.3,0.1-0.4,0
				c-0.1-0.1-0.1-0.3,0-0.4l0.4-0.5C51,9.1,51.2,9.1,51.3,9.2z"/>
		</g>
		<g>
			<path fill="none" stroke="#F15A24" stroke-miterlimit="10" d="M52.5,7.9c0.1,0.1,0.1,0.3,0,0.4L52,8.7c-0.1,0.1-0.3,0.1-0.4,0
				c-0.1-0.1-0.1-0.3,0-0.4L52.1,8C52.2,7.9,52.4,7.8,52.5,7.9z"/>
		</g>
		<g>
			<path fill="none" stroke="#F15A24" stroke-miterlimit="10" d="M53.7,6.7c0.1,0.1,0.1,0.3,0,0.4l-0.4,0.4c-0.1,0.1-0.3,0.1-0.4,0
				c-0.1-0.1-0.1-0.3,0-0.4l0.4-0.4C53.4,6.6,53.6,6.6,53.7,6.7z"/>
		</g>
		<g>
			<path fill="none" stroke="#F15A24" stroke-miterlimit="10" d="M55,5.6c0.1,0.1,0.1,0.3,0,0.4l-0.4,0.4c-0.1,0.1-0.3,0.1-0.4,0
				C54,6.2,54,6.1,54.2,6l0.4-0.4C54.7,5.5,54.9,5.5,55,5.6z"/>
		</g>
		<g>
			<path fill="none" stroke="#F15A24" stroke-miterlimit="10" d="M56.3,4.4c0.1,0.1,0.1,0.3-0.1,0.4l-0.5,0.4
				c-0.1,0.1-0.3,0.1-0.4,0c-0.1-0.1-0.1-0.3,0-0.4l0.5-0.4C56,4.3,56.2,4.3,56.3,4.4z"/>
		</g>
	</g>
	<g>
		<g>
			<path fill="none" stroke="#F15A24" stroke-miterlimit="10" d="M38.3,72.7c0.1,0,0.2,0.1,0.2,0.3l0,0.6c0,0.1-0.1,0.3-0.3,0.3
				c-0.1,0-0.2-0.1-0.2-0.3l0-0.6C38.1,72.8,38.2,72.7,38.3,72.7z"/>
		</g>
		<g>
			<path fill="none" stroke="#F15A24" stroke-miterlimit="10" d="M38.4,71c0.1,0,0.2,0.1,0.2,0.3l0,0.6c0,0.1-0.1,0.3-0.3,0.3
				c-0.1,0-0.2-0.1-0.2-0.3l0-0.6C38.1,71.1,38.2,71,38.4,71z"/>
		</g>
		<g>
			<path fill="none" stroke="#F15A24" stroke-miterlimit="10" d="M38.4,69.3c0.1,0,0.2,0.1,0.2,0.3l0,0.6c0,0.1-0.1,0.3-0.3,0.3
				c-0.1,0-0.2-0.1-0.2-0.3l0-0.6C38.1,69.4,38.2,69.3,38.4,69.3z"/>
		</g>
		<g>
			<path fill="none" stroke="#F15A24" stroke-miterlimit="10" d="M38.4,67.6c0.1,0,0.2,0.1,0.2,0.3l0,0.6c0,0.1-0.1,0.3-0.3,0.3
				c-0.1,0-0.2-0.1-0.2-0.3l0-0.6C38.2,67.7,38.3,67.6,38.4,67.6z"/>
		</g>
		<g>
			<path fill="none" stroke="#F15A24" stroke-miterlimit="10" d="M38.4,65.9c0.1,0,0.2,0.1,0.2,0.3l0,0.6c0,0.1-0.1,0.3-0.3,0.3
				c-0.1,0-0.2-0.1-0.2-0.3l0-0.6C38.2,66,38.3,65.9,38.4,65.9z"/>
		</g>
		<g>
			<path fill="none" stroke="#F15A24" stroke-miterlimit="10" d="M38.5,64.2c0.1,0,0.2,0.1,0.2,0.3l0,0.6c0,0.1-0.1,0.3-0.3,0.3
				c-0.1,0-0.2-0.1-0.2-0.3l0-0.6C38.2,64.3,38.3,64.2,38.5,64.2z"/>
		</g>
		<g>
			<path fill="none" stroke="#F15A24" stroke-miterlimit="10" d="M38.5,62.4c0.1,0,0.2,0.1,0.2,0.3l0,0.6c0,0.1-0.1,0.3-0.3,0.3
				c-0.1,0-0.2-0.1-0.2-0.3l0-0.6C38.3,62.6,38.4,62.4,38.5,62.4z"/>
		</g>
		<g>
			<path fill="none" stroke="#F15A24" stroke-miterlimit="10" d="M38.6,60.7c0.1,0,0.2,0.1,0.2,0.3l0,0.6c0,0.1-0.1,0.3-0.3,0.3
				c-0.1,0-0.2-0.1-0.2-0.3l0-0.6C38.3,60.9,38.4,60.7,38.6,60.7z"/>
		</g>
		<g>
			<path fill="none" stroke="#F15A24" stroke-miterlimit="10" d="M38.6,59c0.1,0,0.2,0.1,0.2,0.3l0,0.6c0,0.1-0.1,0.3-0.3,0.3
				c-0.1,0-0.2-0.1-0.2-0.3l0-0.6C38.4,59.2,38.5,59,38.6,59z"/>
		</g>
		<g>
			<path fill="none" stroke="#F15A24" stroke-miterlimit="10" d="M38.7,57.3c0.1,0,0.2,0.1,0.2,0.3l0,0.6c0,0.1-0.1,0.3-0.3,0.3
				c-0.1,0-0.2-0.1-0.2-0.3l0-0.6C38.5,57.5,38.6,57.3,38.7,57.3z"/>
		</g>
		<g>
			<path fill="none" stroke="#F15A24" stroke-miterlimit="10" d="M38.8,55.6c0.1,0,0.2,0.1,0.2,0.3l0,0.6c0,0.1-0.1,0.3-0.3,0.3
				c-0.1,0-0.2-0.1-0.2-0.3l0-0.6C38.6,55.7,38.7,55.6,38.8,55.6z"/>
		</g>
		<g>
			<path fill="none" stroke="#F15A24" stroke-miterlimit="10" d="M38.9,53.9c0.1,0,0.2,0.1,0.2,0.3l0,0.6c0,0.1-0.1,0.3-0.3,0.3
				c-0.1,0-0.2-0.1-0.2-0.3l0-0.6C38.7,54,38.8,53.9,38.9,53.9z"/>
		</g>
		<g>
			<path fill="none" stroke="#F15A24" stroke-miterlimit="10" d="M39.1,52.2c0.1,0,0.2,0.1,0.2,0.3l-0.1,0.6c0,0.1-0.1,0.3-0.3,0.3
				c-0.1,0-0.2-0.1-0.2-0.3l0-0.6C38.8,52.3,38.9,52.2,39.1,52.2z"/>
		</g>
		<g>
			<path fill="none" stroke="#F15A24" stroke-miterlimit="10" d="M39.2,50.5c0.1,0,0.2,0.1,0.2,0.3l-0.1,0.6c0,0.1-0.1,0.3-0.3,0.2
				c-0.1,0-0.2-0.1-0.2-0.3l0.1-0.6C39,50.6,39.1,50.5,39.2,50.5z"/>
		</g>
		<g>
			<path fill="none" stroke="#F15A24" stroke-miterlimit="10" d="M39.4,48.9c0.1,0,0.2,0.1,0.2,0.3l-0.1,0.6c0,0.1-0.1,0.3-0.3,0.2
				c-0.1,0-0.2-0.1-0.2-0.3l0.1-0.6C39.1,48.9,39.3,48.8,39.4,48.9z"/>
		</g>
		<g>
			<path fill="none" stroke="#F15A24" stroke-miterlimit="10" d="M39.6,47.2c0.1,0,0.2,0.2,0.2,0.3L39.8,48c0,0.1-0.1,0.3-0.3,0.2
				c-0.1,0-0.2-0.2-0.2-0.3l0.1-0.6C39.4,47.3,39.5,47.1,39.6,47.2z"/>
		</g>
		<g>
			<path fill="none" stroke="#F15A24" stroke-miterlimit="10" d="M39.8,45.5c0.1,0,0.2,0.2,0.2,0.3L40,46.4c0,0.1-0.1,0.3-0.3,0.2
				c-0.1,0-0.2-0.2-0.2-0.3l0.1-0.6C39.6,45.6,39.7,45.5,39.8,45.5z"/>
		</g>
		<g>
			<path fill="none" stroke="#F15A24" stroke-miterlimit="10" d="M40.1,43.8c0.1,0,0.2,0.2,0.2,0.3l-0.1,0.6c0,0.1-0.2,0.3-0.3,0.2
				c-0.1,0-0.2-0.2-0.2-0.3l0.1-0.6C39.8,43.9,40,43.8,40.1,43.8z"/>
		</g>
		<g>
			<path fill="none" stroke="#F15A24" stroke-miterlimit="10" d="M40.4,42.1c0.1,0,0.2,0.2,0.2,0.3L40.5,43c0,0.1-0.2,0.2-0.3,0.2
				c-0.1,0-0.2-0.2-0.2-0.3l0.1-0.6C40.1,42.2,40.3,42.1,40.4,42.1z"/>
		</g>
		<g>
			<path fill="none" stroke="#F15A24" stroke-miterlimit="10" d="M40.7,40.4c0.1,0,0.2,0.2,0.2,0.3l-0.1,0.6c0,0.1-0.2,0.2-0.3,0.2
				c-0.1,0-0.2-0.2-0.2-0.3l0.1-0.6C40.4,40.5,40.6,40.4,40.7,40.4z"/>
		</g>
		<g>
			<path fill="none" stroke="#F15A24" stroke-miterlimit="10" d="M41.1,38.8c0.1,0,0.2,0.2,0.2,0.3l-0.1,0.6c0,0.1-0.2,0.2-0.3,0.2
				c-0.1,0-0.2-0.2-0.2-0.3l0.1-0.6C40.8,38.8,40.9,38.7,41.1,38.8z"/>
		</g>
		<g>
			<path fill="none" stroke="#F15A24" stroke-miterlimit="10" d="M41.4,37.1c0.1,0,0.2,0.2,0.2,0.3L41.5,38c0,0.1-0.2,0.2-0.3,0.2
				C41,38.2,41,38,41,37.9l0.1-0.6C41.2,37.2,41.3,37.1,41.4,37.1z"/>
		</g>
		<g>
			<path fill="none" stroke="#F15A24" stroke-miterlimit="10" d="M41.8,35.4c0.1,0,0.2,0.2,0.2,0.3l-0.1,0.6c0,0.1-0.2,0.2-0.3,0.2
				c-0.1,0-0.2-0.2-0.2-0.3l0.1-0.6C41.6,35.5,41.7,35.4,41.8,35.4z"/>
		</g>
		<g>
			<path fill="none" stroke="#F15A24" stroke-miterlimit="10" d="M42.3,33.8c0.1,0,0.2,0.2,0.2,0.3l-0.2,0.6c0,0.1-0.2,0.2-0.3,0.2
				c-0.1,0-0.2-0.2-0.2-0.3L42,34C42,33.9,42.1,33.8,42.3,33.8z"/>
		</g>
		<g>
			<path fill="none" stroke="#F15A24" stroke-miterlimit="10" d="M42.7,32.2c0.1,0,0.2,0.2,0.2,0.3l-0.2,0.6c0,0.1-0.2,0.2-0.3,0.2
				c-0.1,0-0.2-0.2-0.2-0.3l0.2-0.6C42.5,32.2,42.6,32.1,42.7,32.2z"/>
		</g>
		<g>
			<path fill="none" stroke="#F15A24" stroke-miterlimit="10" d="M43.3,30.5c0.1,0,0.2,0.2,0.2,0.3l-0.2,0.6c0,0.1-0.2,0.2-0.3,0.2
				c-0.1,0-0.2-0.2-0.2-0.3l0.2-0.6C43,30.6,43.1,30.5,43.3,30.5z"/>
		</g>
		<g>
			<path fill="none" stroke="#F15A24" stroke-miterlimit="10" d="M43.8,28.9c0.1,0,0.2,0.2,0.1,0.3l-0.2,0.6c0,0.1-0.2,0.2-0.3,0.2
				c-0.1,0-0.2-0.2-0.1-0.3l0.2-0.6C43.5,29,43.7,28.9,43.8,28.9z"/>
		</g>
		<g>
			<path fill="none" stroke="#F15A24" stroke-miterlimit="10" d="M44.4,27.3c0.1,0,0.2,0.2,0.1,0.3l-0.2,0.6c0,0.1-0.2,0.2-0.3,0.2
				c-0.1,0-0.2-0.2-0.1-0.3l0.2-0.6C44.1,27.3,44.2,27.3,44.4,27.3z"/>
		</g>
		<g>
			<path fill="none" stroke="#F15A24" stroke-miterlimit="10" d="M45,25.7c0.1,0.1,0.2,0.2,0.1,0.3l-0.2,0.6
				c-0.1,0.1-0.2,0.2-0.3,0.2c-0.1,0-0.2-0.2-0.1-0.3l0.2-0.6C44.7,25.8,44.9,25.7,45,25.7z"/>
		</g>
		<g>
			<path fill="none" stroke="#F15A24" stroke-miterlimit="10" d="M45.6,24.2c0.1,0.1,0.2,0.2,0.1,0.3l-0.2,0.5
				c-0.1,0.1-0.2,0.2-0.3,0.2c-0.1-0.1-0.2-0.2-0.1-0.3l0.2-0.6C45.4,24.2,45.5,24.1,45.6,24.2z"/>
		</g>
		<g>
			<path fill="none" stroke="#F15A24" stroke-miterlimit="10" d="M46.3,22.6c0.1,0.1,0.2,0.2,0.1,0.3l-0.2,0.5
				c-0.1,0.1-0.2,0.2-0.3,0.1c-0.1-0.1-0.2-0.2-0.1-0.3l0.2-0.5C46.1,22.6,46.2,22.5,46.3,22.6z"/>
		</g>
		<g>
			<path fill="none" stroke="#F15A24" stroke-miterlimit="10" d="M47.1,21.1c0.1,0.1,0.2,0.2,0.1,0.4l-0.3,0.5
				c-0.1,0.1-0.2,0.2-0.3,0.1c-0.1-0.1-0.2-0.2-0.1-0.4l0.3-0.5C46.8,21.1,46.9,21,47.1,21.1z"/>
		</g>
		<g>
			<path fill="none" stroke="#F15A24" stroke-miterlimit="10" d="M47.8,19.5c0.1,0.1,0.2,0.2,0.1,0.4l-0.3,0.5
				c-0.1,0.1-0.2,0.2-0.3,0.1c-0.1-0.1-0.2-0.2-0.1-0.4l0.3-0.5C47.6,19.5,47.7,19.5,47.8,19.5z"/>
		</g>
		<g>
			<path fill="none" stroke="#F15A24" stroke-miterlimit="10" d="M48.6,18c0.1,0.1,0.2,0.2,0.1,0.4l-0.3,0.5
				c-0.1,0.1-0.2,0.2-0.3,0.1C48,19,47.9,18.8,48,18.7l0.3-0.5C48.4,18,48.5,18,48.6,18z"/>
		</g>
		<g>
			<path fill="none" stroke="#F15A24" stroke-miterlimit="10" d="M49.5,16.6c0.1,0.1,0.2,0.2,0.1,0.4l-0.3,0.5
				c-0.1,0.1-0.2,0.2-0.3,0.1c-0.1-0.1-0.2-0.2-0.1-0.4l0.3-0.5C49.2,16.5,49.4,16.5,49.5,16.6z"/>
		</g>
		<g>
			<path fill="none" stroke="#F15A24" stroke-miterlimit="10" d="M50.4,15.1c0.1,0.1,0.1,0.2,0.1,0.4L50.1,16
				c-0.1,0.1-0.2,0.2-0.4,0.1c-0.1-0.1-0.2-0.2-0.1-0.4l0.3-0.5C50.1,15.1,50.2,15,50.4,15.1z"/>
		</g>
		<g>
			<path fill="none" stroke="#F15A24" stroke-miterlimit="10" d="M51.3,13.7c0.1,0.1,0.1,0.2,0.1,0.4L51,14.5
				c-0.1,0.1-0.2,0.2-0.4,0.1c-0.1-0.1-0.1-0.2-0.1-0.4l0.3-0.5C51,13.6,51.2,13.6,51.3,13.7z"/>
		</g>
		<g>
			<path fill="none" stroke="#F15A24" stroke-miterlimit="10" d="M52.2,12.2c0.1,0.1,0.1,0.2,0.1,0.4l-0.3,0.5
				c-0.1,0.1-0.2,0.2-0.4,0.1c-0.1-0.1-0.1-0.2-0.1-0.4l0.3-0.5C52,12.2,52.1,12.2,52.2,12.2z"/>
		</g>
		<g>
			<path fill="none" stroke="#F15A24" stroke-miterlimit="10" d="M53.2,10.9c0.1,0.1,0.1,0.2,0,0.4l-0.3,0.5
				c-0.1,0.1-0.2,0.2-0.4,0.1c-0.1-0.1-0.1-0.2,0-0.4l0.3-0.5C52.9,10.8,53.1,10.8,53.2,10.9z"/>
		</g>
		<g>
			<path fill="none" stroke="#F15A24" stroke-miterlimit="10" d="M54.2,9.5c0.1,0.1,0.1,0.2,0,0.4l-0.4,0.5
				c-0.1,0.1-0.3,0.1-0.4,0.1c-0.1-0.1-0.1-0.2,0-0.4l0.4-0.5C54,9.4,54.1,9.4,54.2,9.5z"/>
		</g>
		<g>
			<path fill="none" stroke="#F15A24" stroke-miterlimit="10" d="M55.3,8.2c0.1,0.1,0.1,0.3,0,0.4L55,9c-0.1,0.1-0.3,0.1-0.4,0.1
				c-0.1-0.1-0.1-0.3,0-0.4l0.4-0.5C55,8.1,55.2,8.1,55.3,8.2z"/>
		</g>
		<g>
			<path fill="none" stroke="#F15A24" stroke-miterlimit="10" d="M56.4,6.9c0.1,0.1,0.1,0.3,0,0.4L56,7.7c-0.1,0.1-0.3,0.1-0.4,0
				c-0.1-0.1-0.1-0.3,0-0.4L56,6.9C56.1,6.8,56.3,6.8,56.4,6.9z"/>
		</g>
		<g>
			<path fill="none" stroke="#F15A24" stroke-miterlimit="10" d="M57.5,5.6c0.1,0.1,0.1,0.3,0,0.4l-0.4,0.4c-0.1,0.1-0.3,0.1-0.4,0
				c-0.1-0.1-0.1-0.3,0-0.4l0.4-0.4C57.3,5.5,57.4,5.5,57.5,5.6z"/>
		</g>
	</g>
</g>
<g>
	<g>
		<g>
			<path fill="none" stroke="#F15A24" stroke-miterlimit="10" d="M88.4,77.1c-0.1,0.1-0.2,0.2-0.4,0.1l-0.5-0.3
				c-0.1-0.1-0.2-0.2-0.1-0.3c0.1-0.1,0.2-0.2,0.4-0.1l0.5,0.3C88.5,76.8,88.5,76.9,88.4,77.1z"/>
		</g>
		<g>
			<path fill="none" stroke="#F15A24" stroke-miterlimit="10" d="M90,77.9C89.9,78,89.7,78,89.6,78l-0.5-0.3
				c-0.1-0.1-0.2-0.2-0.1-0.3c0.1-0.1,0.2-0.2,0.4-0.1l0.5,0.3C90,77.6,90,77.7,90,77.9z"/>
		</g>
		<g>
			<path fill="none" stroke="#F15A24" stroke-miterlimit="10" d="M91.5,78.7c-0.1,0.1-0.2,0.2-0.4,0.1l-0.5-0.3
				c-0.1-0.1-0.2-0.2-0.1-0.3c0.1-0.1,0.2-0.2,0.4-0.1l0.5,0.3C91.5,78.4,91.6,78.5,91.5,78.7z"/>
		</g>
		<g>
			<path fill="none" stroke="#F15A24" stroke-miterlimit="10" d="M93,79.5c-0.1,0.1-0.2,0.2-0.4,0.1l-0.5-0.3
				C92,79.2,92,79.1,92,78.9c0.1-0.1,0.2-0.2,0.4-0.1l0.5,0.3C93,79.2,93.1,79.3,93,79.5z"/>
		</g>
		<g>
			<path fill="none" stroke="#F15A24" stroke-miterlimit="10" d="M94.6,80.3c-0.1,0.1-0.2,0.2-0.4,0.1l-0.5-0.3
				c-0.1-0.1-0.2-0.2-0.1-0.3c0.1-0.1,0.2-0.2,0.4-0.1l0.5,0.3C94.6,80,94.6,80.1,94.6,80.3z"/>
		</g>
		<g>
			<path fill="none" stroke="#F15A24" stroke-miterlimit="10" d="M96.1,81c-0.1,0.1-0.2,0.2-0.4,0.1l-0.5-0.3
				c-0.1-0.1-0.2-0.2-0.1-0.3c0.1-0.1,0.2-0.2,0.4-0.1l0.5,0.3C96.1,80.8,96.2,80.9,96.1,81z"/>
		</g>
		<g>
			<path fill="none" stroke="#F15A24" stroke-miterlimit="10" d="M97.7,81.8c-0.1,0.1-0.2,0.2-0.4,0.1l-0.5-0.3
				c-0.1-0.1-0.2-0.2-0.1-0.3c0.1-0.1,0.2-0.2,0.4-0.1l0.5,0.3C97.7,81.6,97.7,81.7,97.7,81.8z"/>
		</g>
		<g>
			<path fill="none" stroke="#F15A24" stroke-miterlimit="10" d="M99.2,82.6c-0.1,0.1-0.2,0.2-0.4,0.1l-0.5-0.3
				c-0.1-0.1-0.2-0.2-0.1-0.3c0.1-0.1,0.2-0.2,0.4-0.1l0.5,0.3C99.2,82.3,99.3,82.5,99.2,82.6z"/>
		</g>
		<g>
			<path fill="none" stroke="#F15A24" stroke-miterlimit="10" d="M100.7,83.4c-0.1,0.1-0.2,0.2-0.4,0.1l-0.5-0.3
				c-0.1-0.1-0.2-0.2-0.1-0.3c0.1-0.1,0.2-0.2,0.4-0.1l0.5,0.3C100.7,83.1,100.8,83.3,100.7,83.4z"/>
		</g>
		<g>
			<path fill="none" stroke="#F15A24" stroke-miterlimit="10" d="M102.3,84.2c-0.1,0.1-0.2,0.2-0.4,0.1l-0.5-0.3
				c-0.1-0.1-0.2-0.2-0.1-0.3c0.1-0.1,0.2-0.2,0.4-0.1l0.5,0.3C102.3,83.9,102.4,84,102.3,84.2z"/>
		</g>
		<g>
			<path fill="none" stroke="#F15A24" stroke-miterlimit="10" d="M103.8,84.9c-0.1,0.1-0.2,0.2-0.4,0.1l-0.5-0.3
				c-0.1-0.1-0.2-0.2-0.1-0.3c0.1-0.1,0.2-0.2,0.4-0.1l0.5,0.3C103.8,84.6,103.9,84.8,103.8,84.9z"/>
		</g>
		<g>
			<path fill="none" stroke="#F15A24" stroke-miterlimit="10" d="M105.4,85.7c-0.1,0.1-0.2,0.2-0.4,0.1l-0.5-0.3
				c-0.1-0.1-0.2-0.2-0.1-0.3c0.1-0.1,0.2-0.2,0.4-0.1l0.5,0.3C105.4,85.4,105.5,85.6,105.4,85.7z"/>
		</g>
		<g>
			<path fill="none" stroke="#F15A24" stroke-miterlimit="10" d="M107,86.4c-0.1,0.1-0.2,0.2-0.4,0.1l-0.5-0.3
				c-0.1-0.1-0.2-0.2-0.1-0.3c0.1-0.1,0.2-0.2,0.4-0.1l0.5,0.3C107,86.2,107,86.3,107,86.4z"/>
		</g>
		<g>
			<path fill="none" stroke="#F15A24" stroke-miterlimit="10" d="M108.5,87.2c-0.1,0.1-0.2,0.2-0.4,0.1l-0.5-0.3
				c-0.1-0.1-0.2-0.2-0.1-0.3c0.1-0.1,0.2-0.2,0.4-0.1l0.5,0.3C108.5,86.9,108.6,87.1,108.5,87.2z"/>
		</g>
		<g>
			<path fill="none" stroke="#F15A24" stroke-miterlimit="10" d="M110.1,87.9c-0.1,0.1-0.2,0.2-0.4,0.1l-0.5-0.3
				c-0.1-0.1-0.2-0.2-0.1-0.3c0.1-0.1,0.2-0.2,0.4-0.1l0.5,0.3C110.1,87.6,110.1,87.8,110.1,87.9z"/>
		</g>
		<g>
			<path fill="none" stroke="#F15A24" stroke-miterlimit="10" d="M111.7,88.6c-0.1,0.1-0.2,0.2-0.4,0.1l-0.6-0.2
				c-0.1-0.1-0.2-0.2-0.1-0.3c0.1-0.1,0.2-0.2,0.4-0.1l0.6,0.2C111.7,88.3,111.7,88.5,111.7,88.6z"/>
		</g>
		<g>
			<path fill="none" stroke="#F15A24" stroke-miterlimit="10" d="M113.2,89.3c-0.1,0.1-0.2,0.2-0.4,0.1l-0.6-0.2
				c-0.1-0.1-0.2-0.2-0.2-0.3c0.1-0.1,0.2-0.2,0.4-0.1l0.6,0.2C113.2,89,113.3,89.2,113.2,89.3z"/>
		</g>
		<g>
			<path fill="none" stroke="#F15A24" stroke-miterlimit="10" d="M114.8,90c-0.1,0.1-0.2,0.2-0.4,0.1l-0.6-0.2
				c-0.1-0.1-0.2-0.2-0.1-0.3c0.1-0.1,0.2-0.2,0.4-0.1l0.6,0.2C114.8,89.7,114.9,89.9,114.8,90z"/>
		</g>
		<g>
			<path fill="none" stroke="#F15A24" stroke-miterlimit="10" d="M116.4,90.7c-0.1,0.1-0.2,0.2-0.3,0.1l-0.6-0.2
				c-0.1-0.1-0.2-0.2-0.2-0.3c0.1-0.1,0.2-0.2,0.4-0.1l0.6,0.2C116.4,90.4,116.5,90.6,116.4,90.7z"/>
		</g>
		<g>
			<path fill="none" stroke="#F15A24" stroke-miterlimit="10" d="M118,91.4c-0.1,0.1-0.2,0.2-0.3,0.1l-0.6-0.2
				c-0.1-0.1-0.2-0.2-0.2-0.3c0.1-0.1,0.2-0.2,0.3-0.1l0.6,0.2C118,91.1,118,91.3,118,91.4z"/>
		</g>
		<g>
			<path fill="none" stroke="#F15A24" stroke-miterlimit="10" d="M119.6,92.1c-0.1,0.1-0.2,0.2-0.3,0.1l-0.6-0.2
				c-0.1-0.1-0.2-0.2-0.2-0.3c0.1-0.1,0.2-0.2,0.3-0.1l0.6,0.2C119.6,91.8,119.6,92,119.6,92.1z"/>
		</g>
		<g>
			<path fill="none" stroke="#F15A24" stroke-miterlimit="10" d="M121.2,92.8c0,0.1-0.2,0.2-0.3,0.1l-0.6-0.2
				c-0.1-0.1-0.2-0.2-0.2-0.3c0.1-0.1,0.2-0.2,0.3-0.1l0.6,0.2C121.2,92.5,121.2,92.6,121.2,92.8z"/>
		</g>
		<g>
			<path fill="none" stroke="#F15A24" stroke-miterlimit="10" d="M122.8,93.4c0,0.1-0.2,0.2-0.3,0.1l-0.6-0.2
				c-0.1-0.1-0.2-0.2-0.2-0.3c0.1-0.1,0.2-0.2,0.3-0.1l0.6,0.2C122.8,93.1,122.8,93.3,122.8,93.4z"/>
		</g>
		<g>
			<path fill="none" stroke="#F15A24" stroke-miterlimit="10" d="M124.4,94c0,0.1-0.2,0.2-0.3,0.1l-0.6-0.2
				c-0.1-0.1-0.2-0.2-0.2-0.3c0-0.1,0.2-0.2,0.3-0.1l0.6,0.2C124.4,93.7,124.5,93.9,124.4,94z"/>
		</g>
		<g>
			<path fill="none" stroke="#F15A24" stroke-miterlimit="10" d="M126,94.6c0,0.1-0.2,0.2-0.3,0.1l-0.6-0.2
				c-0.1-0.1-0.2-0.2-0.2-0.3c0-0.1,0.2-0.2,0.3-0.1l0.6,0.2C126,94.3,126.1,94.4,126,94.6z"/>
		</g>
		<g>
			<path fill="none" stroke="#F15A24" stroke-miterlimit="10" d="M127.7,95.1c0,0.1-0.2,0.2-0.3,0.2l-0.6-0.2
				c-0.1,0-0.2-0.2-0.2-0.3c0-0.1,0.2-0.2,0.3-0.2l0.6,0.2C127.6,94.8,127.7,95,127.7,95.1z"/>
		</g>
		<g>
			<path fill="none" stroke="#F15A24" stroke-miterlimit="10" d="M129.4,95.5c0,0.1-0.2,0.2-0.3,0.2l-0.6-0.2
				c-0.1,0-0.2-0.2-0.2-0.3c0-0.1,0.2-0.2,0.3-0.2l0.6,0.2C129.3,95.3,129.4,95.4,129.4,95.5z"/>
		</g>
		<g>
			<path fill="none" stroke="#F15A24" stroke-miterlimit="10" d="M131,95.9c0,0.1-0.2,0.2-0.3,0.2l-0.6-0.1c-0.1,0-0.2-0.2-0.2-0.3
				c0-0.1,0.2-0.2,0.3-0.2l0.6,0.1C131,95.7,131.1,95.8,131,95.9z"/>
		</g>
		<g>
			<path fill="none" stroke="#F15A24" stroke-miterlimit="10" d="M132.7,96.3c0,0.1-0.2,0.2-0.3,0.2c-0.2,0-0.4-0.1-0.6-0.1
				c-0.2,0-0.3-0.2-0.2-0.3c0-0.1,0.2-0.2,0.3-0.2c0.2,0,0.4,0.1,0.6,0.1C132.7,96,132.8,96.1,132.7,96.3z"/>
		</g>
		<g>
			<path fill="none" stroke="#F15A24" stroke-miterlimit="10" d="M134.5,96.5c0,0.1-0.1,0.2-0.3,0.2c-0.2,0-0.4,0-0.6-0.1
				c-0.2,0-0.3-0.1-0.2-0.3c0-0.1,0.2-0.2,0.3-0.2c0.2,0,0.4,0,0.6,0.1C134.4,96.2,134.5,96.3,134.5,96.5z"/>
		</g>
		<g>
			<path fill="none" stroke="#F15A24" stroke-miterlimit="10" d="M136.2,96.5c0,0.1-0.1,0.2-0.3,0.2c-0.2,0-0.4,0-0.6,0
				c-0.2,0-0.3-0.1-0.3-0.3c0-0.1,0.1-0.2,0.3-0.2c0.2,0,0.4,0,0.6,0C136.1,96.3,136.2,96.4,136.2,96.5z"/>
		</g>
		<g>
			<path fill="none" stroke="#F15A24" stroke-miterlimit="10" d="M137.9,96.5c0,0.1-0.1,0.3-0.3,0.3c-0.2,0-0.4,0-0.6,0
				c-0.2,0-0.3-0.1-0.3-0.2c0-0.1,0.1-0.2,0.3-0.3c0.2,0,0.4,0,0.6,0C137.8,96.2,137.9,96.3,137.9,96.5z"/>
		</g>
		<g>
			<path fill="none" stroke="#F15A24" stroke-miterlimit="10" d="M139.6,96.3c0,0.1-0.1,0.3-0.2,0.3c-0.2,0-0.4,0-0.6,0.1
				c-0.2,0-0.3-0.1-0.3-0.2c0-0.1,0.1-0.3,0.2-0.3c0.2,0,0.4,0,0.6-0.1C139.5,96.1,139.6,96.2,139.6,96.3z"/>
		</g>
		<g>
			<path fill="none" stroke="#F15A24" stroke-miterlimit="10" d="M141.3,96c0,0.1-0.1,0.3-0.2,0.3c-0.2,0-0.4,0.1-0.6,0.1
				c-0.1,0-0.3-0.1-0.3-0.2c0-0.1,0.1-0.3,0.2-0.3c0.2,0,0.4-0.1,0.6-0.1C141.2,95.8,141.3,95.9,141.3,96z"/>
		</g>
		<g>
			<path fill="none" stroke="#F15A24" stroke-miterlimit="10" d="M143,95.6c0,0.1-0.1,0.3-0.2,0.3c-0.2,0-0.4,0.1-0.6,0.1
				c-0.1,0-0.3,0-0.3-0.2c0-0.1,0.1-0.3,0.2-0.3c0.2,0,0.4-0.1,0.6-0.1C142.8,95.4,143,95.5,143,95.6z"/>
		</g>
		<g>
			<path fill="none" stroke="#F15A24" stroke-miterlimit="10" d="M144.7,95.2c0,0.1,0,0.3-0.2,0.3c-0.2,0.1-0.4,0.1-0.6,0.2
				c-0.1,0-0.3,0-0.3-0.2c0-0.1,0.1-0.3,0.2-0.3c0.2-0.1,0.4-0.1,0.6-0.2C144.5,95,144.6,95,144.7,95.2z"/>
		</g>
		<g>
			<path fill="none" stroke="#F15A24" stroke-miterlimit="10" d="M146.3,94.6c0,0.1,0,0.3-0.2,0.3c-0.2,0.1-0.4,0.1-0.6,0.2
				c-0.1,0.1-0.3,0-0.3-0.1c0-0.1,0-0.3,0.2-0.3c0.2-0.1,0.4-0.1,0.6-0.2C146.1,94.4,146.3,94.5,146.3,94.6z"/>
		</g>
		<g>
			<path fill="none" stroke="#F15A24" stroke-miterlimit="10" d="M147.9,93.9c0.1,0.1,0,0.3-0.2,0.3c-0.2,0.1-0.4,0.2-0.6,0.2
				c-0.1,0.1-0.3,0-0.3-0.1c-0.1-0.1,0-0.3,0.2-0.3c0.2-0.1,0.4-0.2,0.6-0.2C147.7,93.7,147.9,93.8,147.9,93.9z"/>
		</g>
		<g>
			<path fill="none" stroke="#F15A24" stroke-miterlimit="10" d="M149.5,93.2c0.1,0.1,0,0.3-0.1,0.3l-0.5,0.3
				c-0.1,0.1-0.3,0-0.4-0.1c-0.1-0.1,0-0.3,0.1-0.3l0.5-0.3C149.2,93,149.4,93.1,149.5,93.2z"/>
		</g>
		<g>
			<path fill="none" stroke="#F15A24" stroke-miterlimit="10" d="M151,92.3c0.1,0.1,0,0.3-0.1,0.4c-0.2,0.1-0.4,0.2-0.5,0.3
				c-0.1,0.1-0.3,0-0.4-0.1c-0.1-0.1,0-0.3,0.1-0.3c0.2-0.1,0.3-0.2,0.5-0.3C150.8,92.2,150.9,92.2,151,92.3z"/>
		</g>
		<g>
			<path fill="none" stroke="#F15A24" stroke-miterlimit="10" d="M152.5,91.4c0.1,0.1,0,0.3-0.1,0.4c-0.2,0.1-0.3,0.2-0.5,0.3
				c-0.1,0.1-0.3,0.1-0.4-0.1c-0.1-0.1,0-0.3,0.1-0.4c0.2-0.1,0.3-0.2,0.5-0.3C152.2,91.3,152.4,91.3,152.5,91.4z"/>
		</g>
		<g>
			<path fill="none" stroke="#F15A24" stroke-miterlimit="10" d="M153.9,90.4c0.1,0.1,0,0.3-0.1,0.4c-0.2,0.1-0.3,0.2-0.5,0.4
				c-0.1,0.1-0.3,0.1-0.4,0c-0.1-0.1,0-0.3,0.1-0.4c0.2-0.1,0.3-0.2,0.5-0.3C153.6,90.3,153.8,90.3,153.9,90.4z"/>
		</g>
		<g>
			<path fill="none" stroke="#F15A24" stroke-miterlimit="10" d="M155.2,89.4c0.1,0.1,0.1,0.3-0.1,0.4c-0.2,0.1-0.3,0.3-0.5,0.4
				c-0.1,0.1-0.3,0.1-0.4,0c-0.1-0.1-0.1-0.3,0.1-0.4c0.2-0.1,0.3-0.2,0.5-0.4C155,89.3,155.1,89.3,155.2,89.4z"/>
		</g>
		<g>
			<path fill="none" stroke="#F15A24" stroke-miterlimit="10" d="M156.5,88.2c0.1,0.1,0.1,0.3,0,0.4c-0.1,0.1-0.3,0.3-0.4,0.4
				c-0.1,0.1-0.3,0.1-0.4,0c-0.1-0.1-0.1-0.3,0-0.4c0.1-0.1,0.3-0.3,0.4-0.4C156.3,88.1,156.4,88.1,156.5,88.2z"/>
		</g>
		<g>
			<path fill="none" stroke="#F15A24" stroke-miterlimit="10" d="M157.7,87c0.1,0.1,0.1,0.3,0,0.4c-0.1,0.2-0.3,0.3-0.4,0.5
				c-0.1,0.1-0.3,0.1-0.4,0c-0.1-0.1-0.1-0.3,0-0.4c0.1-0.1,0.3-0.3,0.4-0.4C157.4,86.9,157.6,86.9,157.7,87z"/>
		</g>
		<g>
			<path fill="none" stroke="#F15A24" stroke-miterlimit="10" d="M158.8,85.6c0.1,0.1,0.1,0.2,0.1,0.4c-0.1,0.2-0.2,0.3-0.4,0.5
				c-0.1,0.1-0.3,0.1-0.4,0.1c-0.1-0.1-0.1-0.2,0-0.4c0.1-0.2,0.2-0.3,0.3-0.5C158.5,85.6,158.6,85.5,158.8,85.6z"/>
		</g>
	</g>
	<g>
		<g>
			<path fill="none" stroke="#F15A24" stroke-miterlimit="10" d="M92.8,76.5c-0.1,0.1-0.2,0.2-0.4,0.1l-0.5-0.3
				c-0.1-0.1-0.2-0.2-0.1-0.3c0.1-0.1,0.2-0.2,0.4-0.1l0.5,0.3C92.8,76.2,92.8,76.4,92.8,76.5z"/>
		</g>
		<g>
			<path fill="none" stroke="#F15A24" stroke-miterlimit="10" d="M94.3,77.3c-0.1,0.1-0.2,0.2-0.4,0.1l-0.5-0.3
				c-0.1-0.1-0.2-0.2-0.1-0.3c0.1-0.1,0.2-0.2,0.4-0.1l0.5,0.3C94.3,77,94.4,77.2,94.3,77.3z"/>
		</g>
		<g>
			<path fill="none" stroke="#F15A24" stroke-miterlimit="10" d="M95.8,78.1c-0.1,0.1-0.2,0.2-0.4,0.1l-0.5-0.3
				c-0.1-0.1-0.2-0.2-0.1-0.3c0.1-0.1,0.2-0.2,0.4-0.1l0.5,0.3C95.8,77.8,95.9,78,95.8,78.1z"/>
		</g>
		<g>
			<path fill="none" stroke="#F15A24" stroke-miterlimit="10" d="M97.3,78.9C97.3,79,97.1,79,97,79l-0.5-0.3
				c-0.1-0.1-0.2-0.2-0.1-0.3c0.1-0.1,0.2-0.2,0.4-0.1l0.5,0.3C97.4,78.6,97.4,78.7,97.3,78.9z"/>
		</g>
		<g>
			<path fill="none" stroke="#F15A24" stroke-miterlimit="10" d="M98.9,79.6c-0.1,0.1-0.2,0.2-0.4,0.1L98,79.5
				c-0.1-0.1-0.2-0.2-0.1-0.3c0.1-0.1,0.2-0.2,0.4-0.1l0.5,0.3C98.9,79.4,98.9,79.5,98.9,79.6z"/>
		</g>
		<g>
			<path fill="none" stroke="#F15A24" stroke-miterlimit="10" d="M100.4,80.4c-0.1,0.1-0.2,0.2-0.4,0.1l-0.5-0.3
				c-0.1-0.1-0.2-0.2-0.1-0.3c0.1-0.1,0.2-0.2,0.4-0.1l0.5,0.3C100.4,80.1,100.5,80.3,100.4,80.4z"/>
		</g>
		<g>
			<path fill="none" stroke="#F15A24" stroke-miterlimit="10" d="M101.9,81.2c-0.1,0.1-0.2,0.2-0.4,0.1L101,81
				c-0.1-0.1-0.2-0.2-0.1-0.3c0.1-0.1,0.2-0.2,0.4-0.1l0.5,0.3C101.9,80.9,102,81,101.9,81.2z"/>
		</g>
		<g>
			<path fill="none" stroke="#F15A24" stroke-miterlimit="10" d="M103.5,81.9c-0.1,0.1-0.2,0.2-0.4,0.1l-0.5-0.3
				c-0.1-0.1-0.2-0.2-0.1-0.3c0.1-0.1,0.2-0.2,0.4-0.1l0.5,0.3C103.5,81.6,103.5,81.8,103.5,81.9z"/>
		</g>
		<g>
			<path fill="none" stroke="#F15A24" stroke-miterlimit="10" d="M105,82.7c-0.1,0.1-0.2,0.2-0.4,0.1l-0.5-0.3
				c-0.1-0.1-0.2-0.2-0.1-0.3c0.1-0.1,0.2-0.2,0.4-0.1l0.5,0.3C105,82.4,105.1,82.5,105,82.7z"/>
		</g>
		<g>
			<path fill="none" stroke="#F15A24" stroke-miterlimit="10" d="M106.5,83.4c-0.1,0.1-0.2,0.2-0.4,0.1l-0.5-0.3
				c-0.1-0.1-0.2-0.2-0.1-0.3c0.1-0.1,0.2-0.2,0.4-0.1l0.5,0.3C106.5,83.1,106.6,83.3,106.5,83.4z"/>
		</g>
		<g>
			<path fill="none" stroke="#F15A24" stroke-miterlimit="10" d="M108.1,84.1c-0.1,0.1-0.2,0.2-0.4,0.1l-0.5-0.3
				c-0.1-0.1-0.2-0.2-0.1-0.3c0.1-0.1,0.2-0.2,0.4-0.1l0.5,0.3C108.1,83.9,108.1,84,108.1,84.1z"/>
		</g>
		<g>
			<path fill="none" stroke="#F15A24" stroke-miterlimit="10" d="M109.6,84.9c-0.1,0.1-0.2,0.2-0.3,0.1l-0.5-0.3
				c-0.1-0.1-0.2-0.2-0.1-0.3c0.1-0.1,0.2-0.2,0.4-0.1l0.5,0.2C109.6,84.6,109.7,84.7,109.6,84.9z"/>
		</g>
		<g>
			<path fill="none" stroke="#F15A24" stroke-miterlimit="10" d="M111.2,85.6c-0.1,0.1-0.2,0.2-0.3,0.1l-0.5-0.2
				c-0.1-0.1-0.2-0.2-0.1-0.3c0.1-0.1,0.2-0.2,0.3-0.1l0.5,0.2C111.2,85.3,111.2,85.4,111.2,85.6z"/>
		</g>
		<g>
			<path fill="none" stroke="#F15A24" stroke-miterlimit="10" d="M112.8,86.3c-0.1,0.1-0.2,0.2-0.3,0.1l-0.5-0.2
				c-0.1-0.1-0.2-0.2-0.1-0.3c0.1-0.1,0.2-0.2,0.3-0.1l0.5,0.2C112.7,86,112.8,86.1,112.8,86.3z"/>
		</g>
		<g>
			<path fill="none" stroke="#F15A24" stroke-miterlimit="10" d="M114.3,87c-0.1,0.1-0.2,0.2-0.4,0.1l-0.5-0.2
				c-0.1-0.1-0.2-0.2-0.1-0.3c0.1-0.1,0.2-0.2,0.3-0.1l0.5,0.2C114.3,86.7,114.4,86.8,114.3,87z"/>
		</g>
		<g>
			<path fill="none" stroke="#F15A24" stroke-miterlimit="10" d="M115.9,87.7c-0.1,0.1-0.2,0.2-0.3,0.1l-0.5-0.2
				c-0.1-0.1-0.2-0.2-0.1-0.3c0.1-0.1,0.2-0.2,0.3-0.1l0.5,0.2C115.9,87.4,115.9,87.5,115.9,87.7z"/>
		</g>
		<g>
			<path fill="none" stroke="#F15A24" stroke-miterlimit="10" d="M117.4,88.3c-0.1,0.1-0.2,0.2-0.3,0.1l-0.5-0.2
				c-0.1-0.1-0.2-0.2-0.2-0.3c0.1-0.1,0.2-0.2,0.3-0.1l0.5,0.2C117.4,88.1,117.5,88.2,117.4,88.3z"/>
		</g>
		<g>
			<path fill="none" stroke="#F15A24" stroke-miterlimit="10" d="M119,89c-0.1,0.1-0.2,0.2-0.3,0.1l-0.5-0.2
				c-0.1-0.1-0.2-0.2-0.2-0.3c0.1-0.1,0.2-0.2,0.3-0.1l0.5,0.2C119,88.7,119.1,88.9,119,89z"/>
		</g>
		<g>
			<path fill="none" stroke="#F15A24" stroke-miterlimit="10" d="M120.6,89.7c-0.1,0.1-0.2,0.2-0.3,0.1l-0.6-0.2
				c-0.1-0.1-0.2-0.2-0.2-0.3c0.1-0.1,0.2-0.2,0.3-0.1l0.6,0.2C120.6,89.4,120.6,89.5,120.6,89.7z"/>
		</g>
		<g>
			<path fill="none" stroke="#F15A24" stroke-miterlimit="10" d="M122.2,90.3c-0.1,0.1-0.2,0.2-0.3,0.1l-0.6-0.2
				c-0.1-0.1-0.2-0.2-0.2-0.3c0.1-0.1,0.2-0.2,0.3-0.1L122,90C122.2,90,122.2,90.2,122.2,90.3z"/>
		</g>
		<g>
			<path fill="none" stroke="#F15A24" stroke-miterlimit="10" d="M123.8,90.9c0,0.1-0.2,0.2-0.3,0.1l-0.6-0.2
				c-0.1-0.1-0.2-0.2-0.2-0.3c0-0.1,0.2-0.2,0.3-0.1l0.6,0.2C123.8,90.6,123.8,90.8,123.8,90.9z"/>
		</g>
		<g>
			<path fill="none" stroke="#F15A24" stroke-miterlimit="10" d="M125.4,91.5c0,0.1-0.2,0.2-0.3,0.1l-0.6-0.2
				c-0.1,0-0.2-0.2-0.2-0.3c0-0.1,0.2-0.2,0.3-0.1l0.6,0.2C125.4,91.2,125.4,91.4,125.4,91.5z"/>
		</g>
		<g>
			<path fill="none" stroke="#F15A24" stroke-miterlimit="10" d="M127,92c0,0.1-0.2,0.2-0.3,0.2l-0.6-0.2c-0.1,0-0.2-0.2-0.2-0.3
				c0-0.1,0.2-0.2,0.3-0.2l0.6,0.2C127,91.7,127.1,91.9,127,92z"/>
		</g>
		<g>
			<path fill="none" stroke="#F15A24" stroke-miterlimit="10" d="M128.7,92.5c0,0.1-0.2,0.2-0.3,0.2l-0.6-0.2
				c-0.1,0-0.2-0.2-0.2-0.3c0-0.1,0.2-0.2,0.3-0.2l0.6,0.2C128.6,92.2,128.7,92.4,128.7,92.5z"/>
		</g>
		<g>
			<path fill="none" stroke="#F15A24" stroke-miterlimit="10" d="M130.3,92.9c0,0.1-0.2,0.2-0.3,0.2l-0.6-0.1
				c-0.1,0-0.2-0.2-0.2-0.3c0-0.1,0.2-0.2,0.3-0.2l0.6,0.1C130.3,92.6,130.3,92.8,130.3,92.9z"/>
		</g>
		<g>
			<path fill="none" stroke="#F15A24" stroke-miterlimit="10" d="M132,93.2c0,0.1-0.2,0.2-0.3,0.2c-0.2,0-0.4-0.1-0.6-0.1
				c-0.1,0-0.2-0.2-0.2-0.3c0-0.1,0.2-0.2,0.3-0.2c0.2,0,0.4,0.1,0.6,0.1C131.9,93,132,93.1,132,93.2z"/>
		</g>
		<g>
			<path fill="none" stroke="#F15A24" stroke-miterlimit="10" d="M133.7,93.5c0,0.1-0.1,0.2-0.3,0.2c-0.2,0-0.4,0-0.6-0.1
				c-0.2,0-0.3-0.1-0.2-0.3c0-0.1,0.2-0.2,0.3-0.2c0.2,0,0.4,0.1,0.6,0.1C133.6,93.2,133.7,93.3,133.7,93.5z"/>
		</g>
		<g>
			<path fill="none" stroke="#F15A24" stroke-miterlimit="10" d="M135.4,93.6c0,0.1-0.1,0.2-0.3,0.2c-0.2,0-0.4,0-0.6,0
				c-0.2,0-0.3-0.1-0.3-0.3c0-0.1,0.1-0.2,0.3-0.2c0.2,0,0.4,0,0.6,0C135.3,93.3,135.4,93.4,135.4,93.6z"/>
		</g>
		<g>
			<path fill="none" stroke="#F15A24" stroke-miterlimit="10" d="M137.1,93.6c0,0.1-0.1,0.3-0.3,0.3c-0.2,0-0.4,0-0.6,0
				c-0.2,0-0.3-0.1-0.3-0.2c0-0.1,0.1-0.2,0.3-0.2c0.2,0,0.4,0,0.6,0C137,93.3,137.1,93.4,137.1,93.6z"/>
		</g>
		<g>
			<path fill="none" stroke="#F15A24" stroke-miterlimit="10" d="M138.8,93.4c0,0.1-0.1,0.3-0.2,0.3c-0.2,0-0.4,0-0.6,0.1
				c-0.1,0-0.3-0.1-0.3-0.2c0-0.1,0.1-0.3,0.3-0.3c0.2,0,0.4,0,0.6-0.1C138.7,93.2,138.8,93.3,138.8,93.4z"/>
		</g>
		<g>
			<path fill="none" stroke="#F15A24" stroke-miterlimit="10" d="M140.5,93.2c0,0.1-0.1,0.3-0.2,0.3c-0.2,0-0.4,0.1-0.6,0.1
				c-0.1,0-0.3-0.1-0.3-0.2c0-0.1,0.1-0.3,0.2-0.3c0.2,0,0.4-0.1,0.6-0.1C140.3,93,140.5,93.1,140.5,93.2z"/>
		</g>
		<g>
			<path fill="none" stroke="#F15A24" stroke-miterlimit="10" d="M142.2,92.8c0,0.1-0.1,0.3-0.2,0.3c-0.2,0-0.4,0.1-0.6,0.1
				c-0.1,0-0.3-0.1-0.3-0.2c0-0.1,0.1-0.3,0.2-0.3c0.2,0,0.4-0.1,0.6-0.1C142,92.6,142.1,92.7,142.2,92.8z"/>
		</g>
		<g>
			<path fill="none" stroke="#F15A24" stroke-miterlimit="10" d="M143.8,92.4c0,0.1,0,0.3-0.2,0.3c-0.2,0.1-0.4,0.1-0.6,0.2
				c-0.1,0-0.3,0-0.3-0.2c0-0.1,0.1-0.3,0.2-0.3c0.2-0.1,0.4-0.1,0.6-0.2C143.6,92.2,143.8,92.3,143.8,92.4z"/>
		</g>
		<g>
			<path fill="none" stroke="#F15A24" stroke-miterlimit="10" d="M145.4,91.9c0,0.1,0,0.3-0.2,0.3l-0.6,0.2c-0.1,0-0.3,0-0.3-0.2
				c0-0.1,0-0.3,0.2-0.3l0.6-0.2C145.2,91.7,145.4,91.7,145.4,91.9z"/>
		</g>
		<g>
			<path fill="none" stroke="#F15A24" stroke-miterlimit="10" d="M147,91.2c0.1,0.1,0,0.3-0.2,0.3l-0.6,0.2c-0.1,0.1-0.3,0-0.3-0.1
				c0-0.1,0-0.3,0.2-0.3l0.5-0.2C146.8,91.1,147,91.1,147,91.2z"/>
		</g>
		<g>
			<path fill="none" stroke="#F15A24" stroke-miterlimit="10" d="M148.6,90.5c0.1,0.1,0,0.3-0.1,0.3c-0.2,0.1-0.4,0.2-0.5,0.3
				c-0.1,0.1-0.3,0-0.4-0.1c-0.1-0.1,0-0.3,0.1-0.3l0.5-0.3C148.4,90.4,148.5,90.4,148.6,90.5z"/>
		</g>
		<g>
			<path fill="none" stroke="#F15A24" stroke-miterlimit="10" d="M150.1,89.7c0.1,0.1,0,0.3-0.1,0.3c-0.2,0.1-0.4,0.2-0.5,0.3
				c-0.1,0.1-0.3,0-0.4-0.1c-0.1-0.1,0-0.3,0.1-0.3c0.2-0.1,0.3-0.2,0.5-0.3C149.9,89.6,150,89.6,150.1,89.7z"/>
		</g>
		<g>
			<path fill="none" stroke="#F15A24" stroke-miterlimit="10" d="M151.6,88.9c0.1,0.1,0,0.3-0.1,0.4c-0.2,0.1-0.3,0.2-0.5,0.3
				c-0.1,0.1-0.3,0-0.4-0.1c-0.1-0.1,0-0.3,0.1-0.4c0.2-0.1,0.3-0.2,0.5-0.3C151.4,88.7,151.5,88.8,151.6,88.9z"/>
		</g>
		<g>
			<path fill="none" stroke="#F15A24" stroke-miterlimit="10" d="M153,87.9c0.1,0.1,0,0.3-0.1,0.4c-0.2,0.1-0.3,0.2-0.5,0.3
				c-0.1,0.1-0.3,0.1-0.4-0.1c-0.1-0.1,0-0.3,0.1-0.4c0.2-0.1,0.3-0.2,0.5-0.3C152.8,87.8,152.9,87.8,153,87.9z"/>
		</g>
		<g>
			<path fill="none" stroke="#F15A24" stroke-miterlimit="10" d="M154.4,86.9c0.1,0.1,0.1,0.3-0.1,0.4c-0.2,0.1-0.3,0.2-0.5,0.4
				c-0.1,0.1-0.3,0.1-0.4,0c-0.1-0.1,0-0.3,0.1-0.4c0.2-0.1,0.3-0.2,0.5-0.4C154.1,86.8,154.3,86.8,154.4,86.9z"/>
		</g>
		<g>
			<path fill="none" stroke="#F15A24" stroke-miterlimit="10" d="M155.7,85.8c0.1,0.1,0.1,0.3,0,0.4c-0.1,0.1-0.3,0.3-0.5,0.4
				c-0.1,0.1-0.3,0.1-0.4,0c-0.1-0.1-0.1-0.3,0-0.4c0.1-0.1,0.3-0.3,0.4-0.4C155.4,85.7,155.6,85.7,155.7,85.8z"/>
		</g>
		<g>
			<path fill="none" stroke="#F15A24" stroke-miterlimit="10" d="M156.9,84.6c0.1,0.1,0.1,0.3,0,0.4c-0.1,0.1-0.3,0.3-0.4,0.4
				c-0.1,0.1-0.3,0.1-0.4,0c-0.1-0.1-0.1-0.3,0-0.4c0.1-0.1,0.3-0.3,0.4-0.4C156.6,84.5,156.8,84.5,156.9,84.6z"/>
		</g>
	</g>
</g>
<g>
	<g>
		<g>
			<path fill="none" stroke="#F15A24" stroke-miterlimit="10" d="M88.3,71.9c0.1,0,0.2,0.1,0.2,0.3v0.6c0,0.2-0.1,0.3-0.2,0.3
				c-0.1,0-0.2-0.1-0.2-0.3l0-0.6C88,72,88.1,71.9,88.3,71.9z"/>
		</g>
		<g>
			<path fill="none" stroke="#F15A24" stroke-miterlimit="10" d="M88.3,70.2c0.1,0,0.2,0.1,0.2,0.3l0,0.6c0,0.2-0.1,0.3-0.2,0.3
				c-0.1,0-0.2-0.1-0.2-0.3l0-0.6C88,70.3,88.1,70.2,88.3,70.2z"/>
		</g>
		<g>
			<path fill="none" stroke="#F15A24" stroke-miterlimit="10" d="M88.3,68.4c0.1,0,0.2,0.1,0.2,0.3l0,0.6c0,0.2-0.1,0.3-0.2,0.3
				c-0.1,0-0.2-0.1-0.2-0.3l0-0.6C88,68.6,88.1,68.4,88.3,68.4z"/>
		</g>
		<g>
			<path fill="none" stroke="#F15A24" stroke-miterlimit="10" d="M88.2,66.7c0.1,0,0.2,0.1,0.3,0.3l0,0.6c0,0.2-0.1,0.3-0.2,0.3
				c-0.1,0-0.2-0.1-0.3-0.3l0-0.6C88,66.8,88.1,66.7,88.2,66.7z"/>
		</g>
		<g>
			<path fill="none" stroke="#F15A24" stroke-miterlimit="10" d="M88.2,65c0.1,0,0.3,0.1,0.3,0.3l0,0.6c0,0.2-0.1,0.3-0.2,0.3
				c-0.1,0-0.2-0.1-0.3-0.3l0-0.6C88,65.1,88.1,65,88.2,65z"/>
		</g>
		<g>
			<path fill="none" stroke="#F15A24" stroke-miterlimit="10" d="M88.2,63.2c0.1,0,0.3,0.1,0.3,0.3l0,0.6c0,0.2-0.1,0.3-0.2,0.3
				c-0.1,0-0.3-0.1-0.3-0.3l0-0.6C87.9,63.4,88,63.2,88.2,63.2z"/>
		</g>
		<g>
			<path fill="none" stroke="#F15A24" stroke-miterlimit="10" d="M88.1,61.5c0.1,0,0.3,0.1,0.3,0.3l0,0.6c0,0.2-0.1,0.3-0.2,0.3
				c-0.1,0-0.3-0.1-0.3-0.3l0-0.6C87.9,61.6,88,61.5,88.1,61.5z"/>
		</g>
		<g>
			<path fill="none" stroke="#F15A24" stroke-miterlimit="10" d="M88,59.7c0.1,0,0.3,0.1,0.3,0.3l0,0.6c0,0.2-0.1,0.3-0.2,0.3
				c-0.1,0-0.3-0.1-0.3-0.3l0-0.6C87.8,59.9,87.9,59.8,88,59.7z"/>
		</g>
		<g>
			<path fill="none" stroke="#F15A24" stroke-miterlimit="10" d="M87.9,58c0.1,0,0.3,0.1,0.3,0.3l0,0.6c0,0.2-0.1,0.3-0.2,0.3
				c-0.1,0-0.3-0.1-0.3-0.3l0-0.6C87.7,58.1,87.8,58,87.9,58z"/>
		</g>
		<g>
			<path fill="none" stroke="#F15A24" stroke-miterlimit="10" d="M87.8,56.3c0.1,0,0.3,0.1,0.3,0.3l0,0.6c0,0.2-0.1,0.3-0.2,0.3
				c-0.1,0-0.3-0.1-0.3-0.3l0-0.6C87.6,56.4,87.7,56.3,87.8,56.3z"/>
		</g>
		<g>
			<path fill="none" stroke="#F15A24" stroke-miterlimit="10" d="M87.7,54.5c0.1,0,0.3,0.1,0.3,0.3l0,0.6c0,0.2-0.1,0.3-0.2,0.3
				c-0.1,0-0.3-0.1-0.3-0.3l0-0.6C87.5,54.7,87.6,54.6,87.7,54.5z"/>
		</g>
		<g>
			<path fill="none" stroke="#F15A24" stroke-miterlimit="10" d="M87.6,52.8c0.1,0,0.3,0.1,0.3,0.3l0,0.6c0,0.2-0.1,0.3-0.2,0.3
				c-0.1,0-0.3-0.1-0.3-0.3l0-0.6C87.3,53,87.4,52.8,87.6,52.8z"/>
		</g>
		<g>
			<path fill="none" stroke="#F15A24" stroke-miterlimit="10" d="M87.4,51.1c0.1,0,0.3,0.1,0.3,0.3l0.1,0.6c0,0.2-0.1,0.3-0.2,0.3
				c-0.1,0-0.3-0.1-0.3-0.3l-0.1-0.6C87.2,51.2,87.3,51.1,87.4,51.1z"/>
		</g>
		<g>
			<path fill="none" stroke="#F15A24" stroke-miterlimit="10" d="M87.2,49.4c0.1,0,0.3,0.1,0.3,0.2l0.1,0.6c0,0.2-0.1,0.3-0.2,0.3
				c-0.1,0-0.3-0.1-0.3-0.2L87,49.7C87,49.5,87.1,49.4,87.2,49.4z"/>
		</g>
		<g>
			<path fill="none" stroke="#F15A24" stroke-miterlimit="10" d="M87,47.6c0.1,0,0.3,0.1,0.3,0.2l0.1,0.6c0,0.2-0.1,0.3-0.2,0.3
				c-0.1,0-0.3-0.1-0.3-0.2l-0.1-0.6C86.8,47.8,86.9,47.6,87,47.6z"/>
		</g>
		<g>
			<path fill="none" stroke="#F15A24" stroke-miterlimit="10" d="M86.8,45.9c0.1,0,0.3,0.1,0.3,0.2l0.1,0.6c0,0.2-0.1,0.3-0.2,0.3
				c-0.1,0-0.3-0.1-0.3-0.2l-0.1-0.6C86.6,46.1,86.7,45.9,86.8,45.9z"/>
		</g>
		<g>
			<path fill="none" stroke="#F15A24" stroke-miterlimit="10" d="M86.5,44.2c0.1,0,0.3,0.1,0.3,0.2l0.1,0.6c0,0.2-0.1,0.3-0.2,0.3
				c-0.1,0-0.3-0.1-0.3-0.2l-0.1-0.6C86.3,44.4,86.4,44.2,86.5,44.2z"/>
		</g>
		<g>
			<path fill="none" stroke="#F15A24" stroke-miterlimit="10" d="M86.3,42.5c0.1,0,0.3,0.1,0.3,0.2l0.1,0.6c0,0.2-0.1,0.3-0.2,0.3
				c-0.1,0-0.3-0.1-0.3-0.2l-0.1-0.6C86,42.6,86.1,42.5,86.3,42.5z"/>
		</g>
		<g>
			<path fill="none" stroke="#F15A24" stroke-miterlimit="10" d="M85.9,40.8c0.1,0,0.3,0.1,0.3,0.2l0.1,0.6c0,0.1-0.1,0.3-0.2,0.3
				c-0.1,0-0.3-0.1-0.3-0.2l-0.1-0.6C85.7,40.9,85.8,40.8,85.9,40.8z"/>
		</g>
		<g>
			<path fill="none" stroke="#F15A24" stroke-miterlimit="10" d="M85.6,39.1c0.1,0,0.3,0.1,0.3,0.2l0.1,0.6c0,0.1-0.1,0.3-0.2,0.3
				c-0.1,0-0.3-0.1-0.3-0.2l-0.1-0.6C85.4,39.2,85.5,39.1,85.6,39.1z"/>
		</g>
		<g>
			<path fill="none" stroke="#F15A24" stroke-miterlimit="10" d="M85.2,37.4c0.1,0,0.3,0.1,0.3,0.2l0.1,0.6c0,0.1,0,0.3-0.2,0.3
				c-0.1,0-0.3-0.1-0.3-0.2L85,37.7C85,37.5,85.1,37.4,85.2,37.4z"/>
		</g>
		<g>
			<path fill="none" stroke="#F15A24" stroke-miterlimit="10" d="M84.8,35.7c0.1,0,0.3,0.1,0.3,0.2l0.1,0.6c0,0.1,0,0.3-0.2,0.3
				c-0.1,0-0.3-0.1-0.3-0.2L84.6,36C84.6,35.9,84.7,35.7,84.8,35.7z"/>
		</g>
		<g>
			<path fill="none" stroke="#F15A24" stroke-miterlimit="10" d="M84.4,34c0.1,0,0.3,0.1,0.3,0.2l0.2,0.6c0,0.1,0,0.3-0.2,0.3
				c-0.1,0-0.3-0.1-0.3-0.2l-0.2-0.6C84.2,34.2,84.3,34,84.4,34z"/>
		</g>
		<g>
			<path fill="none" stroke="#F15A24" stroke-miterlimit="10" d="M83.9,32.3c0.1,0,0.3,0.1,0.3,0.2l0.2,0.6c0,0.1,0,0.3-0.2,0.3
				c-0.1,0-0.3-0.1-0.3-0.2l-0.2-0.6C83.7,32.5,83.8,32.4,83.9,32.3z"/>
		</g>
		<g>
			<path fill="none" stroke="#F15A24" stroke-miterlimit="10" d="M83.4,30.7c0.1,0,0.3,0,0.3,0.2l0.2,0.6c0,0.1,0,0.3-0.2,0.3
				c-0.1,0-0.3,0-0.3-0.2L83.3,31C83.2,30.9,83.3,30.7,83.4,30.7z"/>
		</g>
		<g>
			<path fill="none" stroke="#F15A24" stroke-miterlimit="10" d="M82.9,29c0.1,0,0.3,0,0.3,0.2l0.2,0.6c0,0.1,0,0.3-0.1,0.3
				c-0.1,0-0.3,0-0.3-0.2l-0.2-0.6C82.7,29.2,82.7,29.1,82.9,29z"/>
		</g>
		<g>
			<path fill="none" stroke="#F15A24" stroke-miterlimit="10" d="M82.3,27.4c0.1,0,0.3,0,0.3,0.2l0.2,0.6c0.1,0.1,0,0.3-0.1,0.3
				c-0.1,0-0.3,0-0.3-0.2l-0.2-0.6C82.1,27.6,82.2,27.4,82.3,27.4z"/>
		</g>
		<g>
			<path fill="none" stroke="#F15A24" stroke-miterlimit="10" d="M81.7,25.8c0.1,0,0.3,0,0.3,0.2l0.2,0.6c0.1,0.1,0,0.3-0.1,0.3
				c-0.1,0-0.3,0-0.3-0.2l-0.2-0.6C81.5,26,81.5,25.8,81.7,25.8z"/>
		</g>
		<g>
			<path fill="none" stroke="#F15A24" stroke-miterlimit="10" d="M81,24.2c0.1-0.1,0.3,0,0.3,0.2l0.2,0.6c0.1,0.1,0,0.3-0.1,0.3
				c-0.1,0.1-0.3,0-0.3-0.2l-0.2-0.6C80.8,24.4,80.9,24.2,81,24.2z"/>
		</g>
		<g>
			<path fill="none" stroke="#F15A24" stroke-miterlimit="10" d="M80.3,22.6c0.1-0.1,0.3,0,0.3,0.1l0.2,0.6c0.1,0.1,0,0.3-0.1,0.4
				c-0.1,0.1-0.3,0-0.3-0.2l-0.2-0.6C80.1,22.8,80.2,22.6,80.3,22.6z"/>
		</g>
		<g>
			<path fill="none" stroke="#F15A24" stroke-miterlimit="10" d="M79.6,21c0.1-0.1,0.3,0,0.3,0.1l0.3,0.5c0.1,0.1,0,0.3-0.1,0.4
				c-0.1,0.1-0.3,0-0.3-0.1l-0.3-0.5C79.4,21.2,79.4,21.1,79.6,21z"/>
		</g>
		<g>
			<path fill="none" stroke="#F15A24" stroke-miterlimit="10" d="M78.8,19.4c0.1-0.1,0.3,0,0.3,0.1l0.3,0.5c0.1,0.1,0,0.3-0.1,0.4
				c-0.1,0.1-0.3,0-0.3-0.1l-0.3-0.5C78.6,19.7,78.6,19.5,78.8,19.4z"/>
		</g>
		<g>
			<path fill="none" stroke="#F15A24" stroke-miterlimit="10" d="M77.9,17.9c0.1-0.1,0.3,0,0.4,0.1l0.3,0.5c0.1,0.1,0,0.3-0.1,0.4
				c-0.1,0.1-0.3,0-0.3-0.1l-0.3-0.5C77.8,18.1,77.8,18,77.9,17.9z"/>
		</g>
		<g>
			<path fill="none" stroke="#F15A24" stroke-miterlimit="10" d="M77.1,16.4c0.1-0.1,0.3,0,0.4,0.1l0.3,0.5c0.1,0.1,0,0.3-0.1,0.4
				c-0.1,0.1-0.3,0-0.4-0.1L77,16.8C76.9,16.6,77,16.5,77.1,16.4z"/>
		</g>
		<g>
			<path fill="none" stroke="#F15A24" stroke-miterlimit="10" d="M76.2,14.9c0.1-0.1,0.3,0,0.4,0.1l0.3,0.5c0.1,0.1,0.1,0.3-0.1,0.4
				c-0.1,0.1-0.3,0-0.4-0.1l-0.3-0.5C76,15.2,76,15,76.2,14.9z"/>
		</g>
		<g>
			<path fill="none" stroke="#F15A24" stroke-miterlimit="10" d="M75.2,13.5c0.1-0.1,0.3,0,0.4,0.1l0.3,0.5c0.1,0.1,0.1,0.3-0.1,0.4
				c-0.1,0.1-0.3,0-0.4-0.1l-0.3-0.5C75.1,13.7,75.1,13.6,75.2,13.5z"/>
		</g>
		<g>
			<path fill="none" stroke="#F15A24" stroke-miterlimit="10" d="M74.2,12.1c0.1-0.1,0.3,0,0.4,0.1l0.4,0.5c0.1,0.1,0.1,0.3,0,0.4
				c-0.1,0.1-0.3,0-0.4-0.1l-0.3-0.5C74.1,12.3,74.1,12.1,74.2,12.1z"/>
		</g>
		<g>
			<path fill="none" stroke="#F15A24" stroke-miterlimit="10" d="M73.2,10.7c0.1-0.1,0.3-0.1,0.4,0.1l0.4,0.5c0.1,0.1,0.1,0.3,0,0.4
				c-0.1,0.1-0.3,0-0.4-0.1L73.1,11C73.1,10.9,73.1,10.7,73.2,10.7z"/>
		</g>
		<g>
			<path fill="none" stroke="#F15A24" stroke-miterlimit="10" d="M72.1,9.3c0.1-0.1,0.3-0.1,0.4,0.1l0.4,0.5c0.1,0.1,0.1,0.3,0,0.4
				c-0.1,0.1-0.3,0.1-0.4-0.1l-0.4-0.5C72,9.5,72,9.4,72.1,9.3z"/>
		</g>
		<g>
			<path fill="none" stroke="#F15A24" stroke-miterlimit="10" d="M71,8c0.1-0.1,0.3-0.1,0.4,0l0.4,0.5c0.1,0.1,0.1,0.3,0,0.4
				c-0.1,0.1-0.3,0.1-0.4-0.1L71,8.3C70.9,8.2,70.9,8,71,8z"/>
		</g>
		<g>
			<path fill="none" stroke="#F15A24" stroke-miterlimit="10" d="M69.8,6.7c0.1-0.1,0.3-0.1,0.4,0l0.4,0.5c0.1,0.1,0.1,0.3,0,0.4
				c-0.1,0.1-0.3,0.1-0.4,0L69.8,7C69.7,6.9,69.7,6.8,69.8,6.7z"/>
		</g>
		<g>
			<path fill="none" stroke="#F15A24" stroke-miterlimit="10" d="M68.6,5.4c0.1-0.1,0.3-0.1,0.4,0l0.4,0.4c0.1,0.1,0.1,0.3,0,0.4
				c-0.1,0.1-0.3,0.1-0.4,0l-0.4-0.4C68.6,5.7,68.5,5.5,68.6,5.4z"/>
		</g>
		<g>
			<path fill="none" stroke="#F15A24" stroke-miterlimit="10" d="M67.4,4.2c0.1-0.1,0.3-0.1,0.4,0l0.4,0.4c0.1,0.1,0.1,0.3,0,0.4
				c-0.1,0.1-0.3,0.1-0.4,0l-0.4-0.4C67.3,4.4,67.3,4.3,67.4,4.2z"/>
		</g>
	</g>
	<g>
		<g>
			<path fill="none" stroke="#F15A24" stroke-miterlimit="10" d="M83.8,71.9c0.1,0,0.2,0.1,0.2,0.3l0,0.6c0,0.1-0.1,0.3-0.3,0.3
				c-0.1,0-0.2-0.1-0.2-0.3l0-0.6C83.6,72,83.7,71.9,83.8,71.9z"/>
		</g>
		<g>
			<path fill="none" stroke="#F15A24" stroke-miterlimit="10" d="M83.9,70.2c0.1,0,0.2,0.1,0.2,0.3l0,0.6c0,0.1-0.1,0.3-0.2,0.3
				c-0.1,0-0.2-0.1-0.2-0.3l0-0.6C83.6,70.3,83.7,70.2,83.9,70.2z"/>
		</g>
		<g>
			<path fill="none" stroke="#F15A24" stroke-miterlimit="10" d="M83.9,68.5c0.1,0,0.2,0.1,0.2,0.3l0,0.6c0,0.1-0.1,0.3-0.2,0.3
				c-0.1,0-0.2-0.1-0.2-0.3l0-0.6C83.6,68.6,83.7,68.5,83.9,68.5z"/>
		</g>
		<g>
			<path fill="none" stroke="#F15A24" stroke-miterlimit="10" d="M83.8,66.8c0.1,0,0.2,0.1,0.3,0.3l0,0.6c0,0.2-0.1,0.3-0.2,0.3
				c-0.1,0-0.2-0.1-0.3-0.3l0-0.6C83.6,66.9,83.7,66.8,83.8,66.8z"/>
		</g>
		<g>
			<path fill="none" stroke="#F15A24" stroke-miterlimit="10" d="M83.8,65.1c0.1,0,0.3,0.1,0.3,0.3l0,0.6c0,0.1-0.1,0.3-0.2,0.3
				c-0.1,0-0.2-0.1-0.3-0.3l0-0.6C83.6,65.2,83.7,65.1,83.8,65.1z"/>
		</g>
		<g>
			<path fill="none" stroke="#F15A24" stroke-miterlimit="10" d="M83.8,63.4c0.1,0,0.3,0.1,0.3,0.3l0,0.6c0,0.1-0.1,0.3-0.2,0.3
				c-0.1,0-0.3-0.1-0.3-0.3l0-0.6C83.5,63.5,83.6,63.4,83.8,63.4z"/>
		</g>
		<g>
			<path fill="none" stroke="#F15A24" stroke-miterlimit="10" d="M83.7,61.6c0.1,0,0.3,0.1,0.3,0.3l0,0.6c0,0.1-0.1,0.3-0.2,0.3
				c-0.1,0-0.3-0.1-0.3-0.3l0-0.6C83.5,61.8,83.6,61.6,83.7,61.6z"/>
		</g>
		<g>
			<path fill="none" stroke="#F15A24" stroke-miterlimit="10" d="M83.6,59.9c0.1,0,0.3,0.1,0.3,0.3l0,0.6c0,0.1-0.1,0.3-0.2,0.3
				c-0.1,0-0.3-0.1-0.3-0.3l0-0.6C83.4,60.1,83.5,59.9,83.6,59.9z"/>
		</g>
		<g>
			<path fill="none" stroke="#F15A24" stroke-miterlimit="10" d="M83.5,58.2c0.1,0,0.3,0.1,0.3,0.3l0,0.6c0,0.2-0.1,0.3-0.2,0.3
				c-0.1,0-0.3-0.1-0.3-0.3l0-0.6C83.3,58.4,83.4,58.2,83.5,58.2z"/>
		</g>
		<g>
			<path fill="none" stroke="#F15A24" stroke-miterlimit="10" d="M83.4,56.5c0.1,0,0.3,0.1,0.3,0.3l0,0.6c0,0.1-0.1,0.3-0.2,0.3
				c-0.1,0-0.3-0.1-0.3-0.3l0-0.6C83.2,56.6,83.3,56.5,83.4,56.5z"/>
		</g>
		<g>
			<path fill="none" stroke="#F15A24" stroke-miterlimit="10" d="M83.3,54.8c0.1,0,0.3,0.1,0.3,0.3l0,0.6c0,0.1-0.1,0.3-0.2,0.3
				c-0.1,0-0.3-0.1-0.3-0.3l0-0.6C83,54.9,83.1,54.8,83.3,54.8z"/>
		</g>
		<g>
			<path fill="none" stroke="#F15A24" stroke-miterlimit="10" d="M83.1,53.1c0.1,0,0.3,0.1,0.3,0.2l0.1,0.6c0,0.1-0.1,0.3-0.2,0.3
				c-0.1,0-0.3-0.1-0.3-0.2l-0.1-0.6C82.9,53.2,83,53.1,83.1,53.1z"/>
		</g>
		<g>
			<path fill="none" stroke="#F15A24" stroke-miterlimit="10" d="M82.9,51.4c0.1,0,0.3,0.1,0.3,0.2l0.1,0.6c0,0.1-0.1,0.3-0.2,0.3
				c-0.1,0-0.3-0.1-0.3-0.2l-0.1-0.6C82.7,51.5,82.8,51.4,82.9,51.4z"/>
		</g>
		<g>
			<path fill="none" stroke="#F15A24" stroke-miterlimit="10" d="M82.7,49.7c0.1,0,0.3,0.1,0.3,0.2l0.1,0.6c0,0.1-0.1,0.3-0.2,0.3
				c-0.1,0-0.3-0.1-0.3-0.2L82.5,50C82.5,49.8,82.6,49.7,82.7,49.7z"/>
		</g>
		<g>
			<path fill="none" stroke="#F15A24" stroke-miterlimit="10" d="M82.5,48c0.1,0,0.3,0.1,0.3,0.2l0.1,0.6c0,0.1-0.1,0.3-0.2,0.3
				c-0.1,0-0.3-0.1-0.3-0.2l-0.1-0.6C82.3,48.1,82.4,48,82.5,48z"/>
		</g>
		<g>
			<path fill="none" stroke="#F15A24" stroke-miterlimit="10" d="M82.3,46.3c0.1,0,0.3,0.1,0.3,0.2l0.1,0.6c0,0.1-0.1,0.3-0.2,0.3
				c-0.1,0-0.3-0.1-0.3-0.2l-0.1-0.6C82.1,46.4,82.2,46.3,82.3,46.3z"/>
		</g>
		<g>
			<path fill="none" stroke="#F15A24" stroke-miterlimit="10" d="M82,44.6c0.1,0,0.3,0.1,0.3,0.2l0.1,0.6c0,0.1-0.1,0.3-0.2,0.3
				c-0.1,0-0.3-0.1-0.3-0.2l-0.1-0.6C81.8,44.7,81.9,44.6,82,44.6z"/>
		</g>
		<g>
			<path fill="none" stroke="#F15A24" stroke-miterlimit="10" d="M81.8,42.9c0.1,0,0.3,0.1,0.3,0.2l0.1,0.6c0,0.1-0.1,0.3-0.2,0.3
				c-0.1,0-0.3-0.1-0.3-0.2l-0.1-0.6C81.5,43,81.6,42.9,81.8,42.9z"/>
		</g>
		<g>
			<path fill="none" stroke="#F15A24" stroke-miterlimit="10" d="M81.5,41.2c0.1,0,0.3,0.1,0.3,0.2l0.1,0.6c0,0.1-0.1,0.3-0.2,0.3
				c-0.1,0-0.3-0.1-0.3-0.2l-0.1-0.6C81.2,41.4,81.3,41.2,81.5,41.2z"/>
		</g>
		<g>
			<path fill="none" stroke="#F15A24" stroke-miterlimit="10" d="M81.1,39.5c0.1,0,0.3,0.1,0.3,0.2l0.1,0.6c0,0.1-0.1,0.3-0.2,0.3
				c-0.1,0-0.3-0.1-0.3-0.2L81,39.8C80.9,39.7,81,39.5,81.1,39.5z"/>
		</g>
		<g>
			<path fill="none" stroke="#F15A24" stroke-miterlimit="10" d="M80.8,37.8c0.1,0,0.3,0.1,0.3,0.2l0.1,0.6c0,0.1-0.1,0.3-0.2,0.3
				c-0.1,0-0.3-0.1-0.3-0.2l-0.1-0.6C80.6,38,80.7,37.9,80.8,37.8z"/>
		</g>
		<g>
			<path fill="none" stroke="#F15A24" stroke-miterlimit="10" d="M80.4,36.2c0.1,0,0.3,0.1,0.3,0.2l0.1,0.6c0,0.1-0.1,0.3-0.2,0.3
				c-0.1,0-0.3-0.1-0.3-0.2l-0.1-0.6C80.2,36.3,80.3,36.2,80.4,36.2z"/>
		</g>
		<g>
			<path fill="none" stroke="#F15A24" stroke-miterlimit="10" d="M80,34.5c0.1,0,0.3,0.1,0.3,0.2l0.1,0.6c0,0.1,0,0.3-0.2,0.3
				c-0.1,0-0.3-0.1-0.3-0.2l-0.1-0.6C79.8,34.7,79.9,34.5,80,34.5z"/>
		</g>
		<g>
			<path fill="none" stroke="#F15A24" stroke-miterlimit="10" d="M79.6,32.8c0.1,0,0.3,0.1,0.3,0.2l0.2,0.6c0,0.1,0,0.3-0.2,0.3
				c-0.1,0-0.3-0.1-0.3-0.2l-0.2-0.6C79.4,33,79.5,32.9,79.6,32.8z"/>
		</g>
		<g>
			<path fill="none" stroke="#F15A24" stroke-miterlimit="10" d="M79.1,31.2c0.1,0,0.3,0,0.3,0.2l0.2,0.6c0,0.1,0,0.3-0.2,0.3
				c-0.1,0-0.3-0.1-0.3-0.2L79,31.5C78.9,31.4,79,31.2,79.1,31.2z"/>
		</g>
		<g>
			<path fill="none" stroke="#F15A24" stroke-miterlimit="10" d="M78.6,29.5c0.1,0,0.3,0,0.3,0.2l0.2,0.6c0,0.1,0,0.3-0.2,0.3
				c-0.1,0-0.3,0-0.3-0.2l-0.2-0.6C78.4,29.7,78.5,29.6,78.6,29.5z"/>
		</g>
		<g>
			<path fill="none" stroke="#F15A24" stroke-miterlimit="10" d="M78.1,27.9c0.1,0,0.3,0,0.3,0.2l0.2,0.6c0,0.1,0,0.3-0.2,0.3
				c-0.1,0-0.3,0-0.3-0.2L78,28.2C77.9,28.1,78,27.9,78.1,27.9z"/>
		</g>
		<g>
			<path fill="none" stroke="#F15A24" stroke-miterlimit="10" d="M77.6,26.3c0.1,0,0.3,0,0.3,0.2l0.2,0.6c0,0.1,0,0.3-0.1,0.3
				c-0.1,0-0.3,0-0.3-0.2l-0.2-0.6C77.4,26.5,77.5,26.3,77.6,26.3z"/>
		</g>
		<g>
			<path fill="none" stroke="#F15A24" stroke-miterlimit="10" d="M77,24.7c0.1,0,0.3,0,0.3,0.2l0.2,0.6c0.1,0.1,0,0.3-0.1,0.3
				c-0.1,0-0.3,0-0.3-0.2L76.9,25C76.8,24.9,76.9,24.7,77,24.7z"/>
		</g>
		<g>
			<path fill="none" stroke="#F15A24" stroke-miterlimit="10" d="M76.4,23.1c0.1-0.1,0.3,0,0.3,0.2l0.2,0.6c0.1,0.1,0,0.3-0.1,0.3
				c-0.1,0-0.3,0-0.3-0.2l-0.2-0.6C76.2,23.3,76.3,23.1,76.4,23.1z"/>
		</g>
		<g>
			<path fill="none" stroke="#F15A24" stroke-miterlimit="10" d="M75.7,21.5c0.1-0.1,0.3,0,0.3,0.2l0.2,0.6c0.1,0.1,0,0.3-0.1,0.3
				c-0.1,0.1-0.3,0-0.3-0.2l-0.2-0.6C75.6,21.7,75.6,21.5,75.7,21.5z"/>
		</g>
		<g>
			<path fill="none" stroke="#F15A24" stroke-miterlimit="10" d="M75,19.9c0.1-0.1,0.3,0,0.3,0.1l0.2,0.6c0.1,0.1,0,0.3-0.1,0.3
				c-0.1,0.1-0.3,0-0.3-0.2l-0.2-0.5C74.9,20.1,74.9,20,75,19.9z"/>
		</g>
		<g>
			<path fill="none" stroke="#F15A24" stroke-miterlimit="10" d="M74.3,18.3c0.1-0.1,0.3,0,0.3,0.1l0.3,0.5c0.1,0.1,0,0.3-0.1,0.4
				c-0.1,0.1-0.3,0-0.3-0.1l-0.3-0.5C74.2,18.6,74.2,18.4,74.3,18.3z"/>
		</g>
		<g>
			<path fill="none" stroke="#F15A24" stroke-miterlimit="10" d="M73.6,16.8c0.1-0.1,0.3,0,0.3,0.1l0.3,0.5c0.1,0.1,0,0.3-0.1,0.4
				c-0.1,0.1-0.3,0-0.3-0.1l-0.3-0.5C73.4,17,73.4,16.9,73.6,16.8z"/>
		</g>
		<g>
			<path fill="none" stroke="#F15A24" stroke-miterlimit="10" d="M72.8,15.3c0.1-0.1,0.3,0,0.3,0.1l0.3,0.5c0.1,0.1,0,0.3-0.1,0.4
				c-0.1,0.1-0.3,0-0.3-0.1l-0.3-0.5C72.6,15.5,72.6,15.4,72.8,15.3z"/>
		</g>
		<g>
			<path fill="none" stroke="#F15A24" stroke-miterlimit="10" d="M71.9,13.8c0.1-0.1,0.3,0,0.4,0.1l0.3,0.5c0.1,0.1,0,0.3-0.1,0.4
				c-0.1,0.1-0.3,0-0.3-0.1l-0.3-0.5C71.8,14,71.8,13.9,71.9,13.8z"/>
		</g>
		<g>
			<path fill="none" stroke="#F15A24" stroke-miterlimit="10" d="M71,12.3c0.1-0.1,0.3,0,0.4,0.1l0.3,0.5c0.1,0.1,0,0.3-0.1,0.4
				c-0.1,0.1-0.3,0-0.4-0.1L71,12.7C70.9,12.6,70.9,12.4,71,12.3z"/>
		</g>
		<g>
			<path fill="none" stroke="#F15A24" stroke-miterlimit="10" d="M70.1,10.9c0.1-0.1,0.3,0,0.4,0.1l0.3,0.5c0.1,0.1,0.1,0.3-0.1,0.4
				c-0.1,0.1-0.3,0-0.4-0.1L70,11.3C70,11.1,70,11,70.1,10.9z"/>
		</g>
		<g>
			<path fill="none" stroke="#F15A24" stroke-miterlimit="10" d="M69.1,9.5c0.1-0.1,0.3,0,0.4,0.1l0.3,0.5c0.1,0.1,0.1,0.3,0,0.4
				c-0.1,0.1-0.3,0-0.4-0.1l-0.3-0.5C69,9.7,69,9.6,69.1,9.5z"/>
		</g>
		<g>
			<path fill="none" stroke="#F15A24" stroke-miterlimit="10" d="M68.1,8.1c0.1-0.1,0.3-0.1,0.4,0.1l0.4,0.5c0.1,0.1,0.1,0.3,0,0.4
				c-0.1,0.1-0.3,0-0.4-0.1l-0.4-0.5C68,8.4,68,8.2,68.1,8.1z"/>
		</g>
		<g>
			<path fill="none" stroke="#F15A24" stroke-miterlimit="10" d="M67,6.8c0.1-0.1,0.3-0.1,0.4,0.1l0.4,0.5c0.1,0.1,0.1,0.3,0,0.4
				c-0.1,0.1-0.3,0.1-0.4-0.1L67,7.1C66.9,7,66.9,6.9,67,6.8z"/>
		</g>
		<g>
			<path fill="none" stroke="#F15A24" stroke-miterlimit="10" d="M65.9,5.5c0.1-0.1,0.3-0.1,0.4,0L66.7,6c0.1,0.1,0.1,0.3,0,0.4
				c-0.1,0.1-0.3,0.1-0.4,0l-0.4-0.5C65.8,5.7,65.8,5.5,65.9,5.5z"/>
		</g>
	</g>
</g>
<g>
	<g>
		<path fill="none" stroke="#F15A24" stroke-width="0.7013" stroke-miterlimit="10" d="M66.1,3.8c0,1.9-11.9,1.9-11.9,0
			c0-1.9,2.7-3.5,5.9-3.5C63.5,0.4,66.1,1.9,66.1,3.8z"/>
	</g>
</g>
</svg>
